<svg width="1090" height="684" viewBox="0 0 1090 684" fill="none" xmlns="http://www.w3.org/2000/svg">
<path fill-rule="evenodd" clip-rule="evenodd" d="M589.773 245.58H550.017V285.337H589.773V245.58ZM499.334 335.971H539.09V296.215H499.334V335.971ZM499.334 245.58H539.09V285.337H499.334V245.58ZM589.773 335.971H550.017V296.215H589.773V335.971ZM307.576 263.727L328.552 297.63L372.601 270.361V417.338H412.455V245.678L544.554 163.921L579.188 185.336C577.578 178.458 576.505 171.434 575.871 164.36C574.895 154.799 574.7 145.189 574.456 135.531L544.554 116.994L307.576 263.727Z" fill="#00A651"/>
<path fill-rule="evenodd" clip-rule="evenodd" d="M716.213 409.439C716.31 408.756 716.408 408.073 716.457 407.439V242.901C758.701 212.462 754.555 165.242 745.042 132.315C725.628 64.802 637.529 15.6309 537.724 20.5578C602.895 53.9726 589.48 118.754 593.968 162.656C598.992 220.998 642.554 252.852 668.456 255.828C682.798 202.023 674.164 150.607 654.164 96.3144C698.749 161.047 722.993 326.853 621.188 400.024C634.602 401.78 703.042 407.097 716.213 409.439Z" fill="#067141"/>
<path fill-rule="evenodd" clip-rule="evenodd" d="M831.336 221.772C831.336 221.772 824.018 221.187 816.067 227.382C808.067 233.577 797.482 251.041 779.14 260.114C760.798 269.187 746.896 259.675 743.042 255.431C739.189 251.187 742.067 245.431 742.067 245.431C742.067 245.431 733.042 241.724 740.993 229.431C775.433 190.601 831.336 221.772 831.336 221.772Z" fill="#00A651"/>
<path fill-rule="evenodd" clip-rule="evenodd" d="M778.205 308.262C778.205 308.262 775.571 304.262 769.132 302.652C762.692 301.042 749.424 302.603 737.326 296.798C725.229 290.993 724.546 279.969 725.18 276.31C725.814 272.603 729.96 271.774 729.96 271.774C729.96 271.774 728.253 265.627 737.765 264.798C771.766 266.798 778.205 308.262 778.205 308.262Z" fill="#00A651"/>
<path fill-rule="evenodd" clip-rule="evenodd" d="M634.061 315.875C634.061 315.875 635.671 311.339 641.525 308.217C647.378 305.095 660.647 303.436 670.988 294.9C681.33 286.363 679.379 275.485 677.866 272.07C676.354 268.656 672.159 268.802 672.159 268.802C672.159 268.802 672.354 262.412 662.891 263.875C630.354 274.119 634.061 315.875 634.061 315.875Z" fill="#00A651"/>
<path fill-rule="evenodd" clip-rule="evenodd" d="M227.723 469.681C438.261 406.217 649.531 411.729 861.386 472.364C683.336 353.095 407.529 358.217 227.723 469.681Z" fill="#85B642"/>
<path fill-rule="evenodd" clip-rule="evenodd" d="M497.972 36.9496C497.972 36.9496 502.752 36.9984 507.63 41.535C512.46 46.0716 518.313 58.0717 529.777 65.0962C541.192 72.1206 550.85 66.7547 553.582 64.2181C556.362 61.6815 554.801 57.7303 554.801 57.7303C554.801 57.7303 560.899 55.8278 556.46 47.3887C536.265 19.9251 497.972 36.9496 497.972 36.9496Z" fill="#00A651"/>
<path fill-rule="evenodd" clip-rule="evenodd" d="M511.924 112.697C511.924 112.697 514.899 108.941 521.485 107.917C528.022 106.892 541.095 109.673 553.68 104.99C566.266 100.307 567.973 89.4289 567.68 85.6728C567.388 81.9167 563.339 80.6972 563.339 80.6972C563.339 80.6972 565.632 74.6971 556.168 73.0386C522.119 72.0142 511.924 112.697 511.924 112.697Z" fill="#00A651"/>
<path d="M286.954 498.795L277.611 478.424H310.693L350.239 559.2H314.767L308.791 546.273H276.959L271.038 559.2H257.295L286.954 498.795ZM303.087 533.834L292.875 511.668L282.717 533.834H303.087Z" fill="#067141"/>
<path d="M358.604 505.308H384.624L387.231 513.132C391.07 510.2 394.963 507.991 398.91 506.503C402.894 505.02 407.077 504.278 411.459 504.278C413.957 504.278 416.275 504.693 418.412 505.527C420.584 506.361 422.467 507.644 424.061 509.386C425.654 511.122 426.904 513.366 427.809 516.117C428.715 518.835 429.167 522.093 429.167 525.898V559.142H399.671V524.049C399.671 522.166 399.254 520.791 398.421 519.922C397.588 519.054 396.375 518.62 394.782 518.62C393.732 518.62 392.573 518.835 391.305 519.269C390.038 519.703 388.97 520.391 388.1 521.332V559.142H358.604V505.308Z" fill="#067141"/>
<path d="M440.354 542.196C440.354 539.586 440.934 537.161 442.093 534.913C443.252 532.669 444.917 530.713 447.091 529.049C449.263 527.381 451.889 526.078 454.967 525.137C458.045 524.161 461.486 523.669 465.288 523.669C469.091 523.669 472.64 524.122 475.935 525.03C479.267 525.898 482.055 527.02 484.301 528.396V527.961C484.301 525.425 484.011 523.274 483.431 521.498C482.888 519.722 482.037 518.274 480.878 517.152C479.72 516.03 478.235 515.215 476.424 514.708C474.649 514.2 472.549 513.947 470.123 513.947C467.914 513.947 465.632 514.147 463.278 514.542C460.924 514.908 458.752 515.449 456.759 516.176L452.794 508.839C456.741 507.21 460.816 506.054 465.017 505.366C469.254 504.639 473.618 504.278 478.108 504.278C483.866 504.278 488.954 504.839 493.372 505.961C497.827 507.049 501.557 508.698 504.563 510.903C507.605 513.078 509.904 515.83 511.461 519.161C513.018 522.459 513.797 526.332 513.797 530.786V559.142H486.256L484.409 553.927C483.323 554.762 482.037 555.557 480.552 556.318C479.068 557.079 477.438 557.747 475.664 558.327C473.889 558.908 472.006 559.362 470.014 559.684C468.023 560.01 465.94 560.176 463.767 560.176C460.218 560.176 456.995 559.723 454.098 558.815C451.237 557.874 448.793 556.606 446.765 555.015C444.736 553.42 443.161 551.537 442.038 549.366C440.916 547.157 440.354 544.766 440.354 542.196ZM470.775 541.054C470.775 543.01 471.408 544.601 472.676 545.835C473.944 547.03 475.646 547.625 477.782 547.625C478.941 547.625 480.082 547.445 481.205 547.084C482.327 546.684 483.359 546.103 484.301 545.342V536.166C482.49 535.079 480.498 534.532 478.326 534.532C475.863 534.532 473.98 535.152 472.676 536.381C471.408 537.576 470.775 539.132 470.775 541.054Z" fill="#067141"/>
<path d="M528.525 505.308H554.545L557.152 513.132C560.991 510.2 564.884 507.991 568.832 506.503C572.815 505.02 576.998 504.278 581.38 504.278C583.879 504.278 586.197 504.693 588.333 505.527C590.506 506.361 592.389 507.644 593.982 509.386C595.576 511.122 596.825 513.366 597.731 516.117C598.636 518.835 599.089 522.093 599.089 525.898V559.142H569.592V524.049C569.592 522.166 569.176 520.791 568.343 519.922C567.51 519.054 566.297 518.62 564.703 518.62C563.653 518.62 562.494 518.835 561.227 519.269C559.959 519.703 558.891 520.391 558.022 521.332V559.142H528.525V505.308Z" fill="#067141"/>
<path d="M616.899 514.275H610.815V505.309H616.899V487.387H646.396V505.309H660.574L655.033 514.275H646.396V538.665C646.396 542.358 647.211 545.202 648.841 547.192C650.506 549.182 652.878 550.182 655.957 550.182L652.588 557.621C650.705 558.421 648.696 559.036 646.559 559.47C644.459 559.939 642.014 560.178 639.225 560.178C635.315 560.178 631.946 559.685 629.122 558.709C626.297 557.695 623.979 556.265 622.169 554.417C620.358 552.573 619.018 550.309 618.149 547.626C617.316 544.948 616.899 541.924 616.899 538.558V514.275Z" fill="#067141"/>
<path d="M669.325 469.461H698.82V513.95C702.879 511.018 707.025 508.682 711.259 506.94C715.532 505.169 720.006 504.282 724.679 504.282C727.176 504.282 729.493 504.696 731.63 505.53C733.806 506.365 735.689 507.648 737.279 509.389C738.874 511.126 740.123 513.37 741.03 516.121C741.933 518.838 742.386 522.096 742.386 525.901V559.146H712.888V524.053C712.888 522.17 712.474 520.794 711.64 519.926C710.845 519.057 709.523 518.623 707.674 518.623C706.845 518.623 706.01 518.75 705.176 519.004C704.381 519.257 703.601 519.579 702.84 519.979C702.079 520.379 701.357 520.833 700.669 521.335C699.981 521.843 699.366 522.35 698.82 522.857V559.146H669.325V469.461Z" fill="#067141"/>
<path d="M753.575 542.196C753.575 539.586 754.156 537.161 755.317 534.913C756.473 532.669 758.141 530.713 760.312 529.049C762.483 527.381 765.112 526.078 768.19 525.137C771.268 524.161 774.707 523.669 778.512 523.669C782.312 523.669 785.863 524.122 789.156 525.03C792.488 525.898 795.278 527.02 797.522 528.396V527.961C797.522 525.425 797.234 523.274 796.654 521.498C796.112 519.722 795.258 518.274 794.102 517.152C792.941 516.03 791.458 515.215 789.644 514.708C787.873 514.2 785.771 513.947 783.346 513.947C781.136 513.947 778.853 514.147 776.502 514.542C774.146 514.908 771.975 515.449 769.98 516.176L766.014 508.839C769.966 507.21 774.039 506.054 778.239 505.366C782.473 504.639 786.839 504.278 791.332 504.278C797.088 504.278 802.176 504.839 806.595 505.961C811.049 507.049 814.781 508.698 817.785 510.903C820.824 513.078 823.127 515.83 824.683 519.161C826.239 522.459 827.02 526.332 827.02 530.786V559.142H799.478L797.629 553.927C796.546 554.762 795.258 555.557 793.776 556.318C792.288 557.079 790.658 557.747 788.888 558.327C787.112 558.908 785.229 559.362 783.234 559.684C781.244 560.01 779.161 560.176 776.99 560.176C773.439 560.176 770.214 559.723 767.322 558.815C764.458 557.874 762.014 556.606 759.985 555.015C757.961 553.42 756.385 551.537 755.258 549.366C754.136 547.157 753.575 544.766 753.575 542.196ZM783.995 541.054C783.995 543.01 784.629 544.601 785.897 545.835C787.166 547.03 788.868 547.625 791.005 547.625C792.161 547.625 793.302 547.445 794.424 547.084C795.546 546.684 796.58 546.103 797.522 545.342V536.166C795.712 535.079 793.722 534.532 791.546 534.532C789.083 534.532 787.2 535.152 785.897 536.381C784.629 537.576 783.995 539.132 783.995 541.054Z" fill="#067141"/>
<path d="M376.932 616.824C376.932 613.351 377.374 610.009 378.259 606.799C379.176 603.555 380.503 600.541 382.24 597.755C383.977 594.97 386.106 592.428 388.629 590.136C391.152 587.843 394.019 585.877 397.23 584.238C400.474 582.599 404.045 581.341 407.944 580.453C411.843 579.536 416.037 579.077 420.526 579.077C423.41 579.077 426.162 579.258 428.783 579.619C431.437 579.98 433.927 580.487 436.254 581.145C438.58 581.765 440.726 582.502 442.692 583.355C444.691 584.175 446.493 585.043 448.098 585.96L443.871 594.219C442.037 593.331 439.939 592.594 437.58 592.004C435.254 591.385 432.83 591.072 430.307 591.072C426.932 591.072 423.803 591.677 420.919 592.892C418.036 594.102 415.546 595.824 413.449 598.048C411.352 600.277 409.697 602.98 408.485 606.16C407.306 609.307 406.716 612.843 406.716 616.775C406.716 620.673 407.306 624.214 408.485 627.39C409.665 630.536 411.286 633.239 413.35 635.502C415.448 637.731 417.921 639.463 420.772 640.712C423.655 641.922 426.768 642.531 430.11 642.531V617.809H458.763L453.652 627.097V646.951L453.701 647.048C452.096 648 450.113 648.917 447.754 649.805C445.395 650.687 442.758 651.492 439.841 652.209C436.958 652.897 433.878 653.458 430.601 653.883C427.325 654.307 423.967 654.522 420.526 654.522C413.809 654.522 407.747 653.536 402.342 651.57C396.968 649.575 392.397 646.873 388.629 643.463C384.861 640.024 381.961 636.024 379.93 631.473C377.931 626.882 376.932 621.999 376.932 616.824Z" fill="#00A651"/>
<path d="M467.314 604.588H490.857L493.216 611.666C495.083 610.29 496.836 609.11 498.475 608.129C500.145 607.115 501.751 606.276 503.291 605.622C504.864 604.934 506.371 604.442 507.813 604.149C509.287 603.822 510.745 603.656 512.187 603.656C514.284 603.656 516.168 603.949 517.839 604.539C519.543 605.129 520.984 605.968 522.164 607.046C523.376 608.129 524.293 609.422 524.916 610.929C525.571 612.403 525.899 614.042 525.899 615.847C525.899 617.647 525.506 619.3 524.719 620.808C523.966 622.315 522.852 623.627 521.377 624.739C519.903 625.822 518.085 626.676 515.922 627.295C513.792 627.886 511.351 628.183 508.599 628.183L499.949 616.632C498.999 616.632 497.966 616.827 496.853 617.222C495.739 617.612 494.788 618.237 494.002 619.091V653.296H467.314V604.588Z" fill="#00A651"/>
<path d="M530.37 637.964C530.37 635.603 530.895 633.408 531.943 631.374C532.991 629.344 534.498 627.574 536.464 626.066C538.43 624.559 540.806 623.383 543.591 622.53C546.376 621.647 549.489 621.203 552.929 621.203C556.369 621.203 559.581 621.612 562.562 622.432C565.576 623.217 568.099 624.232 570.131 625.476V625.086C570.131 622.793 569.868 620.842 569.345 619.237C568.853 617.632 568.083 616.32 567.034 615.305C565.986 614.29 564.643 613.549 563.005 613.09C561.399 612.632 559.499 612.403 557.303 612.403C555.304 612.403 553.241 612.583 551.111 612.944C548.981 613.271 547.015 613.764 545.213 614.417L541.625 607.783C545.197 606.31 548.882 605.261 552.683 604.637C556.517 603.983 560.465 603.656 564.528 603.656C569.738 603.656 574.341 604.164 578.339 605.178C582.369 606.164 585.744 607.651 588.463 609.651C591.215 611.617 593.296 614.11 594.705 617.125C596.114 620.105 596.818 623.613 596.818 627.642V653.296H571.9L570.229 648.579C569.246 649.33 568.083 650.052 566.74 650.74C565.396 651.427 563.922 652.032 562.316 652.559C560.711 653.081 559.007 653.491 557.205 653.788C555.403 654.081 553.519 654.227 551.553 654.227C548.342 654.227 545.426 653.818 542.804 653.003C540.216 652.149 538.004 651.003 536.17 649.559C534.335 648.12 532.91 646.413 531.894 644.447C530.878 642.452 530.37 640.286 530.37 637.964ZM557.893 636.93C557.893 638.7 558.466 640.139 559.613 641.257C560.76 642.335 562.3 642.876 564.233 642.876C565.282 642.876 566.314 642.71 567.329 642.383C568.345 642.022 569.279 641.5 570.131 640.813V632.505C568.492 631.525 566.69 631.032 564.725 631.032C562.497 631.032 560.793 631.588 559.613 632.7C558.466 633.783 557.893 635.193 557.893 636.93Z" fill="#00A651"/>
<path d="M610.137 604.588H633.679L636.038 611.666C639.511 609.012 643.033 607.012 646.605 605.671C650.209 604.329 653.993 603.656 657.958 603.656C660.94 603.656 663.642 604.31 666.067 605.622C668.492 606.934 670.392 609.012 671.768 611.866C673.276 610.783 674.898 609.749 676.634 608.768C678.371 607.783 680.189 606.915 682.089 606.164C684.021 605.378 686.021 604.768 688.085 604.344C690.148 603.886 692.294 603.656 694.524 603.656C696.787 603.656 698.899 604.032 700.865 604.788C702.831 605.539 704.534 606.705 705.977 608.276C707.417 609.847 708.548 611.881 709.368 614.369C710.187 616.827 710.597 619.778 710.597 623.217V653.296H683.909V621.544C683.909 619.842 683.514 618.598 682.729 617.812C681.977 617.022 680.877 616.632 679.436 616.632C678.682 616.632 677.83 616.812 676.88 617.173C675.93 617.5 674.963 617.993 673.98 618.647V653.296H647.293V621.544C647.293 619.842 646.916 618.598 646.162 617.812C645.409 617.022 644.311 616.632 642.87 616.632C641.919 616.632 640.871 616.827 639.724 617.222C638.577 617.612 637.611 618.237 636.824 619.091V653.296H610.137V604.588Z" fill="#00A651"/>
</svg>
