<svg width="1090" height="545" viewBox="0 0 1090 545" fill="none" xmlns="http://www.w3.org/2000/svg">
<path d="M641.77 445.889C639.805 444.878 638.851 443.853 638.851 442.127C638.851 440.035 640.465 438.365 643.75 438.365C647.034 438.365 648.831 440.639 648.831 443.446C648.831 444.527 648.536 445.173 648.536 445.173C648.536 445.173 649.379 446.015 651.4 446.015C653.421 446.015 655.344 444.696 655.344 442.436C655.344 439.333 651.877 435.389 644.48 435.389C636.001 435.389 631.818 439.333 631.818 444.162C631.818 448.163 634.148 450.072 637.012 451.63L642.865 454.732C645.013 455.869 645.785 457.062 645.785 458.494C645.785 460.459 644.171 462.256 640.774 462.256C637.377 462.2 635.819 460.109 635.819 457.175C635.819 456.094 636.113 455.448 636.113 455.448C636.113 455.448 635.271 454.606 633.25 454.606C631.228 454.606 629.305 455.925 629.305 458.185C629.305 461.288 632.534 465.232 640.17 465.232C648.831 465.232 652.832 461.175 652.832 456.459C652.832 453.3 651.274 450.844 646.922 448.57L641.784 445.889H641.77ZM619.605 438.365C620.855 438.365 621.697 439.207 621.697 440.456C621.697 444.401 618.651 448.036 611.366 449.777C612.025 442.309 616.208 438.379 619.605 438.379V438.365ZM617.037 465.246C626.175 465.246 631.902 459.042 632.45 456.403C632.688 455.322 632.267 454.845 631.495 454.845C629.881 457.357 626.245 460.516 619.858 460.516C614.777 460.516 611.674 457.048 611.323 452.571C621.837 450.605 628.098 447.012 628.098 441.579C628.098 438.533 625.656 435.375 619.563 435.375C611.618 435.375 603.561 441.762 603.561 452.332C603.561 460.389 609.232 465.232 617.051 465.232L617.037 465.246ZM576.974 482.203C575.121 482.203 574.223 481.066 574.223 479.508C574.223 477.417 575.416 475.395 577.746 473.121C579.473 471.395 582.224 469.654 586.169 467.633C584.372 477.192 581.157 482.203 576.974 482.203ZM581.452 460.052C579.248 460.052 577.929 458.438 577.929 455.097C577.929 445.482 582.533 439.446 586.59 439.446C588.864 439.446 589.987 441.116 590.534 442.309L590.001 445.117C588.864 451.083 585.705 460.052 581.466 460.052H581.452ZM598.465 440.274C598.999 437.045 599.841 435.978 599.841 435.978C599.841 435.978 598.886 435.389 596.851 435.389C593.931 435.389 592.429 436.161 591.475 438.309C590.099 436.582 588.007 435.389 585.032 435.389C578.041 435.389 570.278 441.664 570.278 454.971C570.278 461.961 574.167 465.246 579.052 465.246C582.154 465.246 585.144 463.337 587.53 459.631L586.814 463.871C581.915 466.257 578.813 468.054 575.879 470.622C572.959 473.135 570.868 476.35 570.868 479.873C570.868 483.579 573.493 486.148 577.55 486.148C586.393 486.148 591.938 478.441 594.268 464.586L594.38 463.871C597.904 462.144 601.666 460.052 603.87 458.382C605.063 457.484 605.723 456.824 605.835 456.234C606.017 455.336 605.414 454.859 604.698 454.859C601.118 457.778 594.97 460.235 594.97 460.235L598.437 440.288L598.465 440.274ZM548.184 460.052C545.98 460.052 544.66 458.438 544.66 455.097C544.66 445.482 549.264 439.446 553.321 439.446C555.595 439.446 556.718 441.116 557.266 442.309L556.732 445.117C555.595 451.083 552.437 460.052 548.198 460.052H548.184ZM565.197 440.274C565.786 437.045 566.572 435.978 566.572 435.978C566.572 435.978 565.618 435.389 563.583 435.389C560.663 435.389 559.161 436.161 558.206 438.309C556.831 436.582 554.739 435.389 551.763 435.389C544.773 435.389 537.01 441.664 537.01 454.971C537.01 461.961 540.898 465.246 545.783 465.246C549.18 465.246 552.465 462.916 554.922 458.494C555.216 462.79 557.968 465.246 561.912 465.246C567.709 465.246 572.005 459.575 572.594 456.403C572.777 455.322 572.244 454.845 571.457 454.845C569.899 458.073 567.218 460.038 565.183 460.038C563.035 460.038 561.954 458.368 562.614 454.788L565.183 440.274H565.197ZM520.642 435.389C519.323 435.389 518.607 436.105 518.607 437.115C518.607 437.887 519.028 438.365 519.028 438.365H522.916L520.713 450.97C520.179 454.016 520.053 455.982 520.053 457.357C520.053 462.13 523.52 465.246 527.942 465.246C533.613 465.246 538.456 460.052 539.354 456.403C539.593 455.392 539.059 454.845 538.273 454.845C536.954 457.357 534.511 460.038 531.1 460.038C528.293 460.038 527.1 458.073 527.703 454.788L530.567 438.365H535.41C536.729 438.365 537.445 437.649 537.445 436.638C537.445 435.866 537.024 435.389 537.024 435.389H531.114L531.648 432.399C532.42 428.216 531.83 426.489 527.226 426.489C525.022 426.489 524.124 427.023 524.124 427.023C524.124 427.023 524.783 428.398 524.067 432.16L523.464 435.389H520.656H520.642ZM502.857 435.389C501.538 435.389 500.822 436.105 500.822 437.115C500.822 437.887 501.243 438.365 501.243 438.365H505.131L502.927 450.97C502.394 454.016 502.267 455.982 502.267 457.357C502.267 462.13 505.735 465.246 510.156 465.246C515.828 465.246 520.67 460.052 521.555 456.403C521.793 455.392 521.26 454.845 520.474 454.845C519.154 457.357 516.712 460.038 513.315 460.038C510.507 460.038 509.314 458.073 509.918 454.788L512.781 438.365H517.624C518.944 438.365 519.66 437.649 519.66 436.638C519.66 435.866 519.239 435.389 519.239 435.389H513.329L513.862 432.399C514.634 428.216 514.045 426.489 509.441 426.489C507.237 426.489 506.338 427.023 506.338 427.023C506.338 427.023 506.998 428.398 506.282 432.16L505.679 435.389H502.871H502.857ZM486.49 446.97C486.49 448.935 487.262 450.549 488.764 451.686C487.205 458.859 484.524 462.256 481.296 462.256C478.783 462.256 477.351 460.165 477.351 456.403C477.351 454.915 477.59 451.798 477.885 450.254C479.555 441.355 482.657 438.309 485.647 438.309C487.851 438.309 489.227 439.923 489.536 442.913C487.57 443.334 486.49 444.948 486.49 446.97ZM486.251 435.389C476.046 435.389 469.715 443.039 469.715 453.848C469.715 461.246 474.375 465.246 480.706 465.246C488.834 465.246 494.322 460.403 496.358 453.3C501.13 452.711 504.892 449.482 505.257 447.391C505.37 446.492 504.963 445.903 504.177 445.903C504.177 445.903 501.425 449.903 496.947 450.563C497.13 449.37 497.242 448.121 497.242 446.801C497.242 439.993 493.242 435.403 486.251 435.403V435.389ZM457.166 460.291C449.164 460.291 444.265 455.21 444.265 446.015C444.265 433.718 451.073 423.738 457.938 423.738C460.857 423.738 462.837 425.591 462.837 428.749C462.837 435.431 458.359 437.228 458.359 437.228C458.359 437.228 459.313 439.263 462.247 439.263C465.953 439.263 469.532 436.217 469.532 430.602C469.532 425.282 465.588 420.453 458.12 420.453C445.753 420.453 435.969 430.967 435.969 446.675C435.969 458.256 443.788 465.246 454.007 465.246C464.226 465.246 471.919 459.28 472.635 456.164C472.747 455.392 472.579 454.845 471.624 454.845C468.873 457.835 463.679 460.277 457.18 460.277L457.166 460.291Z" fill="#934139"/>
<path d="M395.47 500.928H389.785L385.587 520.047L381.124 500.928H375.27L382.036 524.384H388.942L395.47 500.928Z" fill="#934139"/>
<path d="M406.126 500.928H400.581V524.384H406.126V500.928Z" fill="#934139"/>
<path d="M440.194 500.928H434.65V524.384H448.757L449.333 519.99H440.194V500.942V500.928ZM419.461 500.928H413.917V524.384H428.024L428.6 519.99H419.461V500.942V500.928Z" fill="#934139"/>
<path d="M460.631 515.316L463.102 504.956L465.572 515.316H460.631ZM467.734 524.384H473.63L466.555 500.928H459.817L452.742 524.384H458.497L459.677 519.345H466.541L467.72 524.384H467.734Z" fill="#934139"/>
<path d="M497.619 514.642L503.107 519.892C501.984 520.734 500.777 521.183 499.289 521.183C497.057 521.183 495.597 519.962 495.597 518.109C495.597 516.762 496.243 515.667 497.633 514.656L497.619 514.642ZM498.63 503.805C499.921 503.805 500.693 504.619 500.693 505.911C500.693 507.328 499.949 508.353 498.391 509.364C496.973 507.946 496.468 507.16 496.468 505.981C496.468 504.689 497.282 503.819 498.63 503.819V503.805ZM498.559 500.352C493.646 500.352 491.316 503.061 491.316 505.967C491.316 508.129 492.229 509.49 494.559 511.75C491.513 513.744 489.997 515.568 489.997 518.376C489.997 522.334 493.351 524.945 498.349 524.945C501.198 524.945 503.627 524.131 505.76 522.405L508.4 524.945L512.962 522.812L508.863 519.19C510.042 517.534 511.095 515.47 511.979 512.901L507.515 511.582C507.08 513.477 506.533 515.105 505.887 516.453L501.325 512.157C503.936 510.431 505.789 508.606 505.789 505.756C505.789 502.682 503.121 500.338 498.545 500.338L498.559 500.352Z" fill="#934139"/>
<path d="M543.297 524.384H548.842V500.928H543.297V509.996H536.25V500.928H530.706V524.384H536.25V514.333H543.297V524.384Z" fill="#934139"/>
<path d="M566.094 504.409C569.238 504.409 570.866 506.711 570.866 512.635C570.866 518.559 569.28 520.889 566.094 520.889C562.907 520.889 561.349 518.587 561.349 512.635C561.349 506.683 562.977 504.409 566.094 504.409ZM566.094 500.353C559.496 500.353 555.538 504.985 555.538 512.635C555.538 520.286 559.496 524.96 566.094 524.96C572.691 524.96 576.692 520.328 576.692 512.635C576.692 504.943 572.733 500.353 566.094 500.353Z" fill="#934139"/>
<path d="M604.935 500.927H597.902L594.618 516.831L591.094 500.927H584.09L582.335 524.383H587.753L588.16 515.273C588.301 511.989 588.301 509.083 588.062 505.63L591.922 521.913H597.172L600.794 505.63C600.626 508.535 600.696 511.918 600.864 515.203L601.271 524.369H606.718L604.963 500.913L604.935 500.927Z" fill="#934139"/>
<path d="M642.148 500.352C637.277 500.352 633.684 502.991 633.684 507.118C633.684 510.599 635.607 512.775 640.857 514.389C644.268 515.442 645.152 516.214 645.152 517.941C645.152 519.667 643.734 520.818 641.432 520.818C639.13 520.818 637.235 519.976 635.509 518.516L632.701 521.59C634.624 523.457 637.544 524.945 641.601 524.945C647.454 524.945 650.907 521.899 650.907 517.534C650.907 513.168 648.367 511.371 643.931 509.953C640.281 508.802 639.397 508.199 639.397 506.711C639.397 505.223 640.618 504.409 642.541 504.409C644.464 504.409 646.065 505.054 647.693 506.374L650.262 503.356C648.198 501.391 645.728 500.338 642.134 500.338L642.148 500.352ZM627.774 500.927H613.386V524.384H627.774V520.397H618.945V514.403H626.16V510.515H618.945V504.9H627.198L627.774 500.941V500.927Z" fill="#934139"/>
<path d="M684.274 515.316L686.745 504.956L689.215 515.316H684.274ZM691.377 524.384H697.259L690.184 500.928H683.446L676.371 524.384H682.127L683.306 519.345H690.17L691.349 524.384H691.377ZM673.409 500.928H655.47V505.195H661.534V524.384H667.079V505.195H672.862L673.409 500.928Z" fill="#934139"/>
<path d="M720.506 500.928H714.652L710.329 511.245L705.991 500.928H699.941L707.451 515.611V524.384H712.996V515.583L720.506 500.928Z" fill="#934139"/>
<path d="M776.205 361.187C774.45 361.187 773.482 362.141 773.482 363.503C773.482 364.542 774.043 365.187 774.043 365.187H779.237L776.275 382.046C775.559 386.117 775.391 388.756 775.391 390.595C775.391 396.982 780.023 401.137 785.933 401.137C793.527 401.137 799.998 394.188 801.191 389.303C801.514 387.942 800.784 387.226 799.759 387.226C798.005 390.581 794.72 394.174 790.172 394.174C786.41 394.174 784.824 391.535 785.61 387.142L789.442 365.159H795.913C797.668 365.159 798.637 364.205 798.637 362.843C798.637 361.804 798.075 361.159 798.075 361.159H790.158L790.874 357.158C791.913 351.557 791.112 349.241 784.964 349.241C782.002 349.241 780.809 349.957 780.809 349.957C780.809 349.957 781.693 351.796 780.725 356.835L779.925 361.145H776.163L776.205 361.187ZM744.719 394.202C741.757 394.202 740.003 392.041 740.003 387.563C740.003 374.691 746.151 366.619 751.583 366.619C754.615 366.619 756.146 368.851 756.861 370.451L756.146 374.213C754.629 382.201 750.39 394.188 744.719 394.188V394.202ZM767.488 367.742C768.288 363.433 769.327 361.987 769.327 361.987C769.327 361.987 768.049 361.187 765.326 361.187C761.41 361.187 759.416 362.225 758.139 365.103C756.3 362.787 753.507 361.187 749.506 361.187C740.157 361.187 729.769 369.581 729.769 387.394C729.769 396.743 734.963 401.137 741.519 401.137C746.081 401.137 750.474 398.021 753.745 392.111C754.152 397.866 757.816 401.137 763.094 401.137C770.843 401.137 776.598 393.543 777.398 389.303C777.637 387.872 776.921 387.226 775.882 387.226C773.804 391.535 770.211 394.174 767.488 394.174C764.61 394.174 763.178 391.942 764.049 387.142L767.488 367.728V367.742ZM715.227 365.187C716.911 365.187 718.02 366.31 718.02 367.981C718.02 373.259 713.949 378.13 704.193 380.446C705.078 370.451 710.665 365.187 715.227 365.187ZM711.788 401.151C724.014 401.151 731.692 392.841 732.408 389.317C732.731 387.886 732.17 387.24 731.131 387.24C728.969 390.595 724.098 394.834 715.55 394.834C708.756 394.834 704.6 390.202 704.123 384.208C718.189 381.569 726.583 376.782 726.583 369.497C726.583 365.426 723.312 361.187 715.157 361.187C704.53 361.187 693.736 369.735 693.736 383.885C693.736 394.68 701.33 401.151 711.802 401.151H711.788ZM673.115 369.104C674.069 363.756 673.353 361.187 667.205 361.187C664.243 361.187 663.05 361.903 663.05 361.903C663.05 361.903 663.85 363.741 662.966 368.781L658.727 393.234C657.772 398.835 658.488 401.151 664.636 401.151C667.598 401.151 668.791 400.435 668.791 400.435C668.791 400.435 667.991 398.751 668.791 394.048C670.714 382.776 673.353 377.821 676.385 373.596C679.024 369.918 680.779 368.879 682.057 368.879C683.25 368.879 683.741 369.525 683.741 370.634C683.741 372.796 682.702 374.634 682.702 374.634C682.702 374.634 684.218 375.112 686.296 375.112C690.212 375.112 692.935 371.911 692.935 367.433C692.935 363.362 690.451 361.201 686.548 361.201C682.955 361.201 677.593 363.994 672.483 372.627L673.129 369.118L673.115 369.104ZM636.435 361.187C634.681 361.187 633.712 362.141 633.712 363.503C633.712 364.542 634.273 365.187 634.273 365.187H639.467L636.505 382.046C635.789 386.117 635.621 388.756 635.621 390.595C635.621 396.982 640.253 401.137 646.163 401.137C653.757 401.137 660.229 394.188 661.422 389.303C661.745 387.942 661.029 387.226 659.99 387.226C658.235 390.581 654.95 394.174 650.402 394.174C646.64 394.174 645.054 391.535 645.84 387.142L649.672 365.159H656.144C657.898 365.159 658.867 364.205 658.867 362.843C658.867 361.804 658.305 361.159 658.305 361.159H650.388L651.104 357.158C652.143 351.557 651.343 349.241 645.194 349.241C642.233 349.241 641.039 349.957 641.039 349.957C641.039 349.957 641.924 351.796 640.955 356.835L640.155 361.145H636.393L636.435 361.187ZM619.969 365.187C621.654 365.187 622.763 366.31 622.763 367.981C622.763 373.259 618.692 378.13 608.936 380.446C609.82 370.451 615.407 365.187 619.969 365.187ZM616.53 401.151C628.757 401.151 636.435 392.841 637.151 389.317C637.474 387.886 636.912 387.24 635.874 387.24C633.712 390.595 628.841 394.834 620.292 394.834C613.498 394.834 609.343 390.202 608.866 384.208C622.931 381.569 631.326 376.782 631.326 369.497C631.326 365.426 628.055 361.187 619.899 361.187C609.273 361.187 598.478 369.735 598.478 383.885C598.478 394.68 606.072 401.151 616.544 401.151H616.53ZM578.728 376.291C588.231 375.098 596.555 368.542 596.555 359.755C596.555 348.806 587.038 341.212 565.87 341.212C547.172 341.212 538.778 348.567 538.778 356.47C538.778 361.271 541.978 364.457 547.172 364.457C551.243 364.457 553.25 361.903 553.25 359.979C553.25 359.502 553.166 359.264 553.166 359.264C553.166 359.264 552.689 359.502 551.804 359.502C549.811 359.502 548.604 358.07 548.604 355.824C548.604 351.262 553.082 345.591 565.224 345.591C579.851 345.675 585.438 351.024 585.438 359.264C585.438 368.612 579.359 374.452 569.94 374.452H566.908L569.702 358.393C570.741 352.245 569.618 349.676 563.708 349.676C560.437 349.676 559.146 350.476 559.146 350.476C559.146 350.476 560.03 352.47 559.061 357.986L553.068 392.434C552.029 398.582 553.152 401.151 559.061 401.151C562.332 401.151 563.624 400.351 563.624 400.351C563.624 400.351 562.739 398.357 563.708 392.757L566.108 378.846H570.67C574.264 378.846 575.78 381.078 576.903 385.401L578.419 391.241C580.019 397.389 583.697 401.151 589.368 401.151C596.555 401.151 602.633 393.795 603.195 389.317C603.349 388.04 602.872 387.24 601.679 387.24C600.724 389.233 597.524 394.188 593.846 394.188C591.291 394.188 589.775 392.111 588.568 388.194L587.206 383.801C585.929 379.646 582.644 377.161 578.742 376.291H578.728ZM505.93 349.199C505.93 351.992 507.853 354 510.731 354C514.254 354 516.486 351.276 516.486 348.483C516.486 345.689 514.563 343.444 511.531 343.444C508.499 343.444 505.944 345.914 505.944 349.199H505.93ZM500.568 383.562C500.006 386.763 499.852 389.556 499.852 391.156C499.852 397.543 503.684 401.151 509.201 401.151C516.95 401.151 522.705 393.557 523.505 389.317C523.744 387.886 523.028 387.24 521.989 387.24C519.911 391.549 516.318 394.188 513.595 394.188C510.717 394.188 509.355 391.956 510.155 387.156L513.272 369.09C514.226 363.489 513.51 361.173 507.362 361.173C504.4 361.173 503.207 361.889 503.207 361.889C503.207 361.889 504.007 363.643 503.123 368.767L500.568 383.548V383.562ZM492.258 394.202C489.38 394.202 488.187 391.886 488.987 387.17L490.91 375.898C491.303 373.497 491.626 371.181 491.626 369.427C491.626 364.471 488.426 361.201 483.4 361.201C477.729 361.201 472.858 366.717 470.289 371.265C470.289 370.62 470.374 370.072 470.374 369.511C470.374 364.317 467.103 361.201 462.064 361.201C456.547 361.201 451.83 366.633 449.191 371.027L449.514 369.104C450.469 363.503 449.753 361.187 443.605 361.187C440.643 361.187 439.449 361.903 439.449 361.903C439.449 361.903 440.25 363.741 439.365 368.781L435.126 393.234C434.171 398.835 434.887 401.151 441.036 401.151C443.998 401.151 445.191 400.435 445.191 400.435C445.191 400.435 444.391 398.596 445.275 393.557C447.914 378.775 454.147 368.219 458.063 368.219C459.986 368.219 460.534 369.82 459.902 373.259L456.393 393.234C455.438 398.835 456.154 401.151 462.302 401.151C465.264 401.151 466.457 400.435 466.457 400.435C466.457 400.435 465.657 398.596 466.542 393.557C469.012 379.884 475.174 368.219 479.245 368.219C481 368.219 481.8 369.497 481.168 373.259L479.652 382.046C479.175 384.84 478.459 389.079 478.459 391.156C478.459 397.15 482.137 401.151 488.131 401.151C495.557 401.151 501.48 393.402 502.196 389.317C502.435 387.886 501.719 387.24 500.68 387.24C498.603 391.549 495.486 394.188 492.286 394.188L492.258 394.202ZM414.182 391.156C414.182 397.543 418.014 401.151 423.531 401.151C431.28 401.151 437.035 393.557 437.835 389.317C438.074 387.886 437.358 387.24 436.319 387.24C434.242 391.549 430.648 394.188 427.925 394.188C425.047 394.188 423.686 391.956 424.486 387.156L427.602 369.09C428.557 363.489 427.841 361.173 421.692 361.173C418.73 361.173 417.537 361.889 417.537 361.889C417.537 361.889 418.253 363.573 417.537 367.967C416.344 375.084 412.905 383.632 409.466 388.826C407.388 392.027 405.311 394.174 403.556 394.174C401.24 394.174 400.117 392.097 400.917 387.535L404.118 369.076C405.072 363.475 404.356 361.159 398.208 361.159C395.246 361.159 394.053 361.874 394.053 361.874C394.053 361.874 394.853 363.713 393.969 368.753L391.652 382.018C390.937 386.173 390.698 388.896 390.698 391.844C390.698 397.361 394.053 401.109 399.415 401.109C403.809 401.109 407.332 398.877 410.687 394.315C411.964 392.63 413.158 390.637 414.281 388.405C414.196 389.528 414.196 390.398 414.196 391.128L414.182 391.156ZM383.09 394.202C380.058 394.202 379.019 391.648 379.819 387.17L381.742 375.898C382.135 373.497 382.458 371.181 382.458 369.427C382.458 364.471 379.257 361.201 374.232 361.201C367.677 361.201 361.683 367.588 358.566 372.782L363.844 342.728C364.799 337.127 364.083 334.811 357.935 334.811C354.973 334.811 353.78 335.526 353.78 335.526C353.78 335.526 354.58 337.365 353.695 342.405L344.824 393.234C343.869 398.835 344.585 401.151 350.734 401.151C353.695 401.151 354.889 400.435 354.889 400.435C354.889 400.435 354.089 398.596 354.973 393.557C357.373 380.137 365.038 368.219 370.077 368.219C371.832 368.219 372.632 369.413 372 373.259L370.484 382.046C369.838 385.963 369.291 389.079 369.291 391.156C369.291 397.15 372.969 401.151 378.963 401.151C386.388 401.151 392.228 393.557 393.028 389.317C393.267 387.886 392.551 387.24 391.512 387.24C389.196 391.872 386.234 394.188 383.118 394.188L383.09 394.202ZM321.957 345.605C328.513 345.605 332.513 349.115 332.513 355.516C332.513 364.303 326.603 369.188 320.371 369.188H315.654L319.809 345.619H321.971L321.957 345.605ZM320.357 373.582C326.112 373.582 329.944 376.852 329.944 383.169C329.944 390.848 324.596 396.757 315.725 396.757C314.04 396.757 312.763 396.673 311.569 396.519C311.415 395.325 311.485 393.009 311.963 390.44L314.924 373.582H320.357ZM343.617 356.4C343.617 347.935 337.061 341.212 318.279 341.212H307.569C294.697 341.212 287.425 346.967 287.425 354.884C287.425 359.685 290.626 362.871 295.82 362.871C299.89 362.871 301.898 360.316 301.898 358.393C301.898 357.916 301.814 357.677 301.814 357.677C301.814 357.677 301.336 357.916 300.452 357.916C298.459 357.916 297.251 356.484 297.251 354.238C297.251 349.676 300.845 345.605 308.116 345.605H308.832C308.832 346.644 308.678 347.921 308.425 349.522L301.547 388.924C301.308 390.202 301.07 391.718 301.07 392.995C301.07 394.596 301.392 395.957 302.501 397.15C304.34 399.312 308.734 401.151 317.044 401.151C333.341 401.151 341.02 393.473 341.02 384.053C341.02 377.498 336.065 372.473 328.948 371.265C339.012 370.227 343.575 363.04 343.575 356.4H343.617Z" fill="#934139"/>
<mask id="mask0_2010_62" style="mask-type:luminance" maskUnits="userSpaceOnUse" x="320" y="20" width="457" height="308">
<path d="M776.162 20.0098H320.764V327.596H776.162V20.0098Z" fill="white"/>
</mask>
<g mask="url(#mask0_2010_62)">
<path d="M378.415 296.096C377.081 296.096 376.015 295.015 376.015 293.695V256.37C376.015 255.037 377.096 253.97 378.415 253.97C379.735 253.97 380.815 255.051 380.815 256.37V293.695C380.815 295.029 379.735 296.096 378.415 296.096Z" fill="#994B43"/>
<path d="M378.414 227.075L360.924 257.368H395.905L378.414 227.075Z" fill="#994B43"/>
<path d="M378.415 209.231L367.648 227.873H389.168L378.415 209.231Z" fill="#994B43"/>
<path d="M757.002 319.663C755.668 319.663 754.602 318.582 754.602 317.263V279.938C754.602 278.604 755.682 277.537 757.002 277.537C758.321 277.537 759.402 278.618 759.402 279.938V317.263C759.402 318.596 758.321 319.663 757.002 319.663Z" fill="#994B43"/>
<path d="M746.446 276.935H767.558L757.002 258.644L746.446 276.935ZM775.882 281.735H738.107L756.988 249.028L775.882 281.735Z" fill="#994B43"/>
<path d="M750.405 249.041H763.586L756.988 237.629L750.405 249.041ZM771.924 253.842H742.081L757.002 227.999L771.924 253.842Z" fill="#994B43"/>
<path d="M339.645 318.88C338.311 318.88 337.245 317.799 337.245 316.48V279.154C337.245 277.821 338.326 276.754 339.645 276.754C340.965 276.754 342.045 277.835 342.045 279.154V316.48C342.045 317.813 340.979 318.88 339.645 318.88Z" fill="#994B43"/>
<path d="M329.088 276.146H350.2L339.644 257.856L329.088 276.146ZM358.538 280.947H320.764L339.644 248.24L358.538 280.947Z" fill="#994B43"/>
<path d="M333.059 248.258H346.241L339.657 236.845L333.059 248.258ZM354.579 253.059H324.735L339.657 227.216L354.579 253.059Z" fill="#994B43"/>
<path d="M589.453 75.6264C588.119 75.6264 587.052 74.5455 587.052 73.226V68.7481C587.052 62.2208 592.358 56.9287 598.872 56.9287H659.288C663.149 56.9287 666.307 53.7843 666.307 49.91V36.6728C666.307 35.3393 667.388 34.2725 668.707 34.2725C670.027 34.2725 671.108 35.3533 671.108 36.6728V49.896C671.108 56.4234 665.802 61.7154 659.288 61.7154H598.872C595.011 61.7154 591.853 64.8598 591.853 68.7341V73.212C591.853 74.5455 590.772 75.6264 589.453 75.6264Z" fill="#994B43"/>
<path d="M645.812 45.7685H609.582C608.248 45.7685 607.182 44.6876 607.182 43.3681C607.182 42.0486 608.263 40.9677 609.582 40.9677H645.812C649.49 40.9677 652.466 37.9918 652.466 34.314V22.5508C652.466 21.2172 653.547 20.1504 654.866 20.1504C656.186 20.1504 657.267 21.2313 657.267 22.5508V34.3C657.267 40.6308 652.129 45.7685 645.798 45.7685H645.812Z" fill="#994B43"/>
<path d="M494.391 116.221C493.155 116.221 492.103 116.881 491.541 117.976L405.212 289.063C404.706 290.073 404.748 291.21 405.352 292.165C405.956 293.119 406.924 293.681 408.061 293.681H580.734C581.857 293.681 582.854 293.133 583.443 292.165C584.033 291.196 584.089 290.073 583.584 289.063L497.254 117.976C496.693 116.881 495.626 116.221 494.405 116.221H494.391ZM580.734 298.482H408.061C405.268 298.482 402.727 297.064 401.253 294.678C399.793 292.291 399.667 289.385 400.93 286.887L487.26 115.8C488.621 113.091 491.359 111.406 494.391 111.406C497.423 111.406 500.16 113.091 501.522 115.8L587.851 286.887C589.115 289.385 588.988 292.291 587.528 294.678C586.054 297.064 583.514 298.482 580.72 298.482H580.734Z" fill="#994B43"/>
<path d="M690.409 298.481H582.967C581.634 298.481 580.567 297.4 580.567 296.081C580.567 294.761 581.648 293.68 582.967 293.68H690.409C691.546 293.68 692.529 293.133 693.118 292.164C693.708 291.196 693.764 290.073 693.259 289.062L683.208 269.143C682.618 267.964 683.081 266.504 684.275 265.914C685.454 265.325 686.914 265.788 687.503 266.981L697.554 286.9C698.817 289.385 698.691 292.305 697.231 294.691C695.743 297.077 693.202 298.495 690.409 298.495V298.481Z" fill="#994B43"/>
<path d="M577.97 270.281H576.749C575.415 270.281 574.348 269.2 574.348 267.881C574.348 266.561 575.429 265.481 576.749 265.481H577.97C579.907 265.481 581.662 264.484 582.672 262.842C583.683 261.185 583.739 259.164 582.841 257.451L498.266 95.4605C497.494 93.9866 496.048 93.1163 494.392 93.1163C492.735 93.1163 491.289 93.9866 490.517 95.4605L405.957 257.451C405.058 259.178 405.114 261.185 406.125 262.842C407.122 264.498 408.89 265.481 410.828 265.481C412.161 265.481 413.228 266.561 413.228 267.881C413.228 269.2 412.147 270.281 410.828 270.281C407.192 270.281 403.907 268.428 402.012 265.312C400.131 262.21 400.005 258.42 401.689 255.205L486.264 93.2146C487.85 90.1685 490.967 88.2734 494.406 88.2734C497.845 88.2734 500.961 90.1544 502.547 93.2146L587.094 255.205C588.779 258.434 588.652 262.21 586.771 265.312C584.89 268.414 581.592 270.281 577.956 270.281H577.97Z" fill="#994B43"/>
<path d="M685.776 270.282H577.955C576.622 270.282 575.555 269.201 575.555 267.882C575.555 266.562 576.636 265.481 577.955 265.481H685.776C687.713 265.481 689.468 264.485 690.478 262.842C691.475 261.186 691.545 259.165 690.647 257.452L606.086 95.4614C605.314 93.9875 603.868 93.1172 602.212 93.1172H597.425C596.091 93.1172 595.024 92.0363 595.024 90.7168C595.024 89.3973 596.105 88.3164 597.425 88.3164H602.212C605.651 88.3164 608.767 90.1974 610.353 93.2575L694.914 255.248C696.599 258.477 696.472 262.253 694.591 265.355C692.71 268.457 689.411 270.324 685.776 270.324V270.282Z" fill="#994B43"/>
<path d="M575.217 93.1025H494.937C493.604 93.1025 492.537 92.0216 492.537 90.7021C492.537 89.3826 493.618 88.3018 494.937 88.3018H575.217C576.55 88.3018 577.617 89.3826 577.617 90.7021C577.617 92.0216 576.536 93.1025 575.217 93.1025Z" fill="#994B43"/>
<path d="M474.249 280.613H514.536V275.349C514.536 273.707 513.202 272.359 511.546 272.359H477.238C475.596 272.359 474.249 273.693 474.249 275.349V280.613ZM519.35 285.414H469.448V275.335C469.448 271.04 472.943 267.53 477.253 267.53H511.56C515.855 267.53 519.364 271.026 519.364 275.335V285.414H519.35Z" fill="#994B43"/>
<path d="M463.143 293.681H525.652V287.589C525.652 286.396 524.683 285.413 523.476 285.413H465.319C464.126 285.413 463.143 286.382 463.143 287.589V293.681ZM530.452 298.482H458.329V287.589C458.329 283.743 461.459 280.612 465.305 280.612H523.462C527.308 280.612 530.438 283.743 530.438 287.589V298.482H530.452Z" fill="#994B43"/>
<path d="M505.172 258.449H482.727C481.618 258.449 480.705 257.551 480.705 256.428C480.705 255.305 481.604 254.407 482.727 254.407H505.172C506.281 254.407 507.194 255.305 507.194 256.428C507.194 257.551 506.281 258.449 505.172 258.449ZM511.223 201.542C509.131 202.314 507.629 204.35 507.629 206.722V213.151C507.629 213.628 507.432 214.077 507.082 214.386C506.731 214.709 506.267 214.864 505.776 214.821C505.622 214.807 505.481 214.765 505.341 214.695C505.58 215.622 505.72 216.618 505.72 217.629V224.493H482.193V217.629C482.193 217.432 482.193 217.236 482.207 217.039C482.362 213.881 483.78 211.031 485.955 209.01C487.584 207.494 489.647 206.441 491.935 206.062C492.595 205.936 493.269 205.894 493.957 205.894C494.644 205.894 495.318 205.95 495.978 206.062C497.522 206.329 498.954 206.89 500.231 207.69C500.975 208.168 501.663 208.701 502.281 209.319C503.067 210.105 503.727 210.989 504.274 211.958V206.722C504.274 203.662 501.775 201.177 498.715 201.177H487.485C484.425 201.177 481.941 203.662 481.941 206.722V211.691C481.941 212.168 481.744 212.618 481.379 212.926C481.028 213.249 480.565 213.404 480.074 213.347C479.231 213.277 478.558 212.449 478.558 211.509V206.708C478.558 204.883 477.687 203.283 476.34 202.272C475.975 203.114 475.778 204.027 475.778 204.981V267.854H512.149V204.981C512.149 203.718 511.798 202.553 511.223 201.514V201.542ZM498.701 201.177H494.546C495.374 201.444 495.964 202.202 495.964 203.114V206.062C497.508 206.329 498.94 206.89 500.217 207.69C500.961 208.168 501.649 208.701 502.267 209.319C503.039 210.091 503.713 210.989 504.26 211.958V206.722C504.26 203.648 501.761 201.163 498.701 201.163V201.177Z" fill="#994B43"/>
<path d="M495.978 203.363V227.802C495.978 228.911 495.08 229.81 493.957 229.81C492.834 229.81 491.936 228.911 491.936 227.802V203.363C491.936 202.465 492.525 201.707 493.353 201.454C493.536 201.398 493.732 201.37 493.943 201.37C494.153 201.37 494.35 201.398 494.532 201.454C495.361 201.707 495.95 202.465 495.95 203.363H495.978Z" fill="#994B43"/>
<path d="M493.409 158.952C489.872 158.952 486.994 161.83 486.994 165.368C486.994 168.905 489.872 171.783 493.409 171.783C496.946 171.783 499.824 168.905 499.824 165.368C499.824 161.83 496.946 158.952 493.409 158.952ZM493.409 176.597C487.219 176.597 482.179 171.558 482.179 165.368C482.179 159.177 487.219 154.138 493.409 154.138C499.6 154.138 504.639 159.177 504.639 165.368C504.639 171.558 499.6 176.597 493.409 176.597Z" fill="#994B43"/>
<path d="M515.8 201.178H513.189C512.501 201.178 511.841 201.304 511.223 201.542C509.132 202.315 507.63 204.35 507.63 206.722V213.151C507.63 213.629 507.433 214.078 507.082 214.387C506.731 214.71 506.268 214.864 505.777 214.822C505.623 214.808 505.482 214.766 505.342 214.695C504.71 214.429 504.261 213.769 504.261 212.969V206.694C504.261 203.634 501.762 201.149 498.702 201.149H487.472C484.412 201.149 481.928 203.634 481.928 206.694V211.663C481.928 212.141 481.731 212.59 481.366 212.899C481.015 213.222 480.552 213.376 480.061 213.32C479.218 213.25 478.545 212.421 478.545 211.481V206.68C478.545 204.855 477.674 203.255 476.327 202.244C475.4 201.542 474.249 201.135 473 201.135C471.821 201.135 470.88 200.181 470.88 199.016C470.88 197.851 471.835 196.896 473 196.896H515.8C516.979 196.896 517.919 197.851 517.919 199.016C517.919 200.181 516.965 201.163 515.8 201.163V201.178ZM515.8 192.896H473C469.589 192.896 466.837 195.661 466.837 199.058C466.837 202.455 469.603 205.22 473 205.22C473.842 205.22 474.516 205.908 474.516 206.736V211.537C474.516 212.899 474.993 214.19 475.779 215.187C476.706 216.394 478.109 217.222 479.696 217.377C480.566 217.447 481.422 217.349 482.222 217.054C482.91 216.801 483.556 216.422 484.103 215.917C485.282 214.836 485.984 213.292 485.984 211.691V206.722C485.984 205.894 486.672 205.206 487.5 205.206H498.73C499.572 205.206 500.246 205.894 500.246 206.722V212.997C500.246 216.001 502.506 218.57 505.412 218.851C505.524 218.851 505.637 218.865 505.735 218.865C505.805 218.865 505.875 218.865 505.959 218.865C507.377 218.865 508.753 218.331 509.82 217.377C511.013 216.296 511.701 214.752 511.701 213.151V206.722C511.701 206.301 511.883 205.894 512.178 205.641C512.445 205.375 512.81 205.22 513.217 205.22H515.828C519.225 205.22 521.99 202.455 521.99 199.058C521.99 195.675 519.211 192.896 515.814 192.896H515.8Z" fill="#994B43"/>
<path d="M505.271 130.962H484.594C483.261 130.962 482.194 129.881 482.194 128.562C482.194 127.242 483.275 126.161 484.594 126.161H505.271C506.605 126.161 507.672 127.242 507.672 128.562C507.672 129.881 506.591 130.962 505.271 130.962Z" fill="#994B43"/>
<path d="M512.134 144.957H476.451C475.117 144.957 474.05 143.876 474.05 142.557C474.05 141.237 475.131 140.156 476.451 140.156H512.134C513.467 140.156 514.534 141.237 514.534 142.557C514.534 143.876 513.453 144.957 512.134 144.957Z" fill="#994B43"/>
<path d="M519.449 158.953H469.968C468.634 158.953 467.567 157.872 467.567 156.553C467.567 155.233 468.648 154.152 469.968 154.152H519.449C520.783 154.152 521.85 155.233 521.85 156.553C521.85 157.872 520.769 158.953 519.449 158.953Z" fill="#994B43"/>
<path d="M526.199 172.949H500.553C499.219 172.949 498.152 171.868 498.152 170.549C498.152 169.229 499.233 168.148 500.553 168.148H526.199C527.532 168.148 528.599 169.229 528.599 170.549C528.599 171.868 527.518 172.949 526.199 172.949Z" fill="#994B43"/>
<path d="M485.785 172.949H462.329C460.996 172.949 459.929 171.868 459.929 170.549C459.929 169.229 461.01 168.148 462.329 168.148H485.785C487.119 168.148 488.186 169.229 488.186 170.549C488.186 171.868 487.105 172.949 485.785 172.949Z" fill="#994B43"/>
<path d="M533.528 186.939H455.691C454.358 186.939 453.291 185.859 453.291 184.539C453.291 183.22 454.372 182.139 455.691 182.139H533.528C534.862 182.139 535.929 183.22 535.929 184.539C535.929 185.859 534.848 186.939 533.528 186.939Z" fill="#994B43"/>
<path d="M539.802 200.95H520.318C518.985 200.95 517.918 199.869 517.918 198.55C517.918 197.23 518.999 196.149 520.318 196.149H539.802C541.136 196.149 542.203 197.23 542.203 198.55C542.203 199.869 541.122 200.95 539.802 200.95Z" fill="#994B43"/>
<path d="M468.688 200.95H448.868C447.534 200.95 446.467 199.869 446.467 198.55C446.467 197.23 447.548 196.149 448.868 196.149H468.688C470.022 196.149 471.089 197.23 471.089 198.55C471.089 199.869 470.008 200.95 468.688 200.95Z" fill="#994B43"/>
<path d="M546.948 214.946H511.672C510.338 214.946 509.271 213.865 509.271 212.546C509.271 211.226 510.352 210.146 511.672 210.146H546.948C548.281 210.146 549.348 211.226 549.348 212.546C549.348 213.865 548.267 214.946 546.948 214.946Z" fill="#994B43"/>
<path d="M476.662 214.946H441.666C440.333 214.946 439.266 213.865 439.266 212.546C439.266 211.226 440.347 210.146 441.666 210.146H476.662C477.995 210.146 479.062 211.226 479.062 212.546C479.062 213.865 477.981 214.946 476.662 214.946Z" fill="#994B43"/>
<path d="M554.711 228.941H510.732C509.398 228.941 508.332 227.861 508.332 226.541C508.332 225.222 509.412 224.141 510.732 224.141H554.711C556.044 224.141 557.111 225.222 557.111 226.541C557.111 227.861 556.03 228.941 554.711 228.941Z" fill="#994B43"/>
<path d="M476.663 228.941H434.79C433.456 228.941 432.389 227.861 432.389 226.541C432.389 225.222 433.47 224.141 434.79 224.141H476.663C477.996 224.141 479.063 225.222 479.063 226.541C479.063 227.861 477.982 228.941 476.663 228.941Z" fill="#994B43"/>
<path d="M561.784 242.937H510.744C509.411 242.937 508.344 241.857 508.344 240.537C508.344 239.218 509.425 238.137 510.744 238.137H561.784C563.117 238.137 564.184 239.218 564.184 240.537C564.184 241.857 563.103 242.937 561.784 242.937Z" fill="#994B43"/>
<path d="M478.5 242.937H427.025C425.692 242.937 424.625 241.857 424.625 240.537C424.625 239.218 425.706 238.137 427.025 238.137H478.5C479.834 238.137 480.901 239.218 480.901 240.537C480.901 241.857 479.82 242.937 478.5 242.937Z" fill="#994B43"/>
<path d="M568.846 256.934H511.672C510.338 256.934 509.271 255.853 509.271 254.533C509.271 253.214 510.352 252.133 511.672 252.133H568.846C570.179 252.133 571.246 253.214 571.246 254.533C571.246 255.853 570.165 256.934 568.846 256.934Z" fill="#994B43"/>
<path d="M476.663 256.934H420.528C419.194 256.934 418.127 255.853 418.127 254.533C418.127 253.214 419.208 252.133 420.528 252.133H476.663C477.997 252.133 479.063 253.214 479.063 254.533C479.063 255.853 477.983 256.934 476.663 256.934Z" fill="#994B43"/>
<path d="M575.907 270.929H511.672C510.338 270.929 509.271 269.848 509.271 268.528C509.271 267.209 510.352 266.128 511.672 266.128H575.907C577.24 266.128 578.307 267.209 578.307 268.528C578.307 269.848 577.226 270.929 575.907 270.929Z" fill="#994B43"/>
<path d="M476.663 270.929H412.877C411.544 270.929 410.477 269.848 410.477 268.528C410.477 267.209 411.558 266.128 412.877 266.128H476.663C477.997 266.128 479.063 267.209 479.063 268.528C479.063 269.848 477.983 270.929 476.663 270.929Z" fill="#994B43"/>
<path d="M582.967 284.925H520.318C518.985 284.925 517.918 283.844 517.918 282.524C517.918 281.205 518.999 280.124 520.318 280.124H582.967C584.3 280.124 585.367 281.205 585.367 282.524C585.367 283.844 584.286 284.925 582.967 284.925Z" fill="#994B43"/>
<path d="M471.848 284.925H406.532C405.199 284.925 404.132 283.844 404.132 282.524C404.132 281.205 405.213 280.124 406.532 280.124H471.848C473.181 280.124 474.248 281.205 474.248 282.524C474.248 283.844 473.167 284.925 471.848 284.925Z" fill="#994B43"/>
<path d="M597.44 112.559C596.106 112.559 595.039 111.478 595.039 110.158V79.0096C595.039 77.1566 593.523 75.6406 591.67 75.6406H580.988C579.135 75.6406 577.619 77.1566 577.619 79.0096V110.158C577.619 111.492 576.538 112.559 575.219 112.559C573.899 112.559 572.818 111.478 572.818 110.158V79.0096C572.818 74.5036 576.482 70.8398 580.988 70.8398H591.67C596.176 70.8398 599.84 74.5036 599.84 79.0096V110.158C599.84 111.492 598.759 112.559 597.44 112.559Z" fill="#994B43"/>
<path d="M586.715 115.254C575.738 115.254 567.049 111.941 566.501 111.731C565.266 111.254 564.648 109.85 565.14 108.615C565.617 107.379 567.021 106.762 568.256 107.253C568.467 107.323 586.855 114.3 602.914 107.295C604.121 106.762 605.553 107.323 606.073 108.53C606.606 109.752 606.044 111.169 604.837 111.689C598.717 114.356 592.4 115.254 586.715 115.254Z" fill="#994B43"/>
<path d="M560.48 139.986C557.813 139.986 556.353 138.624 555.399 137.712C554.598 136.968 554.346 136.743 553.602 136.743C552.858 136.743 552.605 136.954 551.805 137.712C550.836 138.61 549.391 139.986 546.723 139.986C544.056 139.986 542.597 138.624 541.642 137.712C540.842 136.968 540.589 136.743 539.845 136.743C538.512 136.743 537.445 135.662 537.445 134.343C537.445 133.023 538.526 131.942 539.845 131.942C542.512 131.942 543.972 133.304 544.927 134.216C545.727 134.96 545.979 135.185 546.723 135.185C547.467 135.185 547.72 134.974 548.52 134.216C549.489 133.318 550.935 131.942 553.602 131.942C556.269 131.942 557.729 133.304 558.683 134.216C559.483 134.96 559.736 135.185 560.48 135.185C561.224 135.185 561.477 134.974 562.277 134.216C563.245 133.318 564.691 131.942 567.358 131.942C568.692 131.942 569.759 133.023 569.759 134.343C569.759 135.662 568.678 136.743 567.358 136.743C566.614 136.743 566.362 136.954 565.562 137.712C564.593 138.61 563.147 139.986 560.48 139.986Z" fill="#994B43"/>
<path d="M536.953 110.902C534.286 110.902 532.826 109.54 531.871 108.628C531.071 107.884 530.818 107.659 530.074 107.659C529.33 107.659 529.078 107.87 528.278 108.628C527.309 109.526 525.863 110.902 523.196 110.902C520.529 110.902 519.069 109.54 518.115 108.628C517.315 107.884 517.062 107.659 516.318 107.659C514.984 107.659 513.917 106.578 513.917 105.259C513.917 103.939 514.998 102.858 516.318 102.858C518.985 102.858 520.445 104.22 521.399 105.132C522.2 105.876 522.452 106.101 523.196 106.101C523.94 106.101 524.193 105.89 524.993 105.132C525.962 104.234 527.407 102.858 530.074 102.858C532.742 102.858 534.201 104.22 535.156 105.132C535.956 105.876 536.209 106.101 536.953 106.101C537.697 106.101 537.949 105.89 538.75 105.132C539.718 104.234 541.164 102.858 543.831 102.858C545.165 102.858 546.231 103.939 546.231 105.259C546.231 106.578 545.151 107.659 543.831 107.659C543.087 107.659 542.834 107.87 542.034 108.628C541.066 109.526 539.62 110.902 536.953 110.902Z" fill="#994B43"/>
<path d="M613.091 155.669C610.424 155.669 608.964 154.308 608.009 153.395C607.209 152.651 606.957 152.427 606.213 152.427C605.469 152.427 605.216 152.637 604.416 153.395C603.447 154.294 602.001 155.669 599.334 155.669C596.667 155.669 595.207 154.308 594.253 153.395C593.453 152.651 593.2 152.427 592.456 152.427C591.122 152.427 590.056 151.346 590.056 150.026C590.056 148.707 591.137 147.626 592.456 147.626C595.123 147.626 596.583 148.988 597.538 149.9C598.338 150.644 598.59 150.869 599.334 150.869C600.078 150.869 600.331 150.658 601.131 149.9C602.1 149.002 603.546 147.626 606.213 147.626C608.88 147.626 610.34 148.988 611.294 149.9C612.094 150.644 612.347 150.869 613.091 150.869C613.835 150.869 614.088 150.658 614.888 149.9C615.856 149.002 617.302 147.626 619.969 147.626C621.303 147.626 622.37 148.707 622.37 150.026C622.37 151.346 621.289 152.427 619.969 152.427C619.225 152.427 618.973 152.637 618.172 153.395C617.204 154.308 615.758 155.669 613.091 155.669Z" fill="#994B43"/>
<path d="M575.724 186.382C573.057 186.382 571.597 185.021 570.643 184.108C569.843 183.364 569.59 183.14 568.846 183.14C568.102 183.14 567.849 183.35 567.049 184.108C566.081 185.007 564.635 186.382 561.968 186.382C559.301 186.382 557.841 185.021 556.886 184.108C556.086 183.364 555.833 183.14 555.089 183.14C553.756 183.14 552.689 182.059 552.689 180.739C552.689 179.42 553.77 178.339 555.089 178.339C557.756 178.339 559.216 179.7 560.171 180.613C560.971 181.357 561.224 181.581 561.968 181.581C562.712 181.581 562.964 181.371 563.764 180.613C564.733 179.715 566.179 178.339 568.846 178.339C571.513 178.339 572.973 179.7 573.927 180.613C574.728 181.357 574.98 181.581 575.724 181.581C576.468 181.581 576.721 181.371 577.521 180.613C578.49 179.715 579.935 178.339 582.603 178.339C583.936 178.339 585.003 179.42 585.003 180.739C585.003 182.059 583.922 183.14 582.603 183.14C581.859 183.14 581.606 183.35 580.806 184.108C579.837 185.007 578.391 186.382 575.724 186.382Z" fill="#994B43"/>
<path d="M635.971 186.382C633.304 186.382 631.844 185.021 630.89 184.108C630.09 183.364 629.837 183.14 629.093 183.14C628.349 183.14 628.096 183.35 627.296 184.108C626.328 185.007 624.882 186.382 622.215 186.382C619.548 186.382 618.088 185.021 617.133 184.108C616.333 183.364 616.08 183.14 615.336 183.14C614.003 183.14 612.936 182.059 612.936 180.739C612.936 179.42 614.017 178.339 615.336 178.339C618.003 178.339 619.463 179.7 620.418 180.613C621.218 181.357 621.471 181.581 622.215 181.581C622.959 181.581 623.211 181.371 624.011 180.613C624.98 179.715 626.426 178.339 629.093 178.339C631.76 178.339 633.22 179.7 634.174 180.613C634.975 181.357 635.227 181.581 635.971 181.581C636.715 181.581 636.968 181.371 637.768 180.613C638.737 179.715 640.182 178.339 642.85 178.339C644.183 178.339 645.25 179.42 645.25 180.739C645.25 182.059 644.169 183.14 642.85 183.14C642.106 183.14 641.853 183.35 641.053 184.108C640.084 185.007 638.638 186.382 635.971 186.382Z" fill="#994B43"/>
<path d="M622.187 221.027C619.52 221.027 618.06 219.665 617.106 218.753C616.305 218.009 616.053 217.784 615.309 217.784C614.565 217.784 614.312 217.995 613.512 218.753C612.543 219.651 611.098 221.027 608.431 221.027C605.763 221.027 604.304 219.665 603.349 218.753C602.549 218.009 602.296 217.784 601.552 217.784C600.219 217.784 599.152 216.703 599.152 215.384C599.152 214.064 600.233 212.983 601.552 212.983C604.219 212.983 605.679 214.345 606.634 215.257C607.434 216.001 607.687 216.226 608.431 216.226C609.175 216.226 609.427 216.015 610.227 215.257C611.196 214.359 612.642 212.983 615.309 212.983C617.976 212.983 619.436 214.345 620.39 215.257C621.19 216.001 621.443 216.226 622.187 216.226C622.931 216.226 623.184 216.015 623.984 215.257C624.952 214.359 626.398 212.983 629.065 212.983C630.399 212.983 631.466 214.064 631.466 215.384C631.466 216.703 630.385 217.784 629.065 217.784C628.321 217.784 628.069 217.995 627.269 218.753C626.3 219.651 624.854 221.027 622.187 221.027Z" fill="#994B43"/>
<path d="M672.834 248.143C670.167 248.143 668.707 246.781 667.753 245.869C666.952 245.125 666.7 244.9 665.956 244.9C665.212 244.9 664.959 245.111 664.159 245.869C663.19 246.767 661.745 248.143 659.078 248.143C656.41 248.143 654.951 246.781 653.996 245.869C653.196 245.125 652.943 244.9 652.199 244.9C650.866 244.9 649.799 243.82 649.799 242.5C649.799 241.18 650.88 240.1 652.199 240.1C654.866 240.1 656.326 241.461 657.281 242.374C658.081 243.118 658.334 243.342 659.078 243.342C659.821 243.342 660.074 243.132 660.874 242.374C661.843 241.475 663.289 240.1 665.956 240.1C668.623 240.1 670.083 241.461 671.037 242.374C671.837 243.118 672.09 243.342 672.834 243.342C673.578 243.342 673.831 243.132 674.631 242.374C675.599 241.475 677.045 240.1 679.712 240.1C681.046 240.1 682.113 241.18 682.113 242.5C682.113 243.82 681.032 244.9 679.712 244.9C678.968 244.9 678.716 245.111 677.916 245.869C676.947 246.767 675.501 248.143 672.834 248.143Z" fill="#994B43"/>
<path d="M610.746 248.143C608.079 248.143 606.619 246.781 605.665 245.869C604.865 245.125 604.612 244.9 603.868 244.9C603.124 244.9 602.871 245.111 602.071 245.869C601.103 246.767 599.657 248.143 596.99 248.143C594.323 248.143 592.863 246.781 591.908 245.869C591.108 245.125 590.855 244.9 590.111 244.9C588.778 244.9 587.711 243.82 587.711 242.5C587.711 241.18 588.792 240.1 590.111 240.1C592.778 240.1 594.238 241.461 595.193 242.374C595.993 243.118 596.246 243.342 596.99 243.342C597.734 243.342 597.986 243.132 598.786 242.374C599.755 241.475 601.201 240.1 603.868 240.1C606.535 240.1 607.995 241.461 608.949 242.374C609.75 243.118 610.002 243.342 610.746 243.342C611.49 243.342 611.743 243.132 612.543 242.374C613.512 241.475 614.957 240.1 617.624 240.1C618.958 240.1 620.025 241.18 620.025 242.5C620.025 243.82 618.944 244.9 617.624 244.9C616.88 244.9 616.628 245.111 615.828 245.869C614.873 246.767 613.413 248.143 610.746 248.143Z" fill="#994B43"/>
<path d="M336.976 321.18C336.218 321.18 335.46 320.829 334.997 320.155C334.239 319.074 334.506 317.572 335.601 316.814L355.885 302.721C369.023 293.582 384.422 288.768 400.425 288.768H401.534C402.867 288.768 403.934 289.848 403.934 291.168C403.934 292.487 402.853 293.568 401.534 293.568H400.425C385.405 293.568 370.961 298.102 358.622 306.665L338.338 320.759C337.917 321.053 337.439 321.18 336.976 321.18Z" fill="#994B43"/>
<path d="M762.279 321.18C761.802 321.18 761.325 321.04 760.918 320.745L740.634 306.651C728.309 298.075 713.851 293.555 698.831 293.555H697.722C696.388 293.555 695.321 292.474 695.321 291.154C695.321 289.835 696.402 288.754 697.722 288.754H698.831C714.833 288.754 730.232 293.583 743.371 302.707L763.655 316.815C764.736 317.573 765.017 319.075 764.259 320.155C763.781 320.843 763.037 321.194 762.279 321.194V321.18Z" fill="#994B43"/>
<path d="M390.081 326.893C389.772 326.893 389.464 326.837 389.155 326.711C359.283 314.33 330.38 322.907 330.1 322.991C328.836 323.37 327.489 322.668 327.096 321.391C326.717 320.127 327.419 318.78 328.696 318.387C329.931 318.008 359.48 309.206 391.008 322.261C392.243 322.766 392.818 324.17 392.313 325.405C391.934 326.332 391.022 326.893 390.081 326.893Z" fill="#994B43"/>
<path d="M708.067 326.894C707.127 326.894 706.228 326.332 705.849 325.406C705.344 324.17 705.919 322.767 707.141 322.261C738.668 309.207 768.217 317.994 769.452 318.387C770.716 318.766 771.432 320.114 771.053 321.391C770.674 322.654 769.326 323.37 768.049 322.991C767.754 322.907 738.851 314.33 708.98 326.711C708.685 326.837 708.362 326.894 708.053 326.894H708.067Z" fill="#994B43"/>
<path d="M637.909 320.003C636.758 320.003 635.733 319.175 635.537 317.996C635.312 316.69 636.197 315.441 637.502 315.23C654.024 312.451 666.279 314.444 666.784 314.528C668.089 314.753 668.974 315.988 668.749 317.294C668.525 318.599 667.303 319.483 665.984 319.259C665.871 319.245 653.968 317.322 638.288 319.961C638.162 319.989 638.021 320.003 637.895 320.003H637.909Z" fill="#994B43"/>
<path d="M414.436 315.483C413.411 315.483 412.457 314.824 412.134 313.785C411.755 312.521 412.457 311.174 413.734 310.781C414.618 310.514 435.702 304.197 461.278 309.981C462.584 310.275 463.384 311.553 463.103 312.858C462.809 314.164 461.531 314.964 460.226 314.683C435.885 309.181 415.362 315.329 415.152 315.399C414.913 315.455 414.675 315.497 414.436 315.497V315.483Z" fill="#994B43"/>
<path d="M378.416 158.952C381.518 158.952 381.518 154.138 378.416 154.138C375.314 154.138 375.314 158.952 378.416 158.952Z" fill="#994B43"/>
<path d="M427.012 124.545C430.114 124.545 430.114 119.73 427.012 119.73C423.91 119.73 423.91 124.545 427.012 124.545Z" fill="#994B43"/>
<path d="M716.996 244.914C720.098 244.914 720.098 240.1 716.996 240.1C713.893 240.1 713.893 244.914 716.996 244.914Z" fill="#994B43"/>
<path d="M689.749 210.874C692.851 210.874 692.851 206.06 689.749 206.06C686.646 206.06 686.646 210.874 689.749 210.874Z" fill="#994B43"/>
<path d="M728.043 199.591C731.145 199.591 731.145 194.776 728.043 194.776C724.94 194.776 724.94 199.591 728.043 199.591Z" fill="#994B43"/>
<path d="M662.769 107.306C665.871 107.306 665.871 102.491 662.769 102.491C659.666 102.491 659.666 107.306 662.769 107.306Z" fill="#994B43"/>
<path d="M480.187 58.2455C483.289 58.2455 483.289 53.4307 480.187 53.4307C477.084 53.4307 477.084 58.2455 480.187 58.2455Z" fill="#994B43"/>
<path d="M356.995 186.378C360.097 186.378 360.097 181.563 356.995 181.563C353.892 181.563 353.892 186.378 356.995 186.378Z" fill="#994B43"/>
<path d="M412.891 200.558C415.993 200.558 415.993 195.743 412.891 195.743C409.788 195.743 409.788 200.558 412.891 200.558Z" fill="#994B43"/>
</g>
</svg>
