<svg width="1090" height="545" viewBox="0 0 1090 545" fill="none" xmlns="http://www.w3.org/2000/svg">
<path d="M594.042 399.43C679.37 350.44 703.449 343.35 744.38 341.959C695.417 333.65 629.814 361.312 603.444 375.922C506.856 432.314 477.704 440.785 418.999 446.52C501.577 463.66 576.425 408.132 594.042 399.43Z" fill="url(#paint0_linear_2010_187)"/>
<path fill-rule="evenodd" clip-rule="evenodd" d="M613.618 308.902C599.538 314.772 584.738 321.556 569.119 329.336C565.003 331.386 559.862 334.176 553.775 337.485C553.624 337.566 553.473 337.648 553.321 337.731C540.963 344.448 524.772 353.248 505.399 362.322C463.608 381.895 407.007 402.743 342.108 406.712C327.166 407.626 311.783 407.644 296.041 406.547C247.356 403.153 198.845 388.165 159.158 366.713C179.538 381.73 240.457 415.972 296.041 425.856C310.924 428.502 326.244 430.043 342.108 430.328C390.629 431.199 444.234 420.319 505.982 393.381C522.52 386.167 539.641 377.801 557.405 368.2C561.759 365.847 566.15 363.42 570.582 360.918C589.701 351.656 607.884 342.943 625.805 335.184C639.216 329.377 652.481 324.105 665.883 319.536C704.547 306.355 744.353 299.028 792.106 301.616C798.207 301.947 804.439 302.439 810.813 303.102C845.456 306.705 886.016 315.221 931.436 330.245C922.855 325.954 917.492 324.272 911.285 320.95C877.805 304.965 849.151 293.873 818.341 285.835C811.275 283.992 804.147 282.393 796.908 281.08C755.947 273.652 711.427 275.378 654.474 293.729C641.532 297.899 627.948 302.928 613.618 308.902Z" fill="url(#paint1_linear_2010_187)"/>
<path d="M342.108 430.328C326.244 430.043 310.924 428.502 296.041 425.856V444.128L296.738 444.274C316.383 448.386 324.697 450.127 342.108 447.479V430.328Z" fill="url(#paint2_linear_2010_187)"/>
<path d="M787.402 315.175C792.325 314.565 798.37 314.589 806.146 315.431C807.809 310.935 809.365 306.826 810.813 303.102C804.439 302.439 798.207 301.947 792.106 301.616C790.794 305.766 789.227 310.286 787.402 315.175Z" fill="url(#paint3_linear_2010_187)"/>
<path fill-rule="evenodd" clip-rule="evenodd" d="M296.041 298.713C296.041 290.509 295.326 282.096 293.898 273.475C293.041 269.303 290.898 265.896 287.47 263.254C284.042 260.473 280.113 258.318 275.685 256.788C271.4 255.12 265.829 253.382 258.972 251.574C253.83 250.183 250.187 249.14 248.045 248.445L248.473 237.808H375.32C411.031 237.808 442.457 242.327 469.597 251.365C496.738 260.404 518.164 274.935 533.877 294.958C539.097 301.564 543.45 308.814 546.936 316.709C530.88 327.006 515.322 333.713 500.62 337.298C498.546 329.931 495.919 322.91 492.738 316.233C483.596 296.905 469.383 281.679 450.099 270.555C430.958 259.43 406.96 253.868 378.105 253.868H342.108V390.734C327.103 392.657 310.905 393.182 296.041 390.953V298.713ZM505.399 362.322C506.1 368.78 506.451 375.457 506.451 382.353C506.451 386.064 506.295 389.74 505.982 393.381C522.52 386.167 539.641 377.801 557.405 368.2C557.173 357.234 555.963 346.996 553.775 337.485L553.321 337.731C540.963 344.448 524.772 353.248 505.399 362.322ZM296.041 406.547C311.783 407.644 327.166 407.626 342.108 406.712V430.328C326.244 430.043 310.924 428.502 296.041 425.856V406.547ZM296.041 444.128V463.699C296.041 471.069 294.326 476.909 290.898 481.219C287.613 485.391 283.542 488.381 278.685 490.188C273.828 491.996 267.4 493.804 259.401 495.611L248.045 498.531L248.473 509.378H402.531C435.243 509.378 463.241 503.051 486.524 490.397C509.951 477.604 527.592 460.779 539.448 439.921C544.558 430.979 547.751 419.179 550.49 409.054C550.854 407.708 551.21 406.392 551.562 405.116C547.745 407.079 543.323 409.664 538.315 412.592C526.874 419.28 512.375 427.756 495.041 434.691C494.847 435.114 494.651 435.536 494.452 435.958C486.453 452.922 474.311 466.758 458.027 477.465C441.742 488.033 421.887 493.317 398.46 493.317C390.033 493.317 381.819 493.108 373.82 492.691C362.249 492.135 354.036 488.381 349.179 481.428C344.465 474.475 342.108 464.95 342.108 452.853V447.479C324.697 450.127 316.383 448.386 296.738 444.274L296.041 444.128Z" fill="url(#paint4_linear_2010_187)"/>
<path fill-rule="evenodd" clip-rule="evenodd" d="M604.763 291.204C603.935 289.424 603.616 287.408 601.3 282.444C597.872 275.074 594.372 269.442 590.801 265.549C587.23 261.655 583.23 258.735 578.802 256.788C574.374 254.703 567.732 252.339 558.875 249.697L559.304 237.808H685.507C685.507 239.059 685.579 240.172 685.721 241.145C685.864 241.979 686.007 242.744 686.15 243.439C686.293 244.274 686.436 245.247 686.578 246.359C686.721 247.472 686.793 248.793 686.793 250.322C683.65 251.296 680.865 251.991 678.436 252.408C668.723 254.772 661.081 257.275 655.51 259.917C649.939 262.559 647.153 266.592 647.153 272.015C647.153 273.679 647.48 275.185 648.192 276.965C636.247 281.792 611.883 289.424 604.763 291.204Z" fill="url(#paint5_linear_2010_187)"/>
<path fill-rule="evenodd" clip-rule="evenodd" d="M751.501 401.542C740.36 426.572 732.503 445.066 727.932 457.024C721.075 440.199 708.434 412.041 690.007 372.55C686.756 365.461 683.698 358.775 680.83 352.492C668.124 355.967 655.366 360.031 640.087 366.124C663.896 417.839 686.107 466.772 706.72 512.923C708.719 513.202 711.648 513.341 715.505 513.341C717.076 513.341 719.004 513.063 721.29 512.506C723.718 512.089 725.289 511.811 726.004 511.672C731.146 498.74 741.859 472.111 758.144 431.786C774.571 391.461 787.998 359.409 798.426 335.631L804.854 318.945C805.292 317.749 805.723 316.577 806.146 315.431C798.37 314.589 792.325 314.565 787.402 315.175C786.818 316.741 786.207 318.345 785.57 319.988C777.856 339.872 766.5 367.057 751.501 401.542ZM814.496 293.915C813.357 296.659 812.129 299.721 810.813 303.102C804.439 302.439 798.207 301.947 792.106 301.616C794.741 293.279 796.342 286.434 796.908 281.08C804.147 282.393 811.275 283.992 818.341 285.835C816.961 288.457 815.68 291.15 814.496 293.915ZM824.652 275.331C824.695 275.269 824.738 275.206 824.781 275.143C828.923 269.303 833.494 265.271 838.494 263.046L843.851 260.543C847.707 258.874 851.636 257.136 855.635 255.328C859.778 253.382 863.278 251.365 866.134 249.279C866.134 245.386 865.92 241.562 865.492 237.808H754.93C754.501 240.032 754.287 242.327 754.287 244.691C754.287 246.777 754.501 248.793 754.93 250.74C757.501 251.574 761.286 252.478 766.286 253.451C772.857 254.842 778.213 256.302 782.356 257.831C786.498 259.222 789.998 261.447 792.855 264.506C794.487 266.254 795.653 268.364 796.353 270.839C806.468 271.866 815.696 273.36 824.652 275.331Z" fill="url(#paint6_linear_2010_187)"/>
<g filter="url(#filter0_d_2010_187)">
<path d="M538.76 41.3326C539.928 37.7376 545.014 37.7376 546.182 41.3326L556.78 73.9497C557.302 75.5574 558.801 76.6459 560.491 76.6459L594.787 76.6459C598.567 76.6459 600.138 81.483 597.08 83.7048L569.335 103.863C567.967 104.857 567.395 106.618 567.917 108.226L578.515 140.843C579.683 144.438 575.568 147.427 572.51 145.206L544.765 125.047C543.397 124.053 541.545 124.053 540.178 125.047L512.432 145.206C509.374 147.427 505.259 144.438 506.427 140.843L517.025 108.226C517.547 106.618 516.975 104.857 515.608 103.863L487.862 83.7048C484.804 81.483 486.375 76.6459 490.155 76.6459L524.451 76.6459C526.142 76.6459 527.64 75.5574 528.162 73.9497L538.76 41.3326Z" fill="url(#paint7_radial_2010_187)"/>
<path d="M533.729 75.7584L542.471 48.852L551.213 75.7584C552.519 79.7777 556.265 82.499 560.491 82.499L588.782 82.499L565.894 99.1281C562.475 101.612 561.044 106.015 562.35 110.035L571.093 136.941L548.205 120.312C544.786 117.828 540.156 117.828 536.737 120.312L513.849 136.941L522.592 110.035C523.898 106.015 522.467 101.612 519.048 99.1281L496.16 82.499L524.451 82.499C528.677 82.499 532.423 79.7777 533.729 75.7584Z" stroke="#E4B54C" stroke-width="11.7061" stroke-linejoin="round"/>
</g>
<g filter="url(#filter1_d_2010_187)">
<mask id="path-4-inside-1_2010_187" fill="white">
<path d="M605.085 126.49L584.807 110.053L581.2 109.894L581.873 113.201L602.151 129.639L605.758 129.798L605.085 126.49Z"/>
</mask>
<path d="M605.085 126.49L584.807 110.053L581.2 109.894L581.873 113.201L602.151 129.639L605.758 129.798L605.085 126.49Z" fill="#EADC80"/>
<path d="M605.085 126.49L612.457 117.396C614.566 119.106 616.015 121.496 616.557 124.156L605.085 126.49ZM584.807 110.053L585.322 98.3578C587.827 98.468 590.231 99.3798 592.179 100.959L584.807 110.053ZM581.873 113.201L574.502 122.295C572.393 120.585 570.944 118.196 570.402 115.535L581.873 113.201ZM602.151 129.639L601.635 141.333C599.13 141.223 596.727 140.311 594.78 138.732L602.151 129.639ZM581.2 109.894L569.729 112.228C569.011 108.696 569.959 105.03 572.3 102.29C574.641 99.5496 578.114 98.0406 581.715 98.199L581.2 109.894ZM605.758 129.798L617.23 127.464C617.948 130.996 616.999 134.662 614.658 137.403C612.316 140.143 608.843 141.652 605.242 141.493L605.758 129.798ZM597.714 135.584L577.436 119.146L592.179 100.959L612.457 117.396L597.714 135.584ZM589.245 104.107L609.523 120.545L594.78 138.732L574.502 122.295L589.245 104.107ZM584.293 121.747L580.686 121.589L581.715 98.199L585.322 98.3578L584.293 121.747ZM592.671 107.56L593.344 110.867L570.402 115.535L569.729 112.228L592.671 107.56ZM602.668 117.944L606.275 118.103L605.242 141.493L601.635 141.333L602.668 117.944ZM594.287 132.131L593.614 128.824L616.557 124.156L617.23 127.464L594.287 132.131Z" fill="#E4B54C" mask="url(#path-4-inside-1_2010_187)"/>
</g>
<g filter="url(#filter2_d_2010_187)">
<mask id="path-6-inside-2_2010_187" fill="white">
<path d="M501.861 113.204L481.583 129.642L477.976 129.801L478.649 126.493L498.927 110.056L502.534 109.896L501.861 113.204Z"/>
</mask>
<path d="M501.861 113.204L481.583 129.642L477.976 129.801L478.649 126.493L498.927 110.056L502.534 109.896L501.861 113.204Z" fill="#EADC80"/>
<path d="M501.861 113.204L509.232 122.298C511.342 120.588 512.791 118.199 513.332 115.538L501.861 113.204ZM481.583 129.642L482.098 141.337C484.603 141.226 487.007 140.315 488.954 138.735L481.583 129.642ZM478.649 126.493L471.277 117.4C469.168 119.109 467.719 121.499 467.178 124.159L478.649 126.493ZM498.927 110.056L498.41 98.3611C495.906 98.4717 493.503 99.3834 491.555 100.962L498.927 110.056ZM477.976 129.801L466.505 127.466C465.786 130.998 466.735 134.664 469.076 137.404C471.417 140.145 474.89 141.654 478.491 141.495L477.976 129.801ZM502.534 109.896L514.005 112.23C514.724 108.698 513.775 105.032 511.434 102.292C509.092 99.5515 505.619 98.0428 502.018 98.2018L502.534 109.896ZM494.49 104.111L474.212 120.548L488.954 138.735L509.232 122.298L494.49 104.111ZM486.02 135.587L506.298 119.149L491.555 100.962L471.277 117.4L486.02 135.587ZM481.068 117.947L477.461 118.106L478.491 141.495L482.098 141.337L481.068 117.947ZM489.447 132.135L490.12 128.827L467.178 124.159L466.505 127.466L489.447 132.135ZM499.443 121.75L503.05 121.591L502.018 98.2018L498.41 98.3611L499.443 121.75ZM491.063 107.563L490.39 110.871L513.332 115.538L514.005 112.23L491.063 107.563Z" fill="#E4B54C" mask="url(#path-6-inside-2_2010_187)"/>
</g>
<g filter="url(#filter3_d_2010_187)">
<mask id="path-8-inside-3_2010_187" fill="white">
<path d="M591.778 45.1982L570.309 66.5309L567.114 66.6892L567.1 63.6675L588.569 42.3349L591.763 42.1761L591.778 45.1982Z"/>
</mask>
<path d="M591.778 45.1982L570.309 66.5309L567.114 66.6892L567.1 63.6675L588.569 42.3349L591.763 42.1761L591.778 45.1982Z" fill="#EADC80"/>
<path d="M591.778 45.1982L600.029 53.502C602.254 51.291 603.498 48.2794 603.484 45.1426L591.778 45.1982ZM570.309 66.5309L570.888 78.2226C573.776 78.0794 576.509 76.8726 578.56 74.8347L570.309 66.5309ZM567.1 63.6675L558.849 55.3637C556.624 57.5746 555.379 60.586 555.394 63.7227L567.1 63.6675ZM588.569 42.3349L587.988 30.6432C585.101 30.7868 582.369 31.9935 580.318 34.0311L588.569 42.3349ZM567.114 66.6892L555.408 66.7444C555.423 69.94 556.744 72.9905 559.064 75.1881C561.384 77.3857 564.502 78.5392 567.694 78.381L567.114 66.6892ZM591.763 42.1761L603.469 42.1204C603.454 38.9245 602.133 35.8739 599.812 33.6764C597.492 31.4789 594.374 30.3257 591.182 30.4844L591.763 42.1761ZM583.527 36.8944L562.058 58.2271L578.56 74.8347L600.029 53.502L583.527 36.8944ZM575.351 71.9713L596.82 50.6387L580.318 34.0311L558.849 55.3637L575.351 71.9713ZM569.729 54.8391L566.535 54.9975L567.694 78.381L570.888 78.2226L569.729 54.8391ZM578.82 66.634L578.806 63.6123L555.394 63.7227L555.408 66.7444L578.82 66.634ZM589.15 54.0265L592.345 53.8677L591.182 30.4844L587.988 30.6432L589.15 54.0265ZM580.057 42.2317L580.072 45.2539L603.484 45.1426L603.469 42.1204L580.057 42.2317Z" fill="#E4B54C" mask="url(#path-8-inside-3_2010_187)"/>
<mask id="path-10-inside-4_2010_187" fill="white">
<path d="M513.919 66.7783L492.586 45.3093L492.428 42.115L495.449 42.1008L516.782 63.5698L516.941 66.7639L513.919 66.7783Z"/>
</mask>
<path d="M513.919 66.7783L492.586 45.3093L492.428 42.115L495.449 42.1008L516.782 63.5698L516.941 66.7639L513.919 66.7783Z" fill="#EADC80"/>
<path d="M513.919 66.7783L505.615 75.0294C507.826 77.2545 510.837 78.4992 513.974 78.4843L513.919 66.7783ZM492.586 45.3093L480.894 45.8889C481.037 48.7767 482.244 51.5093 484.282 53.5603L492.586 45.3093ZM495.449 42.1008L503.753 33.8497C501.542 31.6247 498.531 30.38 495.394 30.3948L495.449 42.1008ZM516.782 63.5698L528.474 62.9884C528.33 60.1013 527.123 57.3693 525.086 55.3188L516.782 63.5698ZM492.428 42.115L492.372 30.409C489.177 30.4241 486.126 31.7449 483.929 34.0651C481.731 36.3852 480.578 39.5029 480.736 42.6946L492.428 42.115ZM516.941 66.7639L516.996 78.4699C520.192 78.4547 523.243 77.1336 525.44 74.8131C527.638 72.4926 528.791 69.3745 528.632 66.1826L516.941 66.7639ZM522.222 58.5273L500.89 37.0583L484.282 53.5603L505.615 75.0294L522.222 58.5273ZM487.146 50.3518L508.478 71.8208L525.086 55.3188L503.753 33.8497L487.146 50.3518ZM504.278 44.7297L504.119 41.5354L480.736 42.6946L480.894 45.8889L504.278 44.7297ZM492.483 53.821L495.505 53.8067L495.394 30.3948L492.372 30.409L492.483 53.821ZM505.09 64.1511L505.249 67.3453L528.632 66.1826L528.474 62.9884L505.09 64.1511ZM516.885 55.058L513.863 55.0724L513.974 78.4843L516.996 78.4699L516.885 55.058Z" fill="#E4B54C" mask="url(#path-10-inside-4_2010_187)"/>
</g>
<defs>
<filter id="filter0_d_2010_187" x="420.528" y="38.6367" width="243.887" height="238.769" filterUnits="userSpaceOnUse" color-interpolation-filters="sRGB">
<feFlood flood-opacity="0" result="BackgroundImageFix"/>
<feColorMatrix in="SourceAlpha" type="matrix" values="0 0 0 0 0 0 0 0 0 0 0 0 0 0 0 0 0 0 127 0" result="hardAlpha"/>
<feOffset dy="65.7184"/>
<feGaussianBlur stdDeviation="32.8592"/>
<feComposite in2="hardAlpha" operator="out"/>
<feColorMatrix type="matrix" values="0 0 0 0 0 0 0 0 0 0 0 0 0 0 0 0 0 0 0.15 0"/>
<feBlend mode="normal" in2="BackgroundImageFix" result="effect1_dropShadow_2010_187"/>
<feBlend mode="normal" in="SourceGraphic" in2="effect1_dropShadow_2010_187" result="shape"/>
</filter>
<filter id="filter1_d_2010_187" x="515.482" y="109.894" width="155.995" height="151.341" filterUnits="userSpaceOnUse" color-interpolation-filters="sRGB">
<feFlood flood-opacity="0" result="BackgroundImageFix"/>
<feColorMatrix in="SourceAlpha" type="matrix" values="0 0 0 0 0 0 0 0 0 0 0 0 0 0 0 0 0 0 127 0" result="hardAlpha"/>
<feOffset dy="65.7184"/>
<feGaussianBlur stdDeviation="32.8592"/>
<feComposite in2="hardAlpha" operator="out"/>
<feColorMatrix type="matrix" values="0 0 0 0 0 0 0 0 0 0 0 0 0 0 0 0 0 0 0.15 0"/>
<feBlend mode="normal" in2="BackgroundImageFix" result="effect1_dropShadow_2010_187"/>
<feBlend mode="normal" in="SourceGraphic" in2="effect1_dropShadow_2010_187" result="shape"/>
</filter>
<filter id="filter2_d_2010_187" x="412.257" y="109.896" width="155.995" height="151.341" filterUnits="userSpaceOnUse" color-interpolation-filters="sRGB">
<feFlood flood-opacity="0" result="BackgroundImageFix"/>
<feColorMatrix in="SourceAlpha" type="matrix" values="0 0 0 0 0 0 0 0 0 0 0 0 0 0 0 0 0 0 127 0" result="hardAlpha"/>
<feOffset dy="65.7184"/>
<feGaussianBlur stdDeviation="32.8592"/>
<feComposite in2="hardAlpha" operator="out"/>
<feColorMatrix type="matrix" values="0 0 0 0 0 0 0 0 0 0 0 0 0 0 0 0 0 0 0.15 0"/>
<feBlend mode="normal" in2="BackgroundImageFix" result="effect1_dropShadow_2010_187"/>
<feBlend mode="normal" in="SourceGraphic" in2="effect1_dropShadow_2010_187" result="shape"/>
</filter>
<filter id="filter3_d_2010_187" x="426.709" y="42.1006" width="230.787" height="156.115" filterUnits="userSpaceOnUse" color-interpolation-filters="sRGB">
<feFlood flood-opacity="0" result="BackgroundImageFix"/>
<feColorMatrix in="SourceAlpha" type="matrix" values="0 0 0 0 0 0 0 0 0 0 0 0 0 0 0 0 0 0 127 0" result="hardAlpha"/>
<feOffset dy="65.7184"/>
<feGaussianBlur stdDeviation="32.8592"/>
<feComposite in2="hardAlpha" operator="out"/>
<feColorMatrix type="matrix" values="0 0 0 0 0 0 0 0 0 0 0 0 0 0 0 0 0 0 0.15 0"/>
<feBlend mode="normal" in2="BackgroundImageFix" result="effect1_dropShadow_2010_187"/>
<feBlend mode="normal" in="SourceGraphic" in2="effect1_dropShadow_2010_187" result="shape"/>
</filter>
<linearGradient id="paint0_linear_2010_187" x1="150.896" y1="236.384" x2="918.021" y2="506.924" gradientUnits="userSpaceOnUse">
<stop stop-color="#F9F295"/>
<stop offset="0.128324" stop-color="#E0AA3E"/>
<stop offset="0.261308" stop-color="#F9F295"/>
<stop offset="0.368049" stop-color="#CD9E3B"/>
<stop offset="0.463828" stop-color="#F9F295"/>
<stop offset="0.570468" stop-color="#E3B349"/>
<stop offset="0.66664" stop-color="#EADD82"/>
<stop offset="0.746778" stop-color="#CD9E3B"/>
<stop offset="0.837068" stop-color="#EADD82"/>
</linearGradient>
<linearGradient id="paint1_linear_2010_187" x1="150.896" y1="236.384" x2="918.021" y2="506.924" gradientUnits="userSpaceOnUse">
<stop stop-color="#F9F295"/>
<stop offset="0.128324" stop-color="#E0AA3E"/>
<stop offset="0.261308" stop-color="#F9F295"/>
<stop offset="0.368049" stop-color="#CD9E3B"/>
<stop offset="0.463828" stop-color="#F9F295"/>
<stop offset="0.570468" stop-color="#E3B349"/>
<stop offset="0.66664" stop-color="#EADD82"/>
<stop offset="0.746778" stop-color="#CD9E3B"/>
<stop offset="0.837068" stop-color="#EADD82"/>
</linearGradient>
<linearGradient id="paint2_linear_2010_187" x1="150.896" y1="236.384" x2="918.021" y2="506.924" gradientUnits="userSpaceOnUse">
<stop stop-color="#F9F295"/>
<stop offset="0.128324" stop-color="#E0AA3E"/>
<stop offset="0.261308" stop-color="#F9F295"/>
<stop offset="0.368049" stop-color="#CD9E3B"/>
<stop offset="0.463828" stop-color="#F9F295"/>
<stop offset="0.570468" stop-color="#E3B349"/>
<stop offset="0.66664" stop-color="#EADD82"/>
<stop offset="0.746778" stop-color="#CD9E3B"/>
<stop offset="0.837068" stop-color="#EADD82"/>
</linearGradient>
<linearGradient id="paint3_linear_2010_187" x1="150.896" y1="236.384" x2="918.021" y2="506.924" gradientUnits="userSpaceOnUse">
<stop stop-color="#F9F295"/>
<stop offset="0.128324" stop-color="#E0AA3E"/>
<stop offset="0.261308" stop-color="#F9F295"/>
<stop offset="0.368049" stop-color="#CD9E3B"/>
<stop offset="0.463828" stop-color="#F9F295"/>
<stop offset="0.570468" stop-color="#E3B349"/>
<stop offset="0.66664" stop-color="#EADD82"/>
<stop offset="0.746778" stop-color="#CD9E3B"/>
<stop offset="0.837068" stop-color="#EADD82"/>
</linearGradient>
<linearGradient id="paint4_linear_2010_187" x1="150.896" y1="236.384" x2="918.021" y2="506.924" gradientUnits="userSpaceOnUse">
<stop stop-color="#F9F295"/>
<stop offset="0.128324" stop-color="#E0AA3E"/>
<stop offset="0.261308" stop-color="#F9F295"/>
<stop offset="0.368049" stop-color="#CD9E3B"/>
<stop offset="0.463828" stop-color="#F9F295"/>
<stop offset="0.570468" stop-color="#E3B349"/>
<stop offset="0.66664" stop-color="#EADD82"/>
<stop offset="0.746778" stop-color="#CD9E3B"/>
<stop offset="0.837068" stop-color="#EADD82"/>
</linearGradient>
<linearGradient id="paint5_linear_2010_187" x1="150.896" y1="236.384" x2="918.021" y2="506.924" gradientUnits="userSpaceOnUse">
<stop stop-color="#F9F295"/>
<stop offset="0.128324" stop-color="#E0AA3E"/>
<stop offset="0.261308" stop-color="#F9F295"/>
<stop offset="0.368049" stop-color="#CD9E3B"/>
<stop offset="0.463828" stop-color="#F9F295"/>
<stop offset="0.570468" stop-color="#E3B349"/>
<stop offset="0.66664" stop-color="#EADD82"/>
<stop offset="0.746778" stop-color="#CD9E3B"/>
<stop offset="0.837068" stop-color="#EADD82"/>
</linearGradient>
<linearGradient id="paint6_linear_2010_187" x1="150.896" y1="236.384" x2="918.021" y2="506.924" gradientUnits="userSpaceOnUse">
<stop stop-color="#F9F295"/>
<stop offset="0.128324" stop-color="#E0AA3E"/>
<stop offset="0.261308" stop-color="#F9F295"/>
<stop offset="0.368049" stop-color="#CD9E3B"/>
<stop offset="0.463828" stop-color="#F9F295"/>
<stop offset="0.570468" stop-color="#E3B349"/>
<stop offset="0.66664" stop-color="#EADD82"/>
<stop offset="0.746778" stop-color="#CD9E3B"/>
<stop offset="0.837068" stop-color="#EADD82"/>
</linearGradient>
<radialGradient id="paint7_radial_2010_187" cx="0" cy="0" r="1" gradientUnits="userSpaceOnUse" gradientTransform="translate(542.471 97.5464) rotate(180) scale(67.6351 67.6352)">
<stop stop-color="#F7EC8D"/>
<stop offset="0.5" stop-color="#D6B04E"/>
<stop offset="1" stop-color="#E4B54C"/>
</radialGradient>
</defs>
</svg>
