<svg width="1090" height="545" viewBox="0 0 1090 545" fill="none" xmlns="http://www.w3.org/2000/svg">
<g clip-path="url(#clip0_2010_8)">
<path d="M932.276 396.104C932.276 442.462 1007.83 440.925 1007.83 462.099C1007.83 469.557 999.47 473.941 989.989 473.941C957.647 473.941 934.787 441.562 931.751 441.562C928.416 441.562 925.343 442.799 925.343 448.72C925.343 456.815 944.868 501.674 950.714 501.674C957.385 501.674 959.896 491.368 963.531 491.368C972.75 491.368 976.348 498.263 1004.79 498.263C1026.53 498.263 1049.95 486.084 1049.95 457.752C1049.95 403.599 971.363 408.246 971.363 387.41C971.363 381.189 979.458 378.715 985.866 378.715C1015.14 378.715 1031.59 407.047 1038 407.047C1043.02 407.047 1044.7 404.873 1044.4 401.763C1044.14 395.542 1026 356.642 1021.54 356.642C1014.01 356.642 1014.31 365.673 1007.04 365.673C1001.19 365.673 994.224 356.642 971.101 356.642C950.751 356.642 932.351 370.021 932.351 396.179M846.718 384.299C846.718 397.678 862.308 390.82 862.308 402.962V463.636C862.308 478.888 846.381 472.367 846.381 487.583C846.381 490.393 848.929 495.677 856.2 495.677H904.431C915.037 495.677 916.686 490.693 916.686 487.583C916.686 473.267 900.234 478.888 900.234 463.636V362.788C900.234 356.267 899.11 356.567 894.65 356.567C889.928 356.567 846.718 376.504 846.718 384.262M853.689 325.762C853.689 334.793 857.024 340.377 867.892 340.377C884.906 340.377 900.496 325.762 900.496 315.156C900.496 303.014 895.212 299.266 886.555 299.266C874.563 299.266 853.651 311.408 853.651 325.724M720.724 396.104C720.724 442.462 796.276 440.925 796.276 462.099C796.276 469.557 787.919 473.941 778.437 473.941C746.096 473.941 723.235 441.562 720.162 441.562C716.827 441.562 713.754 442.799 713.754 448.72C713.754 456.815 733.279 501.674 739.125 501.674C745.796 501.674 748.307 491.368 751.942 491.368C761.123 491.368 764.759 498.263 793.203 498.263C814.939 498.263 838.361 486.084 838.361 457.752C838.361 403.599 759.737 408.246 759.737 387.41C759.737 381.189 767.832 378.715 774.24 378.715C803.509 378.715 819.961 407.047 826.369 407.047C831.391 407.047 833.077 404.873 832.777 401.763C832.515 395.542 814.377 356.642 809.917 356.642C802.384 356.642 802.684 365.673 795.414 365.673C789.568 365.673 782.597 356.642 759.437 356.642C739.088 356.642 720.687 370.021 720.687 396.179M623.137 378.378C638.765 375.567 652.406 394.567 651.844 406.372L608.634 429.72C604.999 421.325 604.437 416.041 604.437 403.899C604.437 394.268 608.896 380.551 623.1 378.378M566.848 428.783C566.848 468.32 589.409 499.5 634.567 499.5C685.01 499.5 705.097 464.273 705.097 457.752C705.097 451.831 702.848 449.657 698.689 449.657C685.872 449.657 682.237 472.068 654.355 472.068C633.181 472.068 618.94 456.815 617.291 448.72L689.769 409.183C693.404 406.71 694.791 406.073 694.229 402.962C690.331 380.551 667.471 356.267 635.429 356.267C593.344 356.267 566.848 385.536 566.848 428.783ZM455.357 380.551V364.362C455.357 358.441 452.022 356.567 448.649 356.567C443.365 356.567 401.804 381.451 401.804 390.483C401.804 404.499 417.432 393.293 417.432 411.956V462.361C417.432 480.087 401.804 473.267 401.804 488.182C401.804 493.466 404.315 495.64 409.899 495.64H459.517C464.239 495.64 468.736 491.593 468.736 488.182C468.736 471.693 455.357 484.772 455.357 463.298V414.13C455.357 402.925 456.482 390.782 470.985 390.782C489.948 390.782 499.129 455.503 500.516 466.709C502.202 477.914 483.502 473.229 483.502 488.182C483.502 492.529 486.837 495.64 491.859 495.64H548.448C554.031 495.64 557.104 491.293 557.104 488.182C557.104 475.74 545.674 476.977 542.039 468.582C531.171 442.761 525.325 356.529 486.013 356.529C471.51 356.529 462.59 368.672 455.357 380.514M311.225 378.378C326.852 375.567 340.494 394.567 339.932 406.372L296.722 429.72C293.087 421.325 292.562 416.041 292.562 403.899C292.562 394.268 297.022 380.551 311.225 378.378ZM254.936 428.783C254.936 468.32 277.497 499.5 322.655 499.5C373.098 499.5 393.185 464.273 393.185 457.752C393.185 451.831 390.974 449.657 386.776 449.657C373.96 449.657 370.325 472.068 342.442 472.068C321.269 472.068 307.028 456.815 305.379 448.72L377.857 409.183C381.492 406.71 382.879 406.073 382.317 402.962C378.419 380.551 355.559 356.267 323.517 356.267C281.432 356.267 254.936 385.536 254.936 428.783ZM229.565 461.462V422.037C229.565 418.29 231.251 412.706 235.711 410.832C242.419 407.721 245.755 404.911 245.755 398.128C245.755 391.907 241.557 387.859 230.127 387.859H183.282C171.59 387.859 167.955 391.907 167.955 398.128C167.955 404.911 170.466 407.721 177.998 410.832C181.896 412.706 183.844 418.29 183.844 422.037V447.184C183.844 460.188 180.509 464.572 169.641 464.572H157.949C132.577 464.572 99.4112 446.584 99.4112 387.222C99.4112 327.86 134.826 314.856 153.751 314.856C194.15 314.856 213.413 352.707 223.456 352.707C230.989 352.707 231.251 348.097 230.989 342.476C230.727 338.428 212.888 289.298 208.429 284.651C205.093 281.54 205.093 281.24 201.196 281.24C195.35 281.24 193.401 290.272 188.079 290.272C182.758 290.272 166.343 287.761 149.891 287.761C81.3103 287.761 40.0493 335.955 40.0493 392.506C40.0493 472.33 105.257 495.677 185.568 495.677H227.092C242.419 495.677 244.93 495.378 244.93 484.172C244.93 472.967 229.603 475.778 229.603 461.462" fill="#164B9F"/>
<path d="M544.401 266.663C587.844 266.663 623.063 218.828 623.063 159.819C623.063 100.811 587.844 52.9756 544.401 52.9756C500.957 52.9756 465.739 100.811 465.739 159.819C465.739 218.828 500.957 266.663 544.401 266.663Z" fill="#EDC948"/>
<g filter="url(#filter0_f_2010_8)">
<path d="M501.316 176.237C501.316 180.377 496.283 183.732 490.073 183.732C483.864 183.732 478.831 176.629 478.831 172.49C478.831 168.35 483.864 164.995 490.073 164.995C496.283 164.995 501.316 172.098 501.316 176.237Z" fill="white"/>
<path d="M506.776 112.528C506.776 116.667 499.868 127.518 493.659 127.518C487.45 127.518 482.416 124.163 482.416 120.023C482.416 115.884 489.324 105.033 495.533 105.033C501.742 105.033 506.776 108.388 506.776 112.528Z" fill="white"/>
<path d="M561.116 118.149C561.116 122.289 556.082 125.644 549.873 125.644C543.664 125.644 538.63 122.289 538.63 118.149C538.63 114.01 543.664 110.654 549.873 110.654C556.082 110.654 561.116 114.01 561.116 118.149Z" fill="white"/>
<path d="M568.611 196.849C568.611 200.988 563.577 204.344 557.368 204.344C551.159 204.344 546.125 200.988 546.125 196.849C546.125 192.709 553.033 183.732 559.242 183.732C565.451 183.732 570.485 193.101 568.611 196.849Z" fill="white"/>
<path d="M523.802 211.839C523.802 215.978 518.769 223.082 512.559 223.082C506.35 223.082 501.317 219.726 501.317 215.587C501.317 211.447 500.729 198.722 506.938 198.722C513.147 198.722 523.802 207.7 523.802 211.839Z" fill="white"/>
<path d="M609.835 133.14C609.835 137.279 602.931 150.004 596.722 150.004C590.513 150.004 585.479 137.279 585.479 133.14C585.479 129 586.761 120.023 592.97 120.023C599.18 120.023 609.835 129 609.835 133.14Z" fill="white"/>
<path d="M604.213 208.091C604.213 212.231 599.18 215.587 592.97 215.587C586.761 215.587 581.728 212.231 581.728 208.091C581.728 203.952 581.14 194.975 587.349 194.975C593.558 194.975 604.213 203.952 604.213 208.091Z" fill="white"/>
<path d="M613.586 183.732C613.586 187.872 608.552 191.227 602.343 191.227C596.134 191.227 591.1 187.872 591.1 183.732C591.1 179.593 590.513 170.616 596.722 170.616C602.931 170.616 621.077 176.237 613.586 183.732Z" fill="white"/>
<path d="M561.116 78.7999C561.116 82.9394 554.212 95.6641 548.003 95.6641C541.794 95.6641 527.391 81.0656 527.391 76.9261C527.391 72.7867 528.673 63.8096 534.883 63.8096C541.092 63.8096 561.116 74.6605 561.116 78.7999Z" fill="white"/>
<path d="M589.223 118.15C589.223 122.289 582.32 135.014 576.111 135.014C569.901 135.014 564.868 122.289 564.868 118.15C564.868 114.01 566.15 105.033 572.359 105.033C578.569 105.033 589.223 114.01 589.223 118.15Z" fill="white"/>
<path d="M600.466 164.995C600.466 169.134 593.563 181.859 587.353 181.859C581.144 181.859 576.111 169.134 576.111 164.995C576.111 160.855 577.393 151.878 583.602 151.878C589.811 151.878 600.466 160.855 600.466 164.995Z" fill="white"/>
<path d="M551.748 194.975C551.748 199.115 546.714 202.47 540.505 202.47C534.296 202.47 529.262 199.115 529.262 194.975C529.262 190.836 536.169 181.859 542.379 181.859C548.588 181.859 553.621 191.228 551.748 194.975Z" fill="white"/>
<path d="M572.359 219.335C572.359 223.474 567.325 226.83 561.116 226.83C554.907 226.83 549.873 223.474 549.873 219.335C549.873 215.195 556.78 206.218 562.99 206.218C569.199 206.218 574.232 215.587 572.359 219.335Z" fill="white"/>
</g>
<path d="M629.544 137.071C764.12 281.241 517.791 302.865 374.483 141.531C539.977 277.306 693.179 233.459 629.544 137.071Z" stroke="white" stroke-width="9.90099" stroke-miterlimit="2.61"/>
<path fill-rule="evenodd" clip-rule="evenodd" d="M629.544 137.071C764.12 281.241 517.791 302.865 374.483 141.531C539.977 277.306 693.179 233.459 629.544 137.071Z" fill="#005AA9"/>
<path d="M460.418 166.492C325.842 22.3223 572.172 0.736165 715.479 162.033C549.986 26.2573 396.784 70.1041 460.418 166.492Z" stroke="white" stroke-width="9.90099" stroke-miterlimit="2.61"/>
<path fill-rule="evenodd" clip-rule="evenodd" d="M460.418 166.492C325.842 22.3223 572.172 0.736165 715.479 162.033C549.986 26.2573 396.784 70.1041 460.418 166.492Z" fill="#005AA9"/>
<path d="M554.929 159.599C554.929 156.189 555.604 153.078 556.841 150.305C558.077 147.494 559.689 145.096 561.675 143.11C563.661 141.124 565.835 139.625 568.158 138.538C570.482 137.488 572.768 136.964 574.979 136.964H580.113V142.698H575.841C572.543 142.885 569.732 143.784 567.409 145.471C565.123 147.157 563.399 149.293 562.312 151.842C561.188 154.428 560.663 157.126 560.663 159.974C560.663 162.26 561.075 164.696 561.862 167.244C562.649 169.83 564.186 172.079 566.472 174.027C568.72 175.976 571.793 176.913 575.728 176.913H580.113V182.647H574.754C570.969 182.647 567.559 181.635 564.523 179.574C561.525 177.55 559.164 174.739 557.478 171.217C555.791 167.694 554.929 163.759 554.929 159.524M510.033 159.524C510.183 155.627 510.933 152.179 512.244 149.181C513.593 146.22 515.28 143.747 517.416 141.836C519.515 139.924 521.763 138.5 524.199 137.563C526.635 136.626 528.959 136.177 531.282 136.177C534.542 136.177 537.428 136.851 539.939 138.163C542.45 139.475 544.886 141.536 547.322 144.347L543.836 148.919C541.625 146.745 539.564 145.021 537.653 143.784C535.742 142.548 533.606 141.911 531.207 141.911C527.947 141.948 525.173 142.847 522.812 144.571C520.451 146.295 518.653 148.544 517.453 151.242C516.254 153.94 515.617 156.714 515.617 159.562C515.617 161.735 515.954 163.909 516.629 166.045C517.304 168.181 518.315 170.13 519.665 171.854C520.976 173.578 522.625 174.964 524.574 176.014C526.523 177.063 528.696 177.625 531.132 177.7C534.055 177.663 536.604 176.876 538.777 175.339C540.951 173.803 542.637 171.891 543.799 169.568C544.961 167.244 545.56 164.921 545.635 162.597H531.657V156.863H551.219V161.51C551.182 164.733 550.582 167.731 549.42 170.43C548.296 173.128 546.76 175.452 544.811 177.4C542.862 179.349 540.726 180.848 538.365 181.86C536.004 182.872 533.568 183.396 531.132 183.396C528.246 183.396 525.548 182.759 523.037 181.598C520.526 180.436 518.315 178.749 516.367 176.576C514.455 174.402 512.919 171.891 511.832 168.968C510.745 166.083 510.146 162.897 510.071 159.449" fill="#BBBDBF"/>
<path d="M543.312 147.605C543.312 144.195 543.987 141.084 545.223 138.311C546.46 135.5 548.072 133.102 550.058 131.116C552.044 129.129 554.218 127.63 556.541 126.544C558.865 125.494 561.151 124.97 563.362 124.97H568.496V130.703H564.224C560.926 130.891 558.115 131.828 555.792 133.477C553.506 135.163 551.782 137.299 550.695 139.848C549.571 142.433 549.046 145.132 549.046 147.98C549.046 150.266 549.458 152.702 550.245 155.25C551.032 157.836 552.569 160.085 554.855 162.033C557.103 163.982 560.176 164.919 564.111 164.919H568.496V170.653H563.137C559.352 170.653 555.942 169.641 552.906 167.58C549.908 165.556 547.547 162.745 545.861 159.223C544.174 155.7 543.312 151.802 543.312 147.53M498.416 147.53C498.566 143.633 499.315 140.185 500.627 137.187C501.976 134.226 503.663 131.753 505.799 129.841C507.897 127.93 510.146 126.506 512.582 125.569C515.018 124.632 517.341 124.183 519.665 124.183C522.925 124.183 525.811 124.857 528.322 126.169C530.833 127.48 533.269 129.542 535.705 132.352L532.219 136.924C530.008 134.751 527.947 133.027 526.036 131.79C524.125 130.554 521.988 129.916 519.59 129.916C516.33 129.954 513.556 130.853 511.195 132.577C508.834 134.301 507.035 136.55 505.836 139.248C504.637 141.946 504 144.719 504 147.568C504 149.741 504.337 151.915 505.012 154.051C505.686 156.187 506.698 158.136 508.047 159.86C509.359 161.584 511.008 162.97 512.957 164.02C514.905 165.069 517.079 165.631 519.477 165.706C522.401 165.668 524.949 164.881 527.123 163.345C529.296 161.808 530.983 159.897 532.144 157.574C533.306 155.25 533.906 152.927 533.981 150.603H520.002V144.869H539.565V149.516C539.527 152.739 538.928 155.737 537.766 158.436C536.641 161.134 535.105 163.457 533.156 165.406C531.207 167.355 529.071 168.854 526.71 169.866C524.349 170.878 521.913 171.402 519.477 171.402C516.592 171.402 513.894 170.765 511.383 169.603C508.872 168.442 506.661 166.755 504.712 164.582C502.801 162.408 501.264 159.897 500.177 156.974C499.091 154.088 498.491 150.903 498.416 147.455" fill="#231F20"/>
</g>
<defs>
<filter id="filter0_f_2010_8" x="399.623" y="-15.3983" width="294.954" height="321.436" filterUnits="userSpaceOnUse" color-interpolation-filters="sRGB">
<feFlood flood-opacity="0" result="BackgroundImageFix"/>
<feBlend mode="normal" in="SourceGraphic" in2="BackgroundImageFix" result="shape"/>
<feGaussianBlur stdDeviation="39.604" result="effect1_foregroundBlur_2010_8"/>
</filter>
<clipPath id="clip0_2010_8">
<rect width="1089.11" height="544.554" fill="white" transform="translate(0.445312)"/>
</clipPath>
</defs>
</svg>
