<svg width="1090" height="545" viewBox="0 0 1090 545" fill="none" xmlns="http://www.w3.org/2000/svg">
<path d="M467.17 411.061H958.883" stroke="#008BD5" stroke-width="8.41584" stroke-miterlimit="22.93"/>
<path d="M958.883 318.693H352.506" stroke="#008BD5" stroke-width="8.41584" stroke-miterlimit="22.93"/>
<path fill-rule="evenodd" clip-rule="evenodd" d="M348.495 318.693H62.78C57.9389 318.693 53.9739 322.697 53.9739 327.585V402.166C53.9739 407.055 57.9389 411.058 62.78 411.058H459.378C414.287 381.496 381.229 351.701 348.449 318.693" fill="#B291D6"/>
<path fill-rule="evenodd" clip-rule="evenodd" d="M516.733 179.681H524.479V207.707H517.517C510.509 208.032 506.037 208.684 500.32 212.269C488.01 222.046 486.627 237.641 490.822 250.91C495.018 260.919 500.55 266.505 512.953 268.321H543.474V133.219H572.982V298.349H516.779C439.922 298.349 439.922 179.727 516.779 179.727" fill="#008BD5"/>
<path fill-rule="evenodd" clip-rule="evenodd" d="M590.87 301.423H657.631C676.811 301.423 692.486 284.849 692.486 264.598V240.017C692.486 219.766 676.811 203.192 657.631 203.192C645.367 203.192 635.362 203.192 623.052 203.192C617.427 203.192 612.816 198.63 612.816 193.09V179.216C612.816 173.676 617.427 169.114 623.052 169.114H686.032V138.527H618.856C599.584 138.527 583.77 153.937 583.77 172.792V195.65C583.77 214.505 599.538 229.915 618.856 229.915H653.527C659.567 229.915 664.547 235.222 664.547 241.693V257.801C664.547 264.272 659.567 269.579 653.527 269.579H590.824V301.376L590.87 301.423Z" fill="#008BD5"/>
<path fill-rule="evenodd" clip-rule="evenodd" d="M702.63 133.315H732.829V180.243H768.515V216.882H732.829V253.381C732.829 258.734 736.979 263.111 742.05 263.111H772.434V301.472H738.546C718.214 301.472 702.63 283.921 702.63 262.505V133.315Z" fill="#008BD5"/>
<path fill-rule="evenodd" clip-rule="evenodd" d="M209.671 131.173H119.075C72.7848 131.173 50.3315 169.813 50.101 209.618C49.8704 252.029 71.3094 295.791 126.866 295.791H209.671V187.364H143.464V218.882H179.426V261.573H122.256C102.108 261.573 89.6132 246.443 89.6132 227.914V208.454C89.6132 187.364 97.5894 165.344 126.267 165.344H209.625V131.126L209.671 131.173Z" fill="#008BD5"/>
<path fill-rule="evenodd" clip-rule="evenodd" d="M977.971 183.033H953.766C934.863 183.033 919.417 199.7 919.417 220.091V304.123H948.418V237.177C948.418 228.843 954.78 221.627 962.48 222.046L978.017 222.931V183.033H977.971Z" fill="#008BD5"/>
<path fill-rule="evenodd" clip-rule="evenodd" d="M899.176 183.033H838.824C810.746 183.033 787.786 207.8 787.786 238.108V249.048C787.786 279.355 810.746 304.123 838.824 304.123H860.402V264.784H837.533C827.851 264.784 819.967 256.264 819.967 245.836V240.389C819.967 229.961 827.851 221.441 837.533 221.441H868.101V304.123H899.176V183.033Z" fill="#008BD5"/>
<path d="M447.437 133.219H417.976V298.349H447.437V133.219Z" fill="#008BD5"/>
<path fill-rule="evenodd" clip-rule="evenodd" d="M398.335 209.618L386.393 181.08L378.555 193.743C378.555 193.743 378.094 214.46 376.665 217.207C375.236 219.907 366.66 232.197 358.223 243.091C349.786 253.939 340.795 268.045 337.891 268.929C334.986 269.814 323.367 268.929 320.463 270.093C317.558 271.257 316.405 277.123 316.405 277.123C316.405 277.123 301.56 287.97 303.911 292.998C306.216 297.979 314.1 298.259 311.196 310.037C308.291 321.769 369.058 295.047 379.524 281.825C389.99 268.603 400.732 248.073 398.427 209.572" fill="#B291D6"/>
<path fill-rule="evenodd" clip-rule="evenodd" d="M348.68 154.404C350.109 155.056 351.538 155.754 352.967 156.546L359.422 149.609C346.835 142.347 332.266 138.203 316.775 138.203C268.917 138.203 229.912 177.821 229.912 226.378C229.912 274.935 268.917 314.507 316.775 314.507C364.632 314.507 403.637 274.888 403.637 226.378C403.637 208.222 398.151 191.276 388.837 177.216L383.489 185.875C390.497 197.7 394.554 211.574 394.554 226.332C394.554 269.767 359.607 305.242 316.775 305.242C273.943 305.242 238.995 269.814 238.995 226.332C238.995 197.468 254.394 172.142 277.309 158.361C279.429 157.104 277.954 151.704 279.844 150.726C296.996 141.741 316.913 141.555 328.993 145.279C334.848 147.049 342.732 151.657 348.68 154.404Z" fill="#B291D6"/>
<path fill-rule="evenodd" clip-rule="evenodd" d="M264.583 159.709L278.23 153.238L276.478 161.153C276.478 161.153 259.004 179.356 256.975 184.663C254.947 189.97 260.479 198.443 263.384 199.328C266.289 200.212 272.974 199.933 274.726 202.54C276.478 205.194 284.593 220.184 286.944 223.955C289.249 227.773 297.133 228.052 299.715 235.128C302.343 242.158 307 239.551 311.656 239.551C316.313 239.551 317.466 239.272 317.466 239.272C317.466 239.272 321.846 243.369 321.846 245.417C321.846 247.465 318.342 250.492 312.532 251.935C306.723 253.424 302.942 258.359 300.314 260.687C297.686 263.015 284.178 264.318 273.712 262.829C263.246 261.339 254.394 258.592 243.328 257.987C232.263 257.382 230.834 231.87 234.338 217.763C237.842 203.657 255.546 168.741 255.546 168.741L264.583 159.616V159.709Z" fill="#B291D6"/>
<path fill-rule="evenodd" clip-rule="evenodd" d="M281.366 147.886L293.076 142.346C293.076 142.346 258.866 117.532 238.073 121.629C228.852 123.444 224.841 133.221 225.348 144.953C227.146 188.761 282.841 250.772 307.231 281.079C349.832 333.966 394.969 376.796 452.278 413.109C506.314 447.327 561.087 471.023 578.376 464.459C604.61 454.496 568.786 409.571 568.786 409.571H559.934C559.934 409.571 580.405 441.507 565.836 446.815C555.969 450.399 516.411 437.085 477.267 414.273C417.054 379.217 345.683 310.688 299.67 254.31C274.957 224.003 249.83 187.085 241.669 161.154C233.508 135.223 245.45 128.612 258.497 133.454C271.545 138.342 281.458 147.839 281.458 147.839" fill="#B291D6"/>
<path fill-rule="evenodd" clip-rule="evenodd" d="M439.783 139.786L444.624 144.023C444.624 144.023 456.15 125.075 456.98 97.9797C457.81 70.8848 434.527 79.4509 424.015 86.5272C413.503 93.6036 382.105 111.946 325.211 183.175C300.268 214.367 269.977 259.944 244.573 302.821C222.673 339.833 195.701 385.084 195.701 427.868C195.701 446.63 205.983 454.544 223.549 445.233C234.568 439.414 246.878 426.145 260.71 404.078H248.538C248.538 404.078 236.043 435.363 215.25 434.665C194.456 433.92 220.967 357.337 252.687 305.056C284.408 252.775 315.16 201.285 362.649 152.682C410.137 104.078 428.026 96.4434 438.722 98.3056C449.373 100.168 443.609 133.455 439.737 139.786" fill="#B291D6"/>
<path fill-rule="evenodd" clip-rule="evenodd" d="M75.4124 339.783V328.377H88.0452V339.783H75.4124ZM75.4124 391.692V344.438H88.0452V391.692H75.4124ZM94.7305 391.692V344.438H106.626V350.025C108.009 347.79 109.623 346.161 111.375 345.09C113.173 344.019 115.247 343.507 117.645 343.507C121.149 343.507 123.731 344.718 125.344 347.139C126.958 349.559 127.788 353.424 127.788 358.731V391.692H115.155V362.502C115.155 358.731 114.925 356.356 114.464 355.472C114.003 354.541 113.127 354.075 111.928 354.075C110.499 354.075 109.392 354.774 108.608 356.217C107.824 357.66 107.409 359.615 107.409 362.176V391.692H94.6844H94.7305ZM150.472 354.587C148.858 354.587 147.752 355.472 147.198 357.148C146.599 358.87 146.322 362.641 146.322 368.507C146.322 374.373 146.599 378.47 147.152 379.96C147.705 381.496 148.72 382.241 150.149 382.241C151.809 382.241 153.008 381.31 153.653 379.494C154.299 377.679 154.621 372.883 154.621 365.062C154.621 361.059 154.299 358.312 153.699 356.775C153.1 355.239 151.993 354.494 150.518 354.494L150.472 354.587ZM166.978 328.843V391.692H155.313V386.524C154.114 388.666 152.639 390.248 150.887 391.366C149.135 392.483 147.198 393.042 145.077 393.042C143.325 393.042 141.666 392.716 140.236 392.018C138.761 391.366 137.562 390.388 136.548 389.178C135.441 387.688 134.612 385.733 134.151 383.265C133.689 380.798 133.459 376.189 133.459 369.392C133.459 358.731 134.335 351.701 136.041 348.349C137.793 344.997 140.882 343.321 145.354 343.321C147.244 343.321 148.95 343.787 150.38 344.625C151.809 345.509 153.1 346.906 154.252 348.721V328.749H166.931L166.978 328.843ZM206.444 344.485V391.738H194.548V386.152C193.119 388.433 191.552 390.062 189.8 391.133C188.048 392.157 185.973 392.716 183.575 392.716C180.071 392.716 177.49 391.505 175.83 389.038C174.17 386.571 173.34 382.753 173.34 377.492V344.578H186.065V373.768C186.065 377.539 186.296 379.867 186.757 380.798C187.218 381.682 188.094 382.148 189.292 382.148C190.722 382.148 191.828 381.45 192.612 380.053C193.396 378.656 193.811 376.654 193.811 374.094V344.578H206.444V344.485ZM210.455 376.701H221.843C221.981 379.215 222.442 380.984 223.226 382.101C224.01 383.219 225.209 383.777 226.776 383.777C228.021 383.777 229.081 383.405 229.865 382.613C230.695 381.869 231.11 380.844 231.11 379.634C231.11 378.563 230.833 377.679 230.28 376.98C229.727 376.282 228.482 375.444 226.499 374.513C226.085 374.28 225.439 373.954 224.563 373.535C219.953 371.347 216.771 369.252 214.973 367.343C213.682 366.04 212.714 364.504 212.022 362.781C211.331 361.059 211.008 359.196 211.008 357.334C211.008 353.005 212.437 349.606 215.25 347.045C218.062 344.485 221.889 343.228 226.684 343.228C231.479 343.228 235.49 344.438 238.21 346.906C240.884 349.373 242.221 352.911 242.221 357.474V358.358H231.11C231.064 355.937 230.695 354.261 230.05 353.237C229.404 352.213 228.39 351.748 226.914 351.748C225.623 351.748 224.609 352.12 223.871 352.818C223.088 353.517 222.719 354.494 222.719 355.658C222.719 357.753 224.609 359.662 228.436 361.384C228.943 361.617 229.358 361.803 229.681 361.943C234.845 364.364 238.349 366.692 240.101 369.019C241.853 371.301 242.729 374.28 242.729 378.004C242.729 382.753 241.299 386.431 238.487 389.085C235.674 391.692 231.617 392.995 226.361 392.995C221.105 392.995 217.509 391.692 214.743 389.038C211.976 386.384 210.593 382.707 210.593 377.911V376.748L210.455 376.701ZM267.026 391.552C265.458 391.831 264.121 392.064 262.969 392.204C261.816 392.343 260.848 392.437 260.018 392.437C257.482 392.437 255.361 392.018 253.609 391.18C251.857 390.342 250.52 389.131 249.69 387.548C249.137 386.478 248.768 385.081 248.538 383.451C248.307 381.822 248.215 379.308 248.215 375.91V354.215H243.282V344.485H248.215V331.45H260.986V344.485H267.026V354.215H260.986V373.489C260.986 377.585 261.263 380.146 261.862 381.077C262.416 382.055 263.568 382.52 265.228 382.52C265.505 382.52 266.012 382.52 266.657 382.381C266.842 382.381 266.98 382.381 267.072 382.381V391.599L267.026 391.552ZM270.807 391.692V344.438H282.471V351.049C283.855 348.675 285.376 346.859 287.036 345.649C288.696 344.438 290.586 343.694 292.661 343.507V358.498C291.969 358.312 291.277 358.219 290.632 358.126C289.987 358.032 289.387 357.986 288.88 357.986C286.851 357.986 285.422 358.731 284.592 360.221C283.808 361.71 283.393 364.643 283.393 368.973V391.645H270.714L270.807 391.692ZM296.948 339.783V328.377H309.581V339.783H296.948ZM296.948 391.692V344.438H309.581V391.692H296.948ZM336.599 368.973C333.326 369.951 330.928 371.114 329.407 372.511C327.885 373.908 327.147 375.677 327.147 377.818C327.147 379.308 327.516 380.518 328.254 381.403C328.992 382.334 330.006 382.753 331.251 382.753C333.141 382.753 334.478 382.101 335.308 380.798C336.138 379.494 336.553 377.306 336.553 374.234V368.973H336.599ZM338.213 391.692L337.475 387.362C335.861 389.085 334.109 390.435 332.219 391.319C330.329 392.204 328.254 392.623 326.041 392.623C322.445 392.623 319.632 391.412 317.557 389.038C315.483 386.664 314.422 383.405 314.422 379.308C314.422 375.723 315.298 372.79 317.096 370.509C318.848 368.181 321.753 366.18 325.81 364.504C326.779 364.131 328.116 363.619 329.775 363.014C334.524 361.198 336.922 359.196 336.922 356.962C336.922 355.565 336.553 354.494 335.907 353.796C335.216 353.051 334.248 352.725 332.957 352.725C331.389 352.725 330.236 353.191 329.499 354.168C328.761 355.146 328.392 356.636 328.392 358.638V358.964H315.667C315.667 353.61 317.096 349.653 319.955 347.045C322.813 344.438 327.147 343.135 333.003 343.135C335.631 343.135 337.982 343.368 340.011 343.88C342.086 344.392 343.791 345.137 345.175 346.068C346.973 347.325 348.218 348.815 348.909 350.584C349.647 352.353 350.016 355.565 350.016 360.267V378.47C350.016 382.148 350.154 384.988 350.384 386.943C350.615 388.898 351.03 390.481 351.629 391.692H338.351H338.213ZM368.827 391.692H356.194V328.843H368.827V391.692Z" fill="white"/>
<path fill-rule="evenodd" clip-rule="evenodd" d="M414.01 376.701H425.398C425.536 379.215 425.997 380.984 426.781 382.101C427.565 383.219 428.764 383.777 430.331 383.777C431.576 383.777 432.637 383.405 433.42 382.613C434.25 381.869 434.665 380.844 434.665 379.634C434.665 378.563 434.389 377.679 433.835 376.98C433.282 376.282 432.037 375.444 430.055 374.513C429.64 374.28 428.994 373.954 428.118 373.535C423.508 371.347 420.326 369.252 418.528 367.343C417.237 366.04 416.269 364.504 415.578 362.781C414.886 361.059 414.563 359.196 414.563 357.334C414.563 353.005 415.993 349.606 418.805 347.045C421.617 344.485 425.444 343.228 430.239 343.228C435.034 343.228 439.045 344.438 441.765 346.906C444.44 349.373 445.777 352.911 445.777 357.474V358.358H434.665C434.619 355.937 434.25 354.261 433.605 353.237C432.959 352.213 431.899 351.748 430.47 351.748C429.179 351.748 428.164 352.12 427.427 352.818C426.643 353.517 426.274 354.494 426.274 355.658C426.274 357.753 428.164 359.662 431.991 361.384C432.498 361.617 432.913 361.803 433.236 361.943C438.4 364.364 441.904 366.692 443.656 369.019C445.408 371.301 446.284 374.28 446.284 378.004C446.284 382.753 444.854 386.431 442.042 389.085C439.184 391.692 435.172 392.995 429.916 392.995C424.66 392.995 421.064 391.692 418.298 389.038C415.531 386.384 414.148 382.707 414.148 377.911V376.748L414.01 376.701ZM470.397 375.118H482.292V376.282C482.292 381.775 480.909 385.965 478.142 388.759C475.376 391.552 471.227 392.949 465.694 392.949C462.928 392.949 460.392 392.53 458.133 391.738C455.874 390.947 454.122 389.783 452.877 388.34C451.448 386.664 450.433 384.476 449.834 381.729C449.234 378.982 448.912 374.606 448.912 368.554C448.912 361.896 449.234 357.241 449.834 354.587C450.433 351.934 451.494 349.792 453.015 348.07C454.444 346.44 456.289 345.23 458.502 344.438C460.715 343.6 463.297 343.228 466.247 343.228C469.198 343.228 471.826 343.647 473.993 344.532C476.16 345.416 477.958 346.72 479.295 348.489C480.448 349.932 481.278 351.701 481.785 353.749C482.292 355.798 482.523 359.243 482.523 364.178V369.857H461.821C461.821 369.857 461.821 370.183 461.821 370.369C461.729 372.371 461.683 373.721 461.683 374.559C461.683 377.865 462.052 380.146 462.697 381.45C463.389 382.753 464.541 383.405 466.201 383.405C467.63 383.405 468.737 382.893 469.475 381.915C470.212 380.937 470.581 379.401 470.581 377.399C470.581 376.98 470.581 376.375 470.489 375.537C470.489 375.397 470.489 375.258 470.489 375.118H470.397ZM462.19 361.71H470.72V361.478C470.812 360.314 470.858 359.429 470.858 358.964C470.858 356.636 470.489 354.96 469.751 353.842C469.014 352.725 467.907 352.167 466.386 352.167C464.864 352.167 463.712 352.725 463.066 353.796C462.421 354.867 462.098 356.636 462.098 359.103C462.098 359.755 462.098 360.314 462.098 360.686C462.098 361.058 462.098 361.431 462.144 361.71H462.19ZM493.449 391.692L484.643 344.438H497L500.55 377.306L505.391 344.438H515.995L520.744 377.306L524.34 344.438H536.65L527.798 391.692H514.566L510.555 365.667L506.636 391.692H493.403H493.449ZM539.278 339.783V328.377H551.911V339.783H539.278ZM539.278 391.692V344.438H551.911V391.692H539.278ZM558.596 391.692V344.438H570.538V350.025C571.921 347.79 573.534 346.161 575.286 345.09C577.085 344.019 579.159 343.507 581.557 343.507C585.061 343.507 587.643 344.718 589.256 347.139C590.87 349.559 591.7 353.424 591.7 358.731V391.692H579.067V362.502C579.067 358.731 578.837 356.356 578.375 355.472C577.914 354.541 577.038 354.075 575.84 354.075C574.41 354.075 573.304 354.774 572.52 356.217C571.736 357.66 571.321 359.615 571.321 362.176V391.692H558.596ZM609.681 361.85V365.295C609.681 371.487 609.958 375.397 610.511 377.073C611.064 378.749 612.078 379.587 613.554 379.587C615.029 379.587 616.09 378.842 616.689 377.353C617.288 375.863 617.565 372.744 617.565 367.949V366.04C617.565 360.919 617.288 357.707 616.735 356.356C616.182 355.006 615.121 354.355 613.646 354.355C612.263 354.355 611.295 354.96 610.649 356.124C610.004 357.288 609.681 359.243 609.681 361.85ZM630.336 344.485V386.803C630.336 391.133 630.106 394.345 629.645 396.44C629.184 398.535 628.446 400.304 627.385 401.701C625.91 403.656 623.974 405.146 621.484 406.124C619.04 407.101 616.09 407.613 612.632 407.613C607.284 407.613 603.318 406.496 600.737 404.215C598.155 401.98 596.818 398.489 596.818 393.833H609.358C609.358 395.602 609.681 396.906 610.28 397.697C610.88 398.535 611.848 398.908 613.185 398.908C614.799 398.908 615.951 398.349 616.551 397.278C617.196 396.207 617.473 394.112 617.473 390.947V385.407C615.813 386.99 614.199 388.153 612.678 388.852C611.156 389.597 609.635 389.923 608.067 389.923C605.854 389.923 603.918 389.317 602.166 388.06C600.46 386.803 599.123 385.034 598.201 382.707C597.694 381.496 597.325 379.727 597.094 377.446C596.864 375.165 596.725 372.185 596.725 368.507C596.725 364.829 596.818 361.85 597.002 359.103C597.186 356.356 597.417 354.122 597.694 352.399C598.201 349.746 599.4 347.604 601.29 345.882C603.18 344.159 605.393 343.321 607.837 343.321C609.865 343.321 611.756 343.833 613.508 344.857C615.26 345.882 616.966 347.511 618.579 349.653V344.392H630.198L630.336 344.485ZM654.357 391.692V344.438H665.607V350.025C666.99 347.79 668.511 346.114 670.171 345.044C671.831 343.973 673.813 343.461 676.119 343.461C678.193 343.461 679.992 344.019 681.513 345.137C683.035 346.254 684.187 347.837 684.971 349.978C686.354 347.744 687.876 346.114 689.581 345.044C691.287 343.973 693.27 343.461 695.529 343.461C698.895 343.461 701.384 344.671 702.952 347.092C704.52 349.513 705.303 353.377 705.303 358.684V391.645H693.178V361.71C693.178 358.358 692.947 356.217 692.486 355.332C692.025 354.448 691.241 354.029 690.089 354.029C688.752 354.029 687.645 354.774 686.861 356.17C686.077 357.613 685.709 359.615 685.709 362.129V391.645H673.767V361.71C673.767 358.358 673.537 356.217 673.076 355.332C672.615 354.448 671.831 354.029 670.678 354.029C669.341 354.029 668.281 354.774 667.497 356.17C666.713 357.613 666.344 359.615 666.344 362.129V391.645H654.311L654.357 391.692ZM731.676 368.973C728.402 369.951 726.005 371.114 724.483 372.511C722.962 373.908 722.224 375.677 722.224 377.818C722.224 379.308 722.593 380.518 723.331 381.403C724.068 382.334 725.083 382.753 726.327 382.753C728.218 382.753 729.555 382.101 730.385 380.798C731.215 379.494 731.63 377.306 731.63 374.234V368.973H731.676ZM733.289 391.692L732.552 387.362C730.938 389.085 729.186 390.435 727.296 391.319C725.405 392.204 723.331 392.623 721.118 392.623C717.567 392.623 714.709 391.412 712.634 389.038C710.559 386.664 709.499 383.405 709.499 379.308C709.499 375.723 710.375 372.79 712.173 370.509C713.925 368.181 716.83 366.18 720.887 364.504C721.855 364.131 723.192 363.619 724.852 363.014C729.601 361.198 731.998 359.196 731.998 356.962C731.998 355.565 731.63 354.494 730.984 353.796C730.292 353.051 729.324 352.725 728.033 352.725C726.466 352.725 725.313 353.191 724.575 354.168C723.838 355.146 723.469 356.636 723.469 358.638V358.964H710.698C710.698 353.61 712.127 349.653 714.986 347.045C717.844 344.438 722.178 343.135 727.987 343.135C730.615 343.135 732.967 343.368 734.995 343.88C737.07 344.392 738.776 345.137 740.159 346.068C741.911 347.325 743.202 348.815 743.894 350.584C744.631 352.353 745 355.565 745 360.267V378.47C745 382.148 745.138 384.988 745.369 386.943C745.599 388.898 746.014 390.481 746.614 391.692H733.289ZM770.819 373.116H783.314C783.314 373.349 783.314 373.675 783.314 374.094C783.314 374.466 783.314 374.792 783.314 374.978C783.314 381.031 781.977 385.546 779.256 388.526C776.536 391.505 772.433 392.995 766.946 392.995C760.722 392.995 756.342 391.18 753.806 387.502C751.27 383.824 750.026 377.399 750.026 368.135C750.026 358.87 751.317 352.399 753.852 348.721C756.388 345.044 760.768 343.228 766.946 343.228C772.525 343.228 776.582 344.718 779.21 347.651C781.838 350.63 783.129 355.193 783.129 361.478V362.315H770.865V360.965C770.865 358.126 770.589 356.124 769.989 354.913C769.39 353.703 768.422 353.098 767.038 353.098C765.425 353.098 764.364 353.889 763.811 355.518C763.258 357.101 762.981 361.338 762.981 368.135C762.981 374.932 763.258 378.842 763.811 380.612C764.364 382.381 765.425 383.265 766.992 383.265C768.329 383.265 769.298 382.66 769.943 381.356C770.542 380.099 770.865 378.098 770.865 375.304C770.865 375.072 770.865 374.746 770.865 374.234C770.865 373.721 770.865 373.396 770.865 373.07L770.819 373.116ZM788.8 391.692V328.843H801.479V349.513C802.54 347.511 803.923 346.021 805.629 345.044C807.334 344.066 809.363 343.554 811.714 343.554C815.218 343.554 817.8 344.764 819.414 347.185C821.028 349.606 821.858 353.47 821.858 358.777V391.738H809.225V362.548C809.225 358.777 808.994 356.403 808.533 355.518C808.072 354.587 807.196 354.122 805.997 354.122C804.568 354.122 803.462 354.82 802.678 356.263C801.894 357.707 801.479 359.662 801.479 362.222V391.738H788.8V391.692ZM827.713 339.783V328.377H840.346V339.783H827.713ZM827.713 391.692V344.438H840.346V391.692H827.713ZM847.031 391.692V344.438H858.926V350.025C860.309 347.79 861.923 346.161 863.721 345.09C865.519 344.019 867.594 343.507 869.992 343.507C873.496 343.507 876.078 344.718 877.691 347.139C879.305 349.559 880.135 353.424 880.135 358.731V391.692H867.502V362.502C867.502 358.731 867.271 356.356 866.81 355.472C866.349 354.541 865.473 354.075 864.275 354.075C862.845 354.075 861.739 354.774 860.955 356.217C860.171 357.66 859.756 359.615 859.756 362.176V391.692H847.031ZM906.876 375.118H918.771V376.282C918.771 381.775 917.388 385.965 914.622 388.759C911.855 391.552 907.706 392.949 902.173 392.949C899.407 392.949 896.871 392.53 894.612 391.738C892.353 390.947 890.601 389.783 889.31 388.34C887.88 386.664 886.866 384.476 886.267 381.729C885.667 378.982 885.391 374.606 885.391 368.554C885.391 361.896 885.713 357.241 886.313 354.587C886.912 351.934 887.973 349.792 889.494 348.07C890.923 346.44 892.768 345.23 894.981 344.438C897.194 343.6 899.776 343.228 902.726 343.228C905.677 343.228 908.305 343.647 910.472 344.532C912.639 345.416 914.437 346.72 915.774 348.489C916.927 349.932 917.757 351.701 918.264 353.749C918.771 355.798 919.002 359.243 919.002 364.178V369.857H898.3C898.3 369.857 898.3 370.183 898.3 370.369C898.208 372.371 898.162 373.721 898.162 374.559C898.162 377.865 898.531 380.146 899.176 381.45C899.868 382.753 901.02 383.405 902.68 383.405C904.11 383.405 905.216 382.893 905.954 381.915C906.691 380.937 907.06 379.401 907.06 377.399C907.06 376.98 907.06 376.375 906.968 375.537C906.968 375.397 906.968 375.258 906.968 375.118H906.876ZM898.669 361.71H907.199V361.478C907.291 360.314 907.337 359.429 907.337 358.964C907.337 356.636 906.968 354.96 906.23 353.842C905.493 352.725 904.386 352.167 902.865 352.167C901.343 352.167 900.191 352.725 899.545 353.796C898.854 354.867 898.577 356.636 898.577 359.103C898.577 359.755 898.577 360.314 898.577 360.686C898.577 361.058 898.577 361.431 898.623 361.71H898.669ZM921.906 376.701H933.294C933.433 379.215 933.894 380.984 934.677 382.101C935.461 383.219 936.66 383.777 938.227 383.777C939.472 383.777 940.533 383.405 941.317 382.613C942.146 381.869 942.515 380.844 942.515 379.634C942.515 378.563 942.239 377.679 941.685 376.98C941.132 376.282 939.887 375.444 937.905 374.513C937.49 374.28 936.844 373.954 935.922 373.535C931.312 371.347 928.13 369.252 926.332 367.343C925.041 366.04 924.073 364.504 923.382 362.781C922.69 361.059 922.367 359.196 922.367 357.334C922.367 353.005 923.797 349.606 926.609 347.045C929.421 344.485 933.248 343.228 938.043 343.228C942.838 343.228 946.849 344.438 949.523 346.906C952.197 349.373 953.534 352.911 953.534 357.474V358.358H942.423C942.377 355.937 942.008 354.261 941.363 353.237C940.717 352.213 939.703 351.748 938.227 351.748C936.937 351.748 935.922 352.12 935.185 352.818C934.401 353.517 934.032 354.494 934.032 355.658C934.032 357.753 935.922 359.662 939.749 361.384C940.256 361.617 940.671 361.803 940.994 361.943C946.158 364.364 949.662 366.692 951.414 369.019C953.166 371.301 954.042 374.28 954.042 378.004C954.042 382.753 952.612 386.431 949.8 389.085C946.941 391.692 942.93 392.995 937.674 392.995C932.418 392.995 928.822 391.692 926.056 389.038C923.289 386.384 921.906 382.707 921.906 377.911V376.748V376.701Z" fill="#008BD5"/>
<path d="M958.884 411.062C963.725 411.062 967.69 407.058 967.69 402.17" stroke="#008BD5" stroke-width="8.41584" stroke-miterlimit="22.93"/>
<path d="M967.689 402.17V327.589" stroke="#008BD5" stroke-width="8.41584" stroke-miterlimit="22.93"/>
<path d="M967.69 327.585C967.69 322.697 963.725 318.693 958.884 318.693" stroke="#008BD5" stroke-width="8.41584" stroke-miterlimit="22.93"/>
<path fill-rule="evenodd" clip-rule="evenodd" d="M1011.17 170.931H1018.04C1019.51 170.931 1020.62 170.652 1021.31 170.047C1022 169.442 1022.37 168.511 1022.37 167.254C1022.37 166.043 1022.05 165.159 1021.36 164.507C1020.66 163.902 1019.65 163.576 1018.31 163.576H1011.17V170.931ZM1005.31 186.574V158.827H1019.1C1022.19 158.827 1024.49 159.479 1025.97 160.782C1027.44 162.086 1028.23 164.041 1028.23 166.741C1028.23 168.417 1027.86 169.861 1027.12 170.978C1026.38 172.095 1025.37 172.887 1023.98 173.306C1025.23 173.725 1026.11 174.376 1026.61 175.261C1027.12 176.146 1027.44 177.496 1027.49 179.358L1027.63 182.617V182.756C1027.63 184.386 1028.04 185.41 1028.73 185.782V186.62H1022.32C1022.14 186.248 1021.96 185.736 1021.86 185.177C1021.77 184.619 1021.68 183.92 1021.68 183.129L1021.59 180.196C1021.49 178.473 1021.17 177.309 1020.57 176.704C1019.97 176.099 1018.91 175.82 1017.35 175.82H1011.17V186.62H1005.31V186.574Z" fill="#008BD5"/>
<path d="M1017.02 146.301C1031.41 146.301 1043.12 158.126 1043.12 172.651C1043.12 187.176 1031.41 199.001 1017.02 199.001C1002.64 199.001 990.927 187.176 990.927 172.651C990.927 158.126 1002.64 146.301 1017.02 146.301ZM1017.02 152.306C1005.91 152.306 996.874 161.431 996.874 172.651C996.874 183.871 1005.91 192.995 1017.02 192.995C1028.13 192.995 1037.17 183.871 1037.17 172.651C1037.17 161.431 1028.13 152.306 1017.02 152.306Z" fill="#008BD5"/>
</svg>
