<svg width="1090" height="545" viewBox="0 0 1090 545" fill="none" xmlns="http://www.w3.org/2000/svg">
<path fill-rule="evenodd" clip-rule="evenodd" d="M56.4114 157.203C56.4114 157.203 -19.0237 305.825 136.353 413.914C136.353 413.914 24.8926 297.945 56.4114 157.203ZM114.973 159.048C109.66 170.024 105.651 181.446 103.223 192.964C98.2809 216.412 98.228 245.534 111.612 277.647C111.612 277.647 109.066 241.218 118.018 202.126C120.711 190.366 124.625 178.795 129.715 167.787C128.379 166.907 127.043 166.08 125.706 165.295L114.973 159.048ZM294.012 77.2393C294.012 77.2393 250.138 58.7438 199.699 78.2361C167.173 90.8141 138.358 117.444 120.287 148.984L130.701 150.098C133.342 150.384 135.941 150.798 138.485 151.349C150.533 131.602 166.865 114.633 187.259 103.063C209.191 90.6232 243.17 78.777 294.012 77.2393ZM137.51 88.4915C137.51 88.4915 -12.2364 180.82 125.123 362.097C125.123 362.097 54.5767 260.286 99.5005 150.013L92.6708 146.025L100.827 146.895C109.109 127.498 120.987 107.867 137.51 88.4915ZM20.396 272.355C20.396 272.355 25.3593 320.226 51.5967 370.305C106.829 475.731 196.549 499.52 304.383 459.559C330.229 449.982 359.52 435.973 392.184 415.802C392.184 415.802 353.719 432.335 303.832 443.534C207.229 465.223 134.063 459.018 75.1827 376.328C58.2462 352.541 39.2946 319.123 20.396 272.355Z" fill="#D6B36A"/>
<path fill-rule="evenodd" clip-rule="evenodd" d="M247.083 316.231L315.435 170.345L341.439 335.183C345.511 355.598 355.809 372.831 374.304 383.044C381.113 386.798 391.411 390.499 399.333 390.902L422.962 392.101L399.937 397.52C379.65 402.292 360.21 396.725 344.228 383.818C332.021 373.967 327.164 367.561 322.487 352.405C318.627 339.881 315.89 326.614 313.494 313.739C310.8 299.316 308.541 284.797 306.505 270.279C304.745 257.69 303.1 245.027 301.669 232.365L244.03 365.906L184.057 233.267L175.435 337.622L175.381 337.845C174.639 341.217 174.713 344.589 178.118 346.307C179.528 347.029 181.766 347.506 183.379 347.443L187.122 347.294L186.348 358.1L134.084 358.759L134.742 347.029L143.619 346.583L143.779 346.594C151.637 346.944 155.773 332.977 156.716 327.017L168.934 224.867C171.214 205.82 172.444 203.052 159.559 187.684C151.87 178.511 141.222 169.39 130.914 163.378L117.371 155.477L132.961 157.142C149.918 158.955 164.766 166.612 176.644 178.713C181.543 183.708 187.228 190.919 190.292 197.325L247.083 316.231Z" fill="#D6B36A"/>
<path fill-rule="evenodd" clip-rule="evenodd" d="M549.428 251.835L569.96 199.944C570.978 197.378 572.177 194.228 573.618 191.874L573.672 191.8C575.347 189.232 578.285 188.384 581.202 188.384H610.207C615.563 188.384 618.702 191.789 619.741 196.847L619.784 197.081L619.794 197.314C620.07 202.119 615.34 204.325 611.448 205.3C610.292 205.629 606.58 206.763 605.796 207.803C604.979 208.895 605 212.724 605.063 214.028L608.892 340.039C609.549 341.131 613.76 342.288 614.724 342.522L614.863 342.553L615.001 342.596C619.041 343.942 622.848 346.466 623.76 350.9L623.814 351.154L623.824 351.419C624.1 357.878 618.33 359.83 612.954 359.83H582.432C577.129 359.83 572.389 357.73 571.243 352.15L571.18 351.843V351.535C571.126 347.209 574.658 344.6 578.275 343.062C579.473 342.553 581.064 341.874 582.167 341.131C582.251 341.058 582.4 340.92 582.421 340.856L582.442 340.761C582.602 340.135 582.591 339.128 582.58 338.448C582.442 336.561 582.368 334.663 582.262 332.775L579.091 230.223L554.699 291.786L538.632 326.56C536.872 331.418 533.595 338.385 527.528 338.385C522.925 338.385 519.967 333.75 518.143 330.113L492.212 278.37L470.398 227.571L473.611 339.499C473.696 339.838 473.866 340.358 474.025 340.485C475.637 341.313 477.981 342.002 479.73 342.553C484.439 343.815 488.491 346.529 489.529 351.557L489.562 351.716L489.583 351.886C490.177 357.687 485.373 359.819 480.345 359.819H453.461C451.213 359.819 448.594 359.67 446.505 358.768C443.81 357.602 442.538 354.929 441.987 352.204L441.922 351.886V351.557C441.922 347.06 445.518 344.473 449.357 343.041C450.322 342.617 452.92 341.408 453.674 340.644C454.077 339.361 454.098 335.946 454.098 334.832L450.343 210.91C450.111 209.871 449.474 207.421 448.837 206.954C447.172 205.894 444.564 204.982 442.708 204.314C439.452 203.147 435.973 201.1 435.22 197.43L435.189 197.272L435.167 197.102C434.573 191.184 438.688 188.384 444.182 188.384H474.343C476.973 188.384 479.201 189.392 480.897 191.343C482.413 192.987 483.527 195.024 484.45 197.091L484.482 197.165C485.213 198.916 485.988 200.654 486.709 202.405L529.257 296.738L549.428 251.835ZM661.419 334.09C661.813 335.904 662.544 338.725 663.679 340.103C665.089 341.63 666.637 342.999 668.303 344.239C670.498 345.883 672.651 348.068 673.223 350.846L673.277 351.101L673.287 351.355C673.647 359.32 662.416 359.839 656.923 359.839H643.847C640.241 359.839 635.521 359.787 632.022 358.885C628.617 358.005 626.517 355.576 625.817 352.161L625.722 351.706L625.754 351.249C626.03 347.803 628.056 345.205 630.823 343.38C633.337 341.599 635.14 339.276 636.137 336.318L643.677 312.964L689.12 201.228L689.152 201.153C691.019 197.165 693.14 192.829 695.664 189.223C697.287 186.911 699.662 184.015 702.759 184.015C708.931 184.015 715.824 196.37 718.433 200.867C725.476 212.373 732.009 224.23 738.085 236.31C744.427 248.92 750.388 261.72 755.902 274.712C761.247 287.311 766.189 300.079 770.697 312.954L780.018 337.176C781.387 340.241 783.699 342.351 786.72 343.783L786.859 343.847L786.986 343.922C789.626 345.491 791.409 347.803 792.034 350.835L792.087 351.09L792.098 351.344C792.406 358.238 785.544 359.83 780.029 359.83H752.487C747.1 359.83 741.828 357.984 740.63 352.15L740.567 351.832V351.504C740.567 346.88 744.511 344.218 748.372 342.67C749.083 342.383 751.734 341.248 751.914 340.188C751.066 336.253 749.422 331.821 748.097 328.055C745.286 320.102 742.253 312.212 739.188 304.331L738.339 302.062H669.617C668.303 306.517 666.977 310.97 665.662 315.425C664.463 319.476 663.297 323.602 662.396 327.727C661.993 329.594 661.441 332.118 661.419 334.09ZM900.133 339.435C898.065 329.89 890.663 317.779 885.466 309.729C881.744 303.96 877.884 298.255 873.769 292.761C871.203 289.346 868.466 285.889 865.528 282.76L833.193 288.455L835.06 340.559C835.092 340.676 835.123 340.782 835.155 340.835C835.621 341.185 836.173 341.471 836.756 341.673C837.69 342.002 838.633 342.32 839.578 342.628L839.684 342.659L839.79 342.702C841.444 343.391 843.141 344.176 844.679 345.109L844.731 345.14L844.785 345.183C846.725 346.466 847.616 348.672 848.062 350.867L848.114 351.123L848.125 351.377C848.422 358.016 842.293 359.861 836.789 359.861H806.627C801.282 359.861 795.979 358.036 794.781 352.246L794.717 351.929V351.6C794.717 347.198 798.875 344.631 802.459 343.105L802.544 343.073L802.628 343.041C803.594 342.691 806.765 341.471 807.539 340.644C808.059 339.276 807.995 334.207 807.974 332.786L804.018 208.217C803.499 207.039 800.073 205.957 799.15 205.703L799.065 205.682L798.981 205.649C797.23 205.056 795.205 204.314 793.604 203.38L793.54 203.337L793.477 203.296C791.514 202.023 790.655 199.658 790.2 197.473L790.146 197.229L790.135 196.975C789.817 190.41 795.629 188.427 801.102 188.427H871.171C883.027 188.427 896.633 190.06 906.634 196.996C916.476 202.925 923.231 211.344 925.565 222.682C926 224.782 926.095 227.221 926.159 229.352C926.827 251.804 910.909 265.92 892.264 274.924C906.369 291.658 917.887 312.529 927.294 331.958L927.336 332.043C928.471 334.589 930.009 337.738 931.758 339.859C933.243 341.535 935.746 342.871 937.814 343.773L937.93 343.826C941.187 345.406 944.771 347.803 945.556 351.6L945.609 351.854L945.619 352.119C945.863 358.259 939.924 359.85 934.918 359.85H901.491C896.284 359.85 890.207 358.471 888.977 352.532L888.913 352.225V351.918C888.871 348.555 890.769 346.085 893.696 344.579C895.541 343.625 897.344 342.596 899.105 341.503C899.868 340.994 900.102 340.305 900.133 339.435ZM1059.36 218.058C1059.68 222.809 1058.67 228.971 1052.64 228.971C1049.04 228.971 1043.68 222.799 1041.44 220.359C1036.89 215.428 1031.61 211.313 1025.83 207.94C1019.05 203.996 1010.67 202.871 1002.95 202.871C995.376 202.871 988.677 205.14 982.813 209.945C977.329 214.441 974.689 220.158 974.879 227.221C976.226 233.627 978.814 240.339 984.011 244.592C989.429 249.035 996.435 251.761 1003.11 253.522L1023.66 258.23C1034.15 260.733 1048.99 264.837 1057.65 271.466C1066.99 278.604 1072.77 288.052 1075.14 299.548C1075.67 302.136 1075.88 304.989 1076.04 307.63L1076.05 307.715V307.8C1076.2 324.217 1069.91 337.919 1057.31 348.471C1044.19 359.447 1027.54 363.096 1010.78 363.096C995.386 363.096 979.991 360.041 967.095 351.27L967.031 351.229L966.968 351.175C956.638 343.391 948.313 333.401 945.651 320.473L945.588 320.154V319.836C945.556 314.184 947.985 309.306 954.241 309.306C959.247 309.306 962.662 313.166 964.931 317.153C969.131 324.228 974.784 331.8 981.805 336.349C991.267 342.457 1001.98 344.971 1013.18 344.971C1019.99 344.971 1026.65 343.751 1032.96 341.153C1038.78 338.767 1043.68 335.172 1047.46 330.103C1051.15 325.118 1052.61 319.423 1052.46 313.283C1050.7 305.053 1046.47 298.732 1038.88 294.829C1028.49 289.495 1015.57 285.868 1004.28 283.036C992.217 280.014 978.718 275.973 967.869 269.812C958.229 264.329 952.746 255.653 950.529 244.868C949.957 242.09 949.703 239.004 949.426 236.172L949.416 236.087V236.002C948.726 221.059 954.666 208.545 965.971 198.862C977.902 188.649 992.851 185.065 1008.29 185.065C1023.69 185.065 1038.47 188.427 1051.79 196.359L1052.03 196.508L1052.25 196.688C1054.28 198.449 1057.48 201.302 1058.39 203.889L1058.46 204.091L1058.5 204.303C1059.4 208.831 1059.57 213.509 1059.36 218.058ZM731.329 283.948L730.895 283.111L700.861 221.728L675.461 283.948H731.329ZM832.821 270.342C843.205 268.729 853.693 266.906 863.874 264.466C872.337 262.441 880.036 258.538 886.994 253.341C893.898 248.177 896.846 241.21 896.708 232.693C892.084 211.037 871.223 206.498 851.7 206.498C848.062 206.498 836.841 206.636 833.617 208.746C831.029 211.027 831.083 217.156 831.274 220.19L831.284 220.296L832.821 270.342Z" fill="#D5B368"/>
</svg>
