<svg width="1090" height="545" viewBox="0 0 1090 545" fill="none" xmlns="http://www.w3.org/2000/svg">
<g clip-path="url(#clip0_2010_14)">
<path d="M79.3952 470.954L56.0835 526.393L32.872 470.954H25.8184V533.783H31.1448V506.247L30.7102 478.589L54.0554 533.783H58.1673L81.5904 478.378L81.1559 506.425V533.783H86.4823V470.954H79.3952Z" fill="#25D0C7"/>
<path d="M171.117 470.954L151.883 505.212L132.817 470.954H126.499L149.209 510.131V533.783H154.524V510.131L177.256 470.954H171.117Z" fill="#25D0C7"/>
<path d="M217.416 533.783V470.954H235.011C240.17 470.954 244.795 472.122 248.884 474.471C252.974 476.809 256.172 480.17 258.468 484.544C260.752 488.917 261.9 493.893 261.9 499.469V505.257C261.9 510.866 260.764 515.841 258.49 520.182C256.206 524.522 253.007 527.884 248.873 530.243C244.739 532.604 239.992 533.783 234.632 533.783H217.416ZM222.731 475.439V529.287H234.666C241.296 529.287 246.611 527.094 250.612 522.698C254.623 518.302 256.618 512.369 256.618 504.89V499.358C256.618 492.134 254.646 486.347 250.689 482.007C246.745 477.654 241.541 475.473 235.089 475.439H222.731Z" fill="#25D0C7"/>
<path d="M312.86 470.954H307.545V533.783H312.86V470.954Z" fill="#25D0C7"/>
<path d="M406.373 526.316C404.523 528.932 401.637 530.981 397.703 532.438C393.77 533.908 389.368 534.642 384.498 534.642C379.573 534.642 375.183 533.462 371.361 531.103C367.527 528.743 364.552 525.405 362.457 521.097C360.351 516.779 359.282 511.836 359.259 506.249V498.313C359.259 489.599 361.454 482.72 365.867 477.668C370.28 472.614 376.196 470.099 383.64 470.099C390.126 470.099 395.341 471.746 399.296 475.041C403.241 478.335 405.592 482.876 406.339 488.653H401.024C400.244 484.045 398.361 480.539 395.386 478.157C392.399 475.775 388.51 474.585 383.696 474.585C377.812 474.585 373.155 476.677 369.733 480.851C366.301 485.024 364.586 490.912 364.586 498.514V505.938C364.586 510.712 365.398 514.942 367.026 518.614C368.653 522.288 370.992 525.126 374.035 527.14C377.077 529.155 380.576 530.168 384.52 530.168C389.1 530.168 393.034 529.444 396.321 528.009C398.45 527.051 400.043 525.949 401.08 524.681V508.453H384.176V503.968H406.394V526.316H406.373Z" fill="#25D0C7"/>
<path d="M458.935 470.954H453.62V533.783H458.935V470.954Z" fill="#25D0C7"/>
<path d="M530.522 507.584H512.235V533.773H506.875V470.944H527.334C534.042 470.944 539.291 472.569 543.068 475.819C546.846 479.069 548.729 483.61 548.729 489.442C548.729 493.46 547.548 497.011 545.186 500.083C542.824 503.154 539.647 505.28 535.669 506.46L551.404 533.217V533.773H545.742L530.522 507.584ZM512.235 503.099H528.537C533.006 503.099 536.594 501.829 539.302 499.304C542.01 496.766 543.369 493.482 543.369 489.442C543.369 485.002 541.965 481.562 539.134 479.114C536.305 476.665 532.348 475.44 527.245 475.44H512.246V503.099H512.235Z" fill="#25D0C7"/>
<path d="M628.959 503.665H599.507V529.298H633.361V533.783H594.192V470.954H633.149V475.439H599.507V499.169H628.959V503.665Z" fill="#25D0C7"/>
<path d="M720.123 514.197C719.399 520.818 717.037 525.872 713.002 529.389C708.98 532.895 703.631 534.653 696.945 534.653C692.277 534.653 688.142 533.485 684.554 531.158C680.966 528.832 678.192 525.526 676.23 521.253C674.269 516.979 673.277 512.093 673.255 506.606V498.447C673.255 492.871 674.235 487.918 676.196 483.6C678.158 479.293 680.966 475.965 684.643 473.616C688.32 471.279 692.555 470.099 697.335 470.099C704.077 470.099 709.403 471.913 713.315 475.53C717.215 479.159 719.489 484.167 720.123 490.59H714.764C713.437 479.915 707.632 474.573 697.335 474.573C691.63 474.573 687.084 476.711 683.696 480.973C680.308 485.236 678.614 491.113 678.614 498.636V506.327C678.614 513.584 680.264 519.372 683.562 523.69C686.861 528.009 691.318 530.168 696.945 530.168C702.505 530.168 706.695 528.843 709.526 526.172C712.357 523.512 714.094 519.516 714.764 514.197H720.123Z" fill="#25D0C7"/>
<path d="M810.561 505.783C810.561 511.559 809.569 516.634 807.553 521.009C805.558 525.383 802.694 528.744 798.971 531.104C795.262 533.463 790.96 534.643 786.09 534.643C778.747 534.643 772.807 532.017 768.272 526.774C763.748 521.531 761.486 514.442 761.486 505.516V499.049C761.486 493.328 762.5 488.253 764.539 483.834C766.567 479.426 769.454 476.032 773.165 473.65C776.874 471.28 781.154 470.089 786.001 470.089C790.849 470.089 795.116 471.257 798.816 473.584C802.515 475.921 805.379 479.216 807.407 483.467C809.424 487.719 810.471 492.66 810.561 498.27V505.783ZM805.246 498.96C805.246 491.392 803.53 485.471 800.097 481.186C796.666 476.901 791.963 474.752 786.001 474.752C780.151 474.752 775.493 476.901 772.016 481.208C768.551 485.515 766.812 491.515 766.812 499.227V505.783C766.812 513.228 768.54 519.139 772.005 523.491C775.46 527.842 780.163 530.024 786.101 530.024C792.13 530.024 796.821 527.876 800.197 523.58C803.563 519.284 805.257 513.285 805.257 505.616V498.96H805.246Z" fill="#25D0C7"/>
<path d="M878.47 507.584H860.184V533.773H854.823V470.944H875.271C881.991 470.944 887.228 472.569 891.005 475.819C894.783 479.069 896.678 483.61 896.678 489.442C896.678 493.46 895.497 497.011 893.134 500.083C890.772 503.154 887.596 505.28 883.617 506.46L899.363 533.217V533.773H893.691L878.47 507.584ZM860.184 503.099H876.475C880.943 503.099 884.531 501.829 887.239 499.304C889.947 496.766 891.306 493.482 891.306 489.442C891.306 485.002 889.892 481.562 887.072 479.114C884.241 476.665 880.286 475.44 875.182 475.44H860.184V503.099Z" fill="#25D0C7"/>
<path d="M942.141 533.783V470.954H959.736C964.895 470.954 969.52 472.122 973.62 474.471C977.71 476.809 980.908 480.17 983.203 484.544C985.488 488.917 986.636 493.893 986.636 499.469V505.257C986.636 510.866 985.499 515.841 983.226 520.182C980.942 524.522 977.744 527.884 973.609 530.243C969.475 532.604 964.728 533.783 959.356 533.783H942.141ZM947.467 475.439V529.287H959.401C966.032 529.287 971.347 527.094 975.348 522.698C979.348 518.302 981.353 512.369 981.353 504.89V499.358C981.353 492.134 979.381 486.347 975.437 482.007C971.48 477.654 966.288 475.473 959.825 475.439H947.467Z" fill="#25D0C7"/>
<path d="M1066.73 518.337C1066.73 514.865 1065.49 512.105 1063.06 510.068C1060.6 508.042 1056.13 506.117 1049.61 504.292C1043.1 502.466 1038.36 500.474 1035.36 498.315C1031.09 495.265 1028.96 491.269 1028.96 486.317C1028.96 481.509 1030.94 477.602 1034.91 474.597C1038.86 471.592 1043.93 470.089 1050.1 470.089C1054.28 470.089 1058.02 470.89 1061.32 472.504C1064.61 474.118 1067.18 476.366 1069 479.237C1070.81 482.11 1071.71 485.315 1071.71 488.865H1066.36C1066.36 484.569 1064.88 481.108 1061.94 478.503C1059 475.888 1055.06 474.585 1050.1 474.585C1045.29 474.585 1041.44 475.654 1038.59 477.813C1035.74 479.961 1034.32 482.755 1034.32 486.217C1034.32 489.411 1035.6 492.026 1038.16 494.04C1040.72 496.055 1044.84 497.836 1050.48 499.372C1056.14 500.919 1060.41 502.511 1063.33 504.169C1066.24 505.827 1068.42 507.798 1069.89 510.102C1071.36 512.406 1072.1 515.121 1072.1 518.26C1072.1 523.202 1070.11 527.175 1066.15 530.169C1062.19 533.163 1056.96 534.654 1050.47 534.654C1046.04 534.654 1041.96 533.864 1038.27 532.284C1034.55 530.703 1031.74 528.488 1029.83 525.639C1027.91 522.79 1026.95 519.528 1026.95 515.844H1032.27C1032.27 520.274 1033.93 523.769 1037.24 526.328C1040.54 528.889 1044.96 530.169 1050.46 530.169C1055.36 530.169 1059.3 529.089 1062.27 526.929C1065.24 524.759 1066.73 521.899 1066.73 518.337Z" fill="#25D0C7"/>
<path d="M23.334 367.313H1074.64" stroke="#25D0C7" stroke-width="49.5049" stroke-miterlimit="10"/>
<path d="M264.007 264.114V190.989C264.007 178.802 257.9 172.714 245.687 172.714H123.579C111.366 172.714 105.259 178.813 105.259 190.989V264.114C105.259 274.275 100.992 282.189 92.4447 287.876C83.8979 293.553 73.9246 296.413 62.5362 296.413C51.1366 296.413 41.1634 293.564 32.6165 287.876C24.0697 282.2 19.8018 274.275 19.8018 264.114V190.989C19.8018 147.939 37.0961 117.676 71.6959 100.202C85.9371 93.3013 103.231 89.0385 123.59 87.4023H245.698C288.833 87.4023 319.154 104.676 336.66 139.201C343.569 153.426 347.848 170.688 349.475 190.989V264.114C349.475 274.275 345.208 282.189 336.66 287.876C328.114 293.553 318.14 296.413 306.741 296.413C295.341 296.413 285.368 293.564 276.822 287.876C268.274 282.189 264.007 274.275 264.007 264.114ZM184.644 295.189C172.832 295.189 162.759 291.015 154.424 282.701C146.077 274.375 141.91 264.314 141.91 252.539C141.91 240.764 146.077 155.162 154.424 146.837C162.759 138.511 172.832 134.349 184.644 134.349C196.445 134.349 206.519 138.523 214.865 146.837C223.2 155.162 227.379 240.764 227.379 252.539C227.379 264.325 223.2 274.387 214.865 282.701C206.508 291.015 196.433 295.189 184.644 295.189Z" fill="#25D0C7"/>
<path d="M880.619 172.705C868.406 172.705 862.3 178.804 862.3 190.98V264.105C862.3 274.266 858.031 282.18 849.474 287.867C840.926 293.543 830.953 296.404 819.565 296.404C808.154 296.404 798.193 293.554 789.645 287.867C781.099 282.191 776.819 274.266 776.819 264.105V190.98C776.819 147.929 794.113 117.666 828.713 100.192C842.955 93.2915 860.249 89.0287 880.607 87.3926H1045.45C1055.62 87.3926 1063.55 91.6554 1069.27 100.192C1074.96 108.729 1077.81 118.679 1077.81 130.054C1077.81 141.429 1074.96 151.379 1069.27 159.915C1063.55 168.441 1055.62 172.705 1045.45 172.705H880.619ZM1030.2 295.191C1018.39 295.191 1008.31 291.016 999.97 282.703C991.633 274.377 987.461 264.315 987.461 252.54C987.461 240.764 991.633 230.714 999.97 222.378C1008.32 214.052 1018.4 209.879 1030.2 209.879C1042 209.879 1052.07 214.052 1060.42 222.378C1068.75 230.703 1072.93 240.764 1072.93 252.54C1072.93 264.326 1068.76 274.389 1060.42 282.703C1052.07 291.016 1042 295.191 1030.2 295.191Z" fill="#25D0C7"/>
<path d="M719.566 254.188C711.298 311.874 627.813 264.984 642.044 177.457H500.691C488.956 177.457 483.084 183.423 483.084 195.321C483.084 207.242 488.956 213.184 500.691 213.184H688.477C698.25 213.184 705.871 217.28 711.365 225.483C716.837 233.697 719.566 243.269 719.566 254.188C719.566 265.129 716.826 274.689 711.355 282.892C705.871 291.095 698.239 295.191 688.466 295.191H500.691C481.123 293.622 464.497 289.503 450.814 282.858C417.562 266.019 400.925 236.848 400.925 195.332C400.925 153.828 417.551 124.646 450.814 107.806C464.497 101.15 481.123 97.0428 500.691 95.4735H618.062C629.797 95.4735 635.669 89.619 635.669 77.8991V31.0417C635.669 21.2918 639.781 13.6788 647.994 8.20283C656.206 2.73798 665.789 0 676.754 0C687.697 0 697.291 2.73798 705.504 8.20283C713.728 13.6788 717.829 21.2918 717.829 31.0417V77.8991L719.566 254.188Z" fill="#25D0C7"/>
</g>
<defs>
<clipPath id="clip0_2010_14">
<rect width="1089.11" height="544.554" fill="white"/>
</clipPath>
</defs>
</svg>
