<svg width="1090" height="545" viewBox="0 0 1090 545" fill="none" xmlns="http://www.w3.org/2000/svg">
<path d="M484.062 271.157C659.018 271.157 833.973 271.157 1008.93 271.477C1038.36 271.477 1063.62 287.469 1074.18 315.295C1077.38 323.931 1078.97 334.486 1078.65 346.961C1078.34 370.949 1078.34 395.257 1078.65 419.885C1078.97 432.359 1077.38 442.914 1074.18 451.55C1064.9 475.858 1041.24 495.049 1014.37 495.049H77.2193C40.7569 495.049 9.7319 465.623 10.0518 428.521C10.3716 400.694 10.3716 371.588 10.0518 341.843C10.0518 332.568 11.0113 324.251 13.5701 317.214C22.5257 289.069 49.0729 270.837 78.8185 270.837C187.886 270.837 296.953 270.837 406.34 270.837H484.062V271.157Z" fill="#FCB038"/>
<path d="M133.513 385.345L126.476 406.775C126.156 407.414 125.836 408.054 125.517 408.374C124.877 408.693 124.557 409.013 123.598 409.333C119.439 410.292 116.881 409.013 115.602 404.856C114.003 399.418 112.403 393.98 110.484 388.543C108.885 383.746 108.245 384.066 108.885 388.863C109.525 394.62 109.844 401.337 109.205 408.374C109.205 408.693 109.205 408.693 108.885 409.013C108.565 409.013 108.565 409.333 108.245 409.333H98.65C98.0102 409.333 98.0103 409.013 98.0103 408.693V368.074C98.0103 367.754 98.0103 367.434 98.3301 367.114C98.3301 366.793 98.65 366.474 98.65 366.474C98.9698 366.154 98.9698 366.154 99.29 366.154C99.6098 366.154 99.9296 366.154 100.249 366.154H110.484C111.763 366.154 112.724 366.793 113.363 368.393L120.72 391.102C121.359 393.021 121.999 393.021 122.638 391.102L129.995 368.074C130.315 367.434 130.635 367.114 130.954 366.474C131.594 366.154 131.914 365.834 132.553 365.834H143.429C144.708 365.834 145.667 366.474 145.667 368.074V408.374C145.667 408.693 145.667 408.693 145.347 409.013C145.028 409.333 145.028 409.333 144.708 409.333H135.113H134.793C134.793 409.333 134.472 409.333 134.472 409.013C134.472 409.013 134.472 408.693 134.152 408.693V408.374L134.472 385.345C134.152 384.066 133.833 384.066 133.513 385.345Z" fill="#141046"/>
<path d="M195.563 380.865C196.202 382.465 196.842 382.465 197.801 380.865L203.239 367.752C203.559 367.113 203.879 366.792 204.198 366.472C204.518 366.152 205.158 366.152 205.797 366.152H214.433C214.754 366.152 215.074 366.152 215.074 366.472C215.393 366.472 215.393 366.792 215.713 367.113C215.713 367.433 216.033 367.752 216.033 367.752C216.033 368.072 216.033 368.392 215.713 368.392C211.875 376.388 207.717 384.064 203.879 391.74C201.32 396.858 202.28 402.935 202.28 408.692C202.28 409.332 201.96 409.651 201.32 409.651H192.044C191.404 409.651 191.085 409.332 191.085 408.692C191.085 401.975 192.044 395.578 188.846 389.182C185.007 381.826 181.489 374.789 177.971 367.752C177.331 366.472 177.651 366.152 178.931 366.152L187.567 366.472C188.206 366.472 188.846 366.792 189.485 367.113C190.125 367.433 190.445 368.072 190.765 368.712L195.563 380.865Z" fill="#141046"/>
<path d="M259.85 396.537V408.051C259.85 409.01 259.531 409.331 258.571 409.331H249.934C248.975 409.331 248.335 408.69 248.335 407.731V367.751C248.335 366.152 248.975 365.512 250.574 365.832C260.81 366.472 278.721 362.633 282.239 377.346C285.437 390.46 273.284 397.816 261.769 394.938C260.49 394.617 259.85 395.258 259.85 396.537ZM259.531 376.067V385.342C259.531 385.662 259.531 385.662 259.85 385.981C260.17 386.301 260.17 386.301 260.49 386.301H263.688C265.608 386.301 267.527 385.662 268.806 385.022C270.085 384.063 271.044 382.783 271.044 381.824V380.225C271.044 379.584 270.725 378.945 270.405 378.305C270.085 377.666 269.445 377.346 268.806 376.706C268.166 376.067 267.207 376.067 266.567 375.747C265.608 375.427 264.647 375.427 263.688 375.427H260.49C260.17 375.427 260.17 375.427 259.85 375.747C259.85 375.427 259.531 375.747 259.531 376.067Z" fill="#141046"/>
<path d="M329.576 400.378H345.888C346.209 400.378 346.208 400.378 346.529 400.378C346.849 400.378 346.849 400.697 346.849 400.697L347.168 401.017C347.168 401.337 347.168 401.337 347.168 401.657V407.734C347.168 408.054 347.168 408.054 347.168 408.374C347.168 408.693 346.849 408.693 346.849 408.693L346.529 409.013C346.208 409.013 346.209 409.013 345.888 409.013H318.062C317.743 409.013 317.423 409.013 317.103 408.693C316.782 408.374 316.782 408.054 316.782 407.734V367.114C316.782 366.793 316.782 366.793 316.782 366.474C316.782 366.154 317.103 366.154 317.103 366.154L317.423 365.834C317.743 365.834 317.743 365.834 318.062 365.834H345.888C346.209 365.834 346.529 365.834 346.849 366.154C347.168 366.474 347.168 366.793 347.168 367.114V373.83C347.168 374.15 347.168 374.15 347.168 374.471C347.168 374.79 346.849 374.79 346.849 374.79L346.529 375.11C346.208 375.11 346.209 375.11 345.888 375.11L329.576 374.79C329.256 374.79 328.937 374.79 328.617 375.11C328.297 375.43 328.297 375.75 328.297 376.07V381.186C328.297 381.506 328.297 381.507 328.297 381.827C328.297 382.147 328.617 382.147 328.617 382.147L328.937 382.467C329.256 382.467 329.256 382.467 329.576 382.467H342.69C343.01 382.467 343.01 382.467 343.33 382.467C343.65 382.467 343.65 382.786 343.65 382.786L343.969 383.106C343.969 383.426 343.969 383.426 343.969 383.746V389.823C343.969 390.143 343.969 390.143 343.969 390.463C343.969 390.782 343.65 390.782 343.65 390.782L343.33 391.102C343.01 391.102 343.01 391.102 342.69 391.102L329.576 390.782C329.256 390.782 329.256 390.782 328.937 390.782C328.617 390.782 328.617 391.102 328.617 391.102L328.297 391.422C328.297 391.742 328.297 391.742 328.297 392.062V398.779C328.297 399.098 328.297 399.418 328.617 399.738C328.937 400.058 329.256 400.378 329.576 400.378Z" fill="#141046"/>
<path d="M403.783 376.068V408.052C403.783 408.372 403.783 408.692 403.462 408.692C403.142 409.012 402.822 409.012 402.822 409.012H393.547C393.227 409.012 392.907 409.012 392.907 408.692C392.588 408.372 392.588 408.052 392.588 408.052V376.068C392.588 375.748 392.588 375.429 392.268 375.429C391.948 375.109 391.628 375.109 391.628 375.109H381.073H380.753C380.753 375.109 380.433 375.109 380.433 374.789L380.113 374.469V374.148V367.113C380.113 366.792 380.113 366.472 380.433 366.472C380.753 366.152 381.073 366.152 381.073 366.152H415.936C416.256 366.152 416.576 366.152 416.576 366.472C416.895 366.792 416.895 367.113 416.895 367.113V374.148C416.895 374.469 416.895 374.789 416.576 374.789C416.256 375.109 415.936 375.109 415.936 375.109H405.382C405.062 375.109 404.742 375.109 404.742 375.429C403.783 375.748 403.783 376.068 403.783 376.068Z" fill="#141046"/>
<path d="M467.11 400.377C471.908 398.778 471.908 396.859 467.75 394.3C461.033 390.462 445.361 386.623 449.519 374.79C454.316 360.716 481.823 362.315 481.823 377.348C481.823 378.627 481.184 379.267 479.904 379.267L472.228 378.947C471.269 378.947 470.629 378.308 470.309 377.348C469.349 374.79 467.43 373.51 464.552 374.149C462.953 374.47 461.673 375.11 461.033 376.709C460.393 377.988 460.713 378.947 461.993 379.587C470.309 384.705 482.463 385.664 482.143 398.138C481.823 415.41 449.519 413.811 447.92 396.218C447.6 394.619 448.56 393.98 450.159 394.3C452.078 394.939 453.996 394.939 455.916 394.3C457.835 393.98 458.794 394.619 459.434 396.218C460.713 400.377 463.273 401.656 467.11 400.377Z" fill="#141046"/>
<path d="M527.561 398.457C527.241 401.655 527.241 404.854 527.881 407.732C527.881 408.052 527.881 408.052 527.881 408.372C527.881 408.692 527.881 408.692 527.561 409.012C527.561 409.331 527.241 409.331 526.922 409.331C526.602 409.331 526.602 409.331 526.282 409.331H517.646C517.327 409.331 516.687 409.012 516.367 408.692C516.047 408.372 515.728 408.052 515.728 407.413V367.432C515.728 366.152 516.367 365.513 517.646 365.513C526.282 366.152 540.035 363.274 546.432 369.671C551.231 374.469 551.55 380.225 546.752 387.582C546.113 388.541 545.153 389.502 544.194 390.141C543.234 390.461 542.914 391.42 543.554 392.38L550.911 406.773C551.55 408.372 551.23 409.012 549.311 409.012H541.315C539.716 409.012 538.756 408.372 538.117 406.773C536.518 403.254 534.918 399.736 532.999 396.538C530.121 392.06 528.201 392.38 527.561 398.457ZM527.561 376.068V384.384C527.561 384.704 527.561 384.704 527.881 385.023C528.201 385.343 528.201 385.343 528.522 385.343H532.999C534.598 385.343 535.878 385.023 537.157 384.064C538.117 383.424 538.756 382.145 538.756 381.185V379.586C538.756 378.946 538.756 378.626 538.436 377.987C538.117 377.347 537.797 377.027 537.157 376.708C536.518 376.388 535.878 376.068 535.237 375.748C534.598 375.428 533.638 375.428 532.999 375.428H528.522C528.201 375.428 528.201 375.428 527.881 375.748C527.561 375.428 527.561 375.748 527.561 376.068Z" fill="#141046"/>
<path d="M598.247 400.378H614.559C614.878 400.378 614.878 400.378 615.198 400.378C615.518 400.378 615.518 400.697 615.518 400.697L615.838 401.017C615.838 401.337 615.838 401.337 615.838 401.657V407.734C615.838 408.054 615.838 408.054 615.838 408.374C615.838 408.693 615.518 408.693 615.518 408.693L615.198 409.013C614.878 409.013 614.878 409.013 614.559 409.013H586.732C586.412 409.013 586.412 409.013 586.092 409.013C585.772 409.013 585.772 408.693 585.772 408.693L585.453 408.374C585.453 408.054 585.453 408.054 585.453 407.734V367.114C585.453 366.793 585.453 366.793 585.453 366.474C585.453 366.154 585.772 366.154 585.772 366.154L586.092 365.834C586.412 365.834 586.412 365.834 586.732 365.834H614.559C614.878 365.834 614.878 365.834 615.198 365.834C615.518 365.834 615.518 366.154 615.518 366.154L615.838 366.474C615.838 366.793 615.838 366.793 615.838 367.114V373.51C615.838 373.83 615.838 373.83 615.838 374.15C615.838 374.471 615.518 374.471 615.518 374.471L615.198 374.79C614.878 374.79 614.878 374.79 614.559 374.79L598.247 374.471C597.927 374.471 597.607 374.471 597.287 374.79C596.967 375.11 596.968 375.43 596.968 375.75V380.867C596.968 381.186 596.968 381.186 596.968 381.507C596.968 381.827 597.287 381.827 597.287 381.827L597.607 382.147C597.927 382.147 597.927 382.147 598.247 382.147H611.361C611.68 382.147 611.68 382.147 612 382.147C612.32 382.147 612.32 382.467 612.32 382.467L612.64 382.786C612.64 383.106 612.64 383.106 612.64 383.426V389.183C612.64 389.503 612.64 389.503 612.64 389.823C612.64 390.143 612.32 390.143 612.32 390.143L612 390.463C611.68 390.463 611.68 390.463 611.361 390.463L598.247 390.143C597.927 390.143 597.927 390.143 597.607 390.143C597.287 390.143 597.287 390.463 597.287 390.463L596.968 390.782C596.968 391.102 596.968 391.102 596.968 391.422V398.139C596.968 398.459 596.968 398.459 596.968 398.779C596.968 399.098 597.287 399.098 597.287 399.098L597.607 399.418C597.927 400.378 598.247 400.378 598.247 400.378Z" fill="#141046"/>
<path d="M669.893 375.107C665.735 373.187 660.618 376.067 659.978 380.544C659.338 385.342 659.338 389.82 659.978 394.617C660.618 399.095 666.055 401.334 669.893 399.735C670.853 399.415 671.812 398.456 672.132 397.496L672.772 395.577C673.091 394.937 673.411 394.617 673.731 394.297C674.051 393.978 674.691 393.978 675.331 393.658H683.327C683.647 393.658 683.647 393.658 683.967 393.658C684.286 393.658 684.286 393.978 684.606 393.978C684.606 394.297 684.926 394.297 684.926 394.617C684.926 394.937 684.926 394.937 684.926 395.257C683.007 403.574 677.889 408.371 669.893 409.33C659.338 410.609 652.301 406.452 649.423 396.537C644.305 379.904 652.942 359.114 673.731 365.511C679.808 367.431 683.647 371.588 684.926 378.625C685.246 379.584 684.606 380.544 683.647 380.864C677.25 382.783 673.411 381.503 671.492 377.026C671.173 376.386 670.533 375.747 669.893 375.107Z" fill="#141046"/>
<path d="M737.06 410.611C731.942 410.611 726.825 408.371 722.986 404.214C719.149 400.055 717.229 394.298 716.909 388.221C716.909 382.144 718.829 376.387 722.347 371.909C725.866 367.431 730.982 365.192 736.1 364.872C741.218 364.872 746.335 367.112 750.174 371.269C754.011 375.428 755.931 381.185 756.251 387.261C756.251 393.338 754.331 399.096 750.813 403.574C746.975 408.051 742.178 410.611 737.06 410.611ZM736.74 400.375C738.978 400.375 740.898 399.096 742.178 396.537C743.777 393.978 744.416 390.78 744.416 387.261C744.416 385.662 744.096 383.743 743.777 382.464C743.457 381.185 742.817 379.585 741.858 378.306C741.218 377.027 740.258 376.067 739.298 375.428C738.339 374.788 737.379 374.468 736.1 374.468C733.862 374.468 731.942 375.747 730.663 378.306C729.064 380.864 728.424 384.063 728.424 387.581C728.424 389.181 728.744 391.1 729.064 392.379C729.383 393.658 730.023 395.257 730.982 396.537C731.622 397.817 732.581 398.776 733.542 399.416C734.821 400.055 735.78 400.375 736.74 400.375Z" fill="#141046"/>
<path d="M817.341 392.699L825.657 408.691C825.657 408.691 825.657 408.691 825.657 409.011C825.657 409.011 825.657 409.011 825.657 409.33C825.657 409.33 825.657 409.33 825.337 409.33L813.823 409.65C813.183 409.65 812.863 409.33 812.863 409.011C810.944 405.173 809.025 401.015 807.106 396.857C806.467 395.898 805.827 394.937 804.867 394.618C803.587 394.298 802.628 394.298 801.669 394.937C801.029 395.258 800.709 395.898 800.709 396.857V408.051C800.709 409.011 800.07 409.65 799.11 409.65H791.754C790.474 409.65 790.154 409.011 790.154 408.051V367.751C790.154 367.431 790.154 367.431 790.154 367.112C790.154 366.792 790.474 366.792 790.474 366.792L790.793 366.472C791.114 366.472 791.114 366.472 791.434 366.472C801.349 366.792 825.017 362.633 823.738 380.224C823.418 385.342 821.499 388.861 817.661 391.1C817.021 390.78 817.021 391.739 817.341 392.699ZM801.029 376.067V384.383V384.703C801.029 384.703 801.029 385.022 801.349 385.022C801.349 385.022 801.669 385.022 801.669 385.342H801.988H807.106C807.746 385.342 808.385 385.342 809.025 385.022C809.665 384.703 810.304 384.383 810.624 384.063C811.264 383.743 811.583 383.104 811.903 382.784C812.223 382.464 812.223 381.824 812.223 381.185V378.945C812.223 378.306 812.223 377.986 811.903 377.346C811.583 377.026 811.264 376.387 810.624 376.067C809.984 375.747 809.665 375.427 809.025 375.108C808.385 374.788 807.746 374.788 807.106 374.788H801.988C801.669 374.788 801.669 374.788 801.349 375.108C801.029 375.427 801.029 375.747 801.029 376.067Z" fill="#141046"/>
<path d="M859.242 367.113C859.242 366.792 859.242 366.792 859.242 366.792C859.242 366.792 859.242 366.472 859.562 366.472L859.882 366.152H860.202H873.635C879.073 366.152 883.87 368.392 887.709 372.23C891.546 376.068 893.466 381.185 893.466 386.623V389.502C893.466 392.06 892.825 394.938 891.866 397.178C890.907 399.736 889.308 401.975 887.389 403.895C885.469 405.814 883.23 407.413 880.992 408.372C878.752 409.332 875.874 409.971 873.315 409.971H859.882C859.562 409.971 859.242 409.971 858.922 409.651C858.603 409.332 858.603 409.012 858.603 408.692L859.242 367.113ZM870.756 375.748V399.736C870.756 400.056 870.756 400.056 871.076 400.376C871.076 400.376 871.396 400.696 871.715 400.696H872.036C874.914 400.696 877.473 399.737 879.712 397.498C881.631 395.578 882.91 393.02 882.91 390.141V385.663C882.91 382.785 881.631 380.226 879.712 378.307C877.793 376.388 874.914 375.109 872.036 375.109H871.715C871.396 375.109 871.396 375.109 871.076 375.429C870.756 375.429 870.756 375.429 870.756 375.748Z" fill="#141046"/>
<path d="M949.438 398.134C949.758 395.575 948.479 393.976 945.921 393.016C941.443 391.737 937.285 389.818 933.766 387.579C924.491 382.142 927.369 369.668 936.965 366.469C945.921 363.59 953.277 364.87 959.035 370.627C960.953 372.546 961.593 374.466 961.593 377.344C961.593 378.623 960.953 379.263 959.674 379.263L952.638 378.943C951.358 378.943 950.398 378.303 950.078 377.344L949.119 375.425C948.479 374.466 947.52 373.825 946.24 373.825C944.322 373.825 942.722 374.466 941.442 376.065C939.843 377.984 940.163 379.263 942.402 380.222C951.039 384.061 963.512 387.259 962.233 399.093C960.314 415.725 928.009 412.847 928.009 395.894C928.009 394.295 928.648 393.656 930.248 394.295C932.487 394.935 934.406 394.935 936.645 394.295C937.925 393.976 938.564 394.295 938.884 395.575C940.163 400.053 943.361 401.652 948.159 400.373C948.479 400.053 949.119 399.413 949.438 398.134Z" fill="#141046"/>
<path d="M840.372 131.063C833.335 131.063 825.019 136.181 825.019 144.177C825.019 167.845 825.019 190.235 825.019 211.025C825.339 242.37 786.638 247.167 765.208 237.892C753.693 232.774 747.937 224.778 747.617 213.904C747.296 195.352 747.296 177.441 747.296 160.489C747.296 138.739 749.536 121.468 754.013 109.314C768.406 70.9328 807.748 54.3008 846.769 54.3008C896.025 54.3008 943.682 54.3008 990.06 54.3008C1026.2 54.3008 1028.76 131.383 987.5 131.063C930.888 131.063 881.952 131.063 840.372 131.063Z" fill="#141046"/>
<path d="M974.707 241.092C996.14 241.092 1013.41 223.821 1013.41 202.391C1013.41 180.962 996.14 163.69 974.707 163.69C953.277 163.69 936.005 180.962 936.005 202.391C936.005 223.821 953.277 241.092 974.707 241.092Z" fill="#141046"/>
<path d="M251.856 132.983C255.054 162.73 256.653 186.398 256.653 203.989C256.653 224.779 238.742 241.411 217.312 240.771C194.923 240.451 178.931 222.541 179.571 200.791C180.21 180.001 181.809 157.612 184.687 133.303C184.687 132.024 184.048 131.064 182.769 131.064C173.813 130.745 166.137 130.745 159.74 131.704C151.744 132.663 147.905 137.781 147.905 146.417C147.905 169.126 147.905 192.155 147.905 215.184C147.905 222.541 143.748 229.577 137.671 233.735C122.638 243.65 106.326 245.249 89.054 238.213C76.58 233.415 70.5029 224.459 70.5029 211.665C70.5029 196.313 70.5029 179.681 70.1831 160.81C70.1831 138.101 72.422 120.19 77.5395 107.716C85.2158 88.2052 99.2893 73.8122 119.759 64.5367C133.192 58.4596 150.784 54.3017 166.137 54.3017C195.563 54.6215 229.146 54.3017 266.249 53.9818C284.799 53.662 298.873 55.581 308.468 59.0993C347.489 73.1725 366.04 111.234 366.04 151.535C366.04 172.645 366.04 193.115 366.04 213.584C366.04 223.5 361.882 230.856 352.926 235.654C334.375 245.569 316.464 244.93 298.873 233.415C291.836 228.938 288.958 220.941 288.958 212.945C288.958 190.555 288.958 168.806 288.958 147.696C288.958 137.461 283.84 132.024 273.925 131.384C267.528 131.064 260.491 130.745 253.774 131.064C252.495 131.064 251.856 131.704 251.856 132.983Z" fill="#141046"/>
<path d="M484.061 271.157C483.741 275.955 483.741 283.632 483.741 294.507C484.381 329.369 421.692 332.568 408.898 305.061C404.739 296.426 406.659 282.033 406.339 271.157C406.659 267.64 406.659 262.522 406.659 255.165C406.659 244.611 408.578 232.776 412.417 219.343C423.291 182.56 453.676 159.532 492.698 158.892C517.965 158.572 556.666 158.252 608.481 158.572C628.951 158.572 628.951 126.588 608.801 126.588C545.792 126.588 487.9 126.588 434.806 126.588C422.971 126.588 414.335 120.511 409.537 109.636C403.14 94.6031 403.14 80.21 409.857 65.4972C415.615 53.343 424.57 49.5049 438.004 49.5049C496.855 49.8247 554.747 49.8247 611.36 50.1446C618.397 50.1446 626.713 51.424 635.988 54.3026C672.13 64.8575 693.24 87.8864 698.998 122.749C700.917 134.904 701.236 147.377 699.318 159.851C691.961 213.265 648.142 235.975 598.886 235.654C565.622 235.335 532.358 235.335 498.774 235.654C479.904 235.335 482.462 255.805 484.061 271.157Z" fill="#141046"/>
</svg>
