<svg width="1090" height="545" viewBox="0 0 1090 545" fill="none" xmlns="http://www.w3.org/2000/svg">
<path d="M111.065 213.425C93.0413 213.356 83.8959 213.356 83.6956 213.356C78.1549 213.082 73.482 214.519 69.3432 218.417C65.7383 221.906 63.8692 226.351 63.8692 231.754C63.8024 277.99 63.7357 326.004 63.7357 376.001C63.7357 376.274 63.6022 376.411 63.3352 376.411H10.5982C10.3312 376.411 10.1978 376.274 10.1978 376.001C10.1978 324.226 10.1978 272.518 10.1978 220.879C10.1978 190.239 31.6263 164.316 61.1989 159.392C64.6702 158.845 68.6756 158.503 73.2817 158.503C119.743 158.503 163.535 158.571 204.59 158.503C239.369 158.503 266.005 186.135 266.072 221.7C266.138 273.202 266.138 324.704 266.072 376.138C266.072 376.274 266.005 376.411 265.805 376.411H212.667C212.401 376.411 212.267 376.274 212.267 376.001C212.267 327.371 212.267 279.016 212.267 230.934C212.267 223.616 207.394 217.118 200.585 214.382C198.716 213.63 196.179 213.287 192.974 213.356C184.363 213.425 175.885 213.493 167.608 213.356C167.34 213.356 167.207 213.493 167.207 213.766V376.001C167.207 376.274 167.073 376.411 166.807 376.411H111.733C111.466 376.411 111.332 376.274 111.332 376.001V213.766C111.399 213.561 111.266 213.425 111.065 213.425Z" fill="#081A63"/>
<path d="M416.871 232.918L472.078 158.572C472.145 158.504 472.212 158.504 472.279 158.504H532.426C532.559 158.504 532.692 158.64 532.692 158.777C532.692 158.845 532.692 158.914 532.626 158.914L448.314 271.22C448.314 271.288 448.246 271.288 448.246 271.356V376.139C448.246 376.275 448.113 376.412 447.98 376.412H385.296C385.162 376.412 385.03 376.275 385.03 376.139V271.22C385.03 271.151 385.03 271.083 384.962 271.083L300.784 158.845C300.717 158.709 300.717 158.572 300.85 158.504C300.917 158.504 300.917 158.436 300.984 158.436H361.131C361.197 158.436 361.264 158.504 361.331 158.504L416.538 232.849C416.605 232.986 416.738 233.054 416.871 232.918Z" fill="#081A63"/>
<path d="M716.939 290.161L765.804 376.134C765.872 376.203 765.804 376.271 765.738 376.339H765.671H708.728C708.462 376.339 708.261 376.203 708.128 375.998C696.378 354.795 684.563 333.387 672.747 311.842C670.277 307.328 668.141 304.045 666.339 302.13C661.132 296.453 654.923 292.76 647.78 291.119C644.71 290.434 640.571 290.024 635.297 290.093C618.341 290.161 602.52 290.161 587.768 290.093C587.5 290.093 587.367 289.956 587.367 289.682V240.917C587.367 240.642 587.5 240.506 587.768 240.506C626.685 240.506 666.94 240.506 708.462 240.574C722.48 240.574 729.889 224.843 720.811 213.763C719.142 211.712 716.939 210.207 714.202 209.181C712.6 208.633 710.665 208.292 708.328 208.292C666.939 208.292 626.753 208.292 587.7 208.292C587.434 208.292 587.3 208.154 587.3 207.881V158.978C587.3 158.636 587.434 158.5 587.768 158.5C634.029 158.43 675.151 158.43 711.065 158.568C714.002 158.568 717.274 158.636 720.144 159.183C738.501 162.534 752.253 172.316 761.265 188.456C762.533 190.714 764.002 193.86 765.604 197.964C771.879 213.558 772.68 229.905 767.34 245.84C766.138 249.466 764.736 253.022 763.068 256.716C754.656 275.388 737.033 287.699 717.073 289.682C716.806 289.682 716.739 289.888 716.939 290.161Z" fill="#081A63"/>
<path d="M1073.42 300.832C1060.27 339.134 1025.95 366.356 986.965 370.665C983.027 371.075 978.153 371.281 972.279 371.281C959.127 371.212 946.111 371.212 933.293 371.281C927.953 371.281 923.28 371.075 919.408 370.665C887.031 367.04 858.327 347.752 841.705 319.231C815.203 273.612 825.817 215.133 865.937 181.961C881.892 168.829 900.116 161.169 920.743 159.048C925.283 158.57 930.156 158.365 935.43 158.433C947.245 158.502 958.193 158.502 968.207 158.433C974.215 158.365 979.154 158.502 982.893 158.775C1007.72 160.826 1029.02 170.333 1046.84 187.432C1061.13 201.112 1072.01 219.921 1076.55 240.029C1081.36 260.685 1080.29 280.929 1073.42 300.832ZM1031.23 265.815C1031.49 251.11 1026.75 237.977 1017 226.419C1006.39 213.833 990.574 206.857 974.415 206.721C962.866 206.652 950.783 206.584 938.233 206.652C931.491 206.652 926.551 206.926 923.48 207.405C882.559 213.902 861.999 261.437 884.829 297.003C893.173 310.066 906.591 319.026 921.478 321.967C925.283 322.72 930.089 323.061 935.897 322.993C947.513 322.856 959.461 322.856 971.812 322.993C977.151 323.061 981.758 322.651 985.63 321.899C1011.93 316.427 1030.75 293.31 1031.23 265.815Z" fill="#081A63"/>
</svg>
