<svg width="1090" height="545" viewBox="0 0 1090 545" fill="none" xmlns="http://www.w3.org/2000/svg">
<path d="M40.3466 499.211V175.034C40.3466 169.094 57.7418 132.276 62.1528 124.877C119.07 29.5054 255.35 26.3749 327.741 105.667C305.152 125.339 296.65 154.509 286.547 181.651C249.622 117.691 149.342 116.517 122.413 190.58C120.279 196.414 118.287 200.54 117.54 207.05C109.5 278.196 124.085 363.216 116.935 435.891C106.085 471.215 79.4057 499.531 40.3821 499.211H40.3466Z" fill="#CC2C32"/>
<path d="M1046.38 168.385C998.824 143.092 945.18 139.073 905.267 180.302C899.362 186.385 895.769 195.278 889.401 200.365C891.714 162.729 871.508 133.416 852.405 103.393C901.532 52.7013 982.887 35.3773 1046.42 68.3179V168.349L1046.38 168.385Z" fill="#CC2C32"/>
<path d="M133.514 277.767L157.632 302.953C206.118 333.617 269.901 319.495 291.031 263.609C305.758 224.728 297.434 186.274 317.604 146.183C369.718 42.7011 514.358 23.9185 587.283 115.057C621.184 85.1397 654.729 59.5983 701.721 56.3611C779.448 50.9896 856.748 104.989 874.713 181.685C882.112 213.309 876.527 239.74 891.503 271.578C920.993 334.328 1009.39 332.514 1046.35 277.767V377.799C967.416 421.162 842.626 397.506 810.076 305.159C796.523 266.704 804.207 207.902 785.104 178.127C761.733 141.665 717.195 127.258 676.464 143.052C581.876 179.764 673.405 327.321 602.757 378.652C588.741 388.862 587.567 387.439 574.014 376.376C513.682 327.249 584.686 197.195 520.263 152.764C489.742 131.74 454.347 131.491 422.758 150.203C368.046 182.61 386.331 240.914 373.098 292.53C347.379 393.024 216.612 424.364 133.443 377.799V277.767H133.514Z" fill="#3E3E3A"/>
</svg>
