<svg width="1090" height="545" viewBox="0 0 1090 545" fill="none" xmlns="http://www.w3.org/2000/svg">
<path d="M356.176 221.715H324.353V222.076C325.379 223.883 326.064 226.413 326.064 228.942C326.064 232.917 323.668 240.144 322.983 243.396L302.794 304.826C300.057 312.775 299.715 314.943 294.924 322.531V322.893H321.272V322.531C319.904 320.003 319.22 317.834 319.22 315.305C319.22 311.33 320.931 305.91 321.958 303.019L323.326 298.683H352.07C352.07 298.683 353.781 304.103 355.15 307.355C356.176 310.246 356.519 313.136 356.519 314.943C356.519 317.112 356.176 318.919 355.15 322.531V322.893H393.475V322.531C389.369 317.112 387.316 310.968 383.894 300.85L356.176 221.715ZM328.459 282.06L337.356 253.875L346.595 282.06H328.459ZM278.499 300.49C278.499 309.524 279.183 317.834 281.921 322.531V322.893H244.279V322.531C248.044 315.666 247.36 308.801 247.36 300.85V284.229V280.254L242.226 269.775L224.09 234.001C221.695 228.942 219.642 225.69 215.877 222.076V221.715H248.728V222.076L268.233 263.993C268.233 263.993 272.681 254.598 273.708 252.43C275.762 248.094 278.157 243.034 279.183 240.867C280.894 237.615 282.605 232.917 282.605 229.304C282.605 225.69 281.578 223.883 280.552 222.437V221.715H306.559V222.076L280.21 277.002L278.157 280.976L278.499 300.49ZM467.731 322.893H400.319V322.531C403.057 316.028 403.399 310.607 403.399 300.85V243.757C403.399 231.832 402.372 227.135 400.319 222.437V222.076H436.934V222.437C434.539 229.304 434.196 233.278 434.196 244.119V302.296C438.303 303.019 443.093 303.741 448.226 303.741C459.176 303.741 464.994 302.657 469.1 300.85H470.127L467.731 322.893ZM171.392 219.186C141.622 219.186 121.09 238.699 121.09 266.161C121.09 306.271 161.469 312.052 175.499 299.044L173.103 293.985C160.784 296.515 149.835 286.758 149.835 264.716C149.835 247.01 158.732 235.808 171.051 235.808C185.422 235.808 194.319 250.984 194.319 273.027C194.319 297.96 180.632 316.75 155.309 316.75C126.223 316.75 104.323 292.539 90.6351 268.33C105.691 262.186 114.588 250.262 114.588 234.001C114.588 213.042 99.5319 198.228 72.4988 198.228H21.1699V198.589C23.2231 203.286 24.2497 211.958 24.2497 223.883V300.85C24.2497 310.607 23.9075 316.028 21.1699 322.531V322.893H59.1534V322.531C56.758 316.389 56.0736 308.078 56.0736 300.85C56.0736 288.927 56.0736 279.531 56.0736 279.531C56.4159 279.531 60.1799 279.531 60.8643 279.531C87.2132 320.363 117.326 337.347 149.492 337.347C196.03 337.347 223.406 306.271 223.406 271.942C223.406 242.673 202.532 219.186 171.392 219.186ZM56.4158 263.27V217.379H67.0238C79.3427 217.379 84.4756 224.967 84.4756 237.253C84.4756 252.068 76.263 263.631 62.9174 263.631C60.8643 263.27 57.1002 263.27 56.4158 263.27ZM694.605 222.076C692.552 226.774 691.525 231.832 691.525 243.396V306.271C691.868 312.775 692.21 317.112 694.605 322.17V322.531H691.525H685.366H672.363C667.571 320.363 662.439 314.221 655.595 306.632C650.12 300.489 624.456 269.052 624.456 269.052H624.113C624.113 269.052 624.113 298.683 624.113 299.044C616.585 299.767 607.688 301.934 600.845 303.741V297.237V243.034C600.845 231.11 599.818 226.413 597.765 221.715V221.353H616.927H624.798L668.257 277.002V243.757C668.257 231.832 667.23 227.135 665.176 222.437V222.076H685.366H694.605ZM649.777 322.893C611.794 323.254 602.897 344.935 554.649 344.935C531.379 344.935 510.848 338.431 510.848 338.431V338.07C513.585 331.565 513.927 326.507 513.927 316.75V223.883C513.927 211.958 512.901 203.286 510.848 198.589V198.228H588.525L590.921 220.993C585.103 218.463 577.917 217.74 567.652 217.74H547.12V257.128H557.044C572.443 257.128 581.34 256.043 583.735 255.321H584.419V279.17H584.076C580.997 278.086 570.389 277.002 557.728 277.002H547.463V316.389C547.463 316.389 559.439 319.28 570.389 319.28C599.133 319.28 611.453 308.439 639.855 308.439C640.88 308.439 641.566 308.439 642.25 308.439C647.725 315.305 652.515 320.725 654.569 322.893C652.515 322.893 652.515 322.893 649.777 322.893ZM815.057 243.757V301.212C815.057 310.968 815.399 316.389 818.137 322.893V323.254H781.179V322.893C783.917 316.389 784.26 310.968 784.26 301.212V243.757C784.26 231.832 783.233 227.135 781.179 222.437V222.076H818.137V222.437C816.083 227.135 815.057 231.832 815.057 243.757ZM740.801 265.8H743.539C757.226 265.8 761.674 264.716 763.728 264.354H764.412V285.313H763.728C760.99 284.229 755.174 283.144 743.88 283.144H740.801V295.431V300.49C740.801 310.607 741.144 317.473 744.223 322.531V322.893H706.924V322.531C709.662 316.028 710.004 310.607 710.004 300.85V243.757C710.004 231.832 708.977 227.135 706.924 222.437V222.076H770.571L772.968 242.673H772.625C768.176 240.506 762.36 239.422 753.12 239.422H740.801V256.043V265.8ZM898.894 301.934L896.499 322.893H852.356H830.798V322.531C833.535 316.028 833.877 310.607 833.877 300.85V243.757C833.877 231.832 832.851 227.135 830.798 222.437V222.076H894.446L896.841 242.673H896.499C892.051 240.506 886.233 239.422 876.994 239.422H864.674V262.547H867.071C880.758 262.547 885.206 261.463 887.26 261.102H887.944V282.06H887.26C884.522 280.976 878.705 279.893 867.412 279.893H864.333V303.741C868.781 304.464 871.861 304.826 876.994 304.826C888.628 304.826 892.735 304.103 897.525 301.934H898.894ZM1068.28 275.556C1068.28 310.246 1044.33 337.347 1003.95 337.347C972.808 337.347 962.884 322.893 924.216 322.893H908.133V322.531C910.87 316.028 911.213 310.607 911.213 300.85V243.396C911.213 231.471 910.186 226.774 908.133 222.076V221.715H945.09V222.076C943.037 226.774 942.01 234.362 942.01 243.757V305.187C964.937 305.187 975.203 312.414 995.395 312.414C1023.45 312.414 1037.14 296.153 1037.14 273.027C1037.14 253.152 1027.55 238.337 1010.79 238.337C1007.71 238.337 1003.27 238.337 999.841 238.337V300.85C989.575 301.212 977.598 299.767 969.044 296.515V243.396C969.044 231.471 968.017 226.774 965.964 222.076V221.715H1009.42C1045.36 221.715 1068.28 245.203 1068.28 275.556Z" fill="#DA291C"/>
</svg>
